<mxfile host="app.diagrams.net" modified="2021-12-21T21:42:29.216Z" agent="5.0 (Macintosh; Intel Mac OS X 10_15_7) AppleWebKit/605.1.15 (KHTML, like Gecko) Version/15.2 Safari/605.1.15" etag="Lmz69eKyBNZhWsRVHi-B" version="16.0.0" type="github">
  <diagram id="EAggIgxpl4k7xXxJwYXY" name="Page-1">
    <mxGraphModel dx="946" dy="1703" grid="1" gridSize="10" guides="1" tooltips="1" connect="1" arrows="1" fold="1" page="1" pageScale="1" pageWidth="827" pageHeight="1169" math="0" shadow="0">
      <root>
        <mxCell id="0" />
        <mxCell id="1" parent="0" />
        <mxCell id="clUydpwqfqvUc8bR2Yav-10" value="Backend structure" style="text;html=1;align=center;verticalAlign=middle;resizable=0;points=[];autosize=1;strokeColor=none;fillColor=none;" parent="1" vertex="1">
          <mxGeometry x="330" y="55" width="110" height="20" as="geometry" />
        </mxCell>
        <mxCell id="clUydpwqfqvUc8bR2Yav-12" value="" style="shape=image;verticalLabelPosition=bottom;labelBackgroundColor=#ffffff;verticalAlign=top;aspect=fixed;imageAspect=0;image=data:image/png,iVBORw0KGgoAAAANSUhEUgAAAsAAAANKCAYAAACEc/jlAAAMbWlDQ1BJQ0MgUHJvZmlsZQAASImVVwdYU8kWnluSkEoJICAl9CZIJ4CUEFoA6UWwEZJAQokxIajYy6KCaxdRrOiqiGJbAbFjX1kUu2tZLKgo66IuNlTehAR03Ve+d75v7v1z5sx/yp3JvQcA7fd8mawA1QGgUFokT4oMZY3KyGSROgANMAAVoIDKFyhknISEWABl4P53eXsDIKr7VRcV1z/n/6voCUUKAQDIGIizhQpBIcQnAMDXCWTyIgCIKr31pCKZCs+CWF8OA4R4pQrnqvEOFc5W4yP9NilJXIgvA6BF4/PluQAw7kI9q1iQC3kYnyB2kwolUgC0h0EcJBDzhRCrYh9WWDhBhSshdoD2MohhPICd/Q1n7t/4swf5+fzcQazOq1+0wiQKWQF/yv9Zmv8thQXKAR92cNDE8qgkVf6whrfyJ8SoMA3iLml2XLyq1hC/lwjVdQcApYiVUalqe9RUoODC+gFDiN2E/LAYiE0hjpAWxMVq9Nk5kggexHC3oJMlRbwUiI0gXiBShCdrbDbJJyRpfKH1OXIuR6M/z5f3+1X5uq/MT+Vo+F+LRTwNP8YoEaekQ0yB2KZYkhYHMQNiV0V+cozGZkSJmBs3YCNXJqnit4E4SSSNDFXzY8U58ogkjX1ZoWIgX2yTWMKL0+D9ReKUKHV9sNMCfn/8MBfsskjKSR3gESlGxQ7kIhSFhatzx56JpKnJGp73sqLQJPVanCIrSNDY41aigkiV3gpiL0VxsmYtnlYEN6eaH8+RFSWkqOPES/L40QnqePClIBZwQRhgASUc2WACyAOS1q6GLvhLPRMB+EAOcoEIuGg0AyvS+2ek8JoMSsAfEImAYnBdaP+sCBRD/edBrfrqAnL6Z4v7V+SDJxAXghhQAH8r+1dJB72lgcdQI/mHdz4cAhhvARyq+X+vH9B+1XCgJlajUQ54ZGkPWBLDiWHEKGIE0RE3wYPwADwWXkPg8MDZuN9AHl/tCU8IbYSHhOuEdsLt8ZI58u+iHAnaIX+EphbZ39YCt4Oc3ngoHgjZITNuiJsAF9wL+uHgwdCzN9RyNXGrqsL6jvtvGXzzNDR2ZDcySh5CDiE7fL+S4cTwHmRR1frb+qhjzR6sN3dw5nv/3G+qL4T3mO8tsQXYAewcdhK7gB3BGgALO441Yi3YURUe3F2P+3fXgLek/njyIY/kH/74Gp+qSircat063T6p54pEk4tUB487QTZFLskVF7E48O0gYvGkAtdhLA83D3cAVO8a9d/Xm8T+dwhi2PJVN/d3AAKP9/X1Hf6qiz4OwD5fePwPfdU5sAHQpQJw/pBAKS9W63DVhQD/JbThSTMG5sAaOMB8PIAPCAAhIBxEg3iQAjLAOFhlMdzncjAJTAOzQSkoB0vBKrAWbARbwA6wG+wHDeAIOAnOgovgMrgO7sDd0wFegG7wFvQiCEJC6AgTMUYsEFvEGfFA2EgQEo7EIklIBpKF5CJSRIlMQ+Yi5chyZC2yGalB9iGHkJPIBaQNuY08QDqR18hHFENpqD5qhtqhw1E2ykFj0BR0LJqLTkRL0HnoYrQSrUZ3ofXoSfQieh1tR1+gPRjAqJghZom5YGyMi8VjmVgOJsdmYGVYBVaN1WFN8DlfxdqxLuwDTsSZOAt3gTs4Ck/FBfhEfAa+CF+L78Dr8dP4VfwB3o1/IdAJpgRngj+BRxhFyCVMIpQSKgjbCAcJZ+BZ6iC8JRKJhkR7oi88ixnEPOJU4iLieuIe4gliG/ERsYdEIhmTnEmBpHgSn1REKiWtIe0iHSddIXWQ3mtRtSy0PLQitDK1pFpztCq0dmod07qi9VSrl6xDtiX7k+PJQvIU8hLyVnIT+RK5g9xL0aXYUwIpKZQ8ymxKJaWOcoZyl/KGSqVaUf2oiVQJdRa1krqXep76gPqBpkdzonFpY2hK2mLadtoJ2m3aGzqdbkcPoWfSi+iL6TX0U/T79PcMJsOVwWMIGTMZVYx6xhXGS22ytq02R3ucdol2hfYB7UvaXTpkHTsdrg5fZ4ZOlc4hnZs6PbpMXXfdeN1C3UW6O3Uv6D7TI+nZ6YXrCfXm6W3RO6X3iIkxrZlcpoA5l7mVeYbZoU/Ut9fn6efpl+vv1m/V7zbQM/AySDOYbFBlcNSg3RAztDPkGRYYLjHcb3jD8OMQsyGcIaIhC4fUDbky5J3RUKMQI5FRmdEeo+tGH41ZxuHG+cbLjBuM75ngJk4miSaTTDaYnDHpGqo/NGCoYGjZ0P1DfzNFTZ1Mk0ynmm4xbTHtMTM3izSTma0xO2XWZW5oHmKeZ77S/Jh5pwXTIshCYrHS4rjFc5YBi8MqYFWyTrO6LU0toyyVlpstWy17reytUq3mWO2xumdNsWZb51ivtG627raxsBlpM82m1uY3W7It21Zsu9r2nO07O3u7dLv5dg12z+yN7Hn2Jfa19ncd6A7BDhMdqh2uORId2Y75jusdLzuhTt5OYqcqp0vOqLOPs8R5vXPbMMIwv2HSYdXDbrrQXDguxS61Lg9cDV1jXee4Nri+HG4zPHP4suHnhn9x83YrcNvqdsddzz3afY57k/trDycPgUeVxzVPumeE50zPRs9XXs5eIq8NXre8md4jved7N3t/9vH1kfvU+XT62vhm+a7zvcnWZyewF7HP+xH8Qv1m+h3x++Dv41/kv9//zwCXgPyAnQHPRtiPEI3YOuJRoFUgP3BzYHsQKygraFNQe7BlMD+4OvhhiHWIMGRbyFOOIyePs4vzMtQtVB56MPQd1587nXsiDAuLDCsLaw3XC08NXxt+P8IqIjeiNqI70jtyauSJKEJUTNSyqJs8M56AV8PrjvaNnh59OoYWkxyzNuZhrFOsPLZpJDoyeuSKkXfjbOOkcQ3xIJ4XvyL+XoJ9wsSEw4nExITEqsQnSe5J05LOJTOTxyfvTH6bEpqyJOVOqkOqMrU5TTttTFpN2rv0sPTl6e2jho+aPupihkmGJKMxk5SZlrkts2d0+OhVozvGeI8pHXNjrP3YyWMvjDMZVzDu6Hjt8fzxB7IIWelZO7M+8eP51fyebF72uuxuAVewWvBCGCJcKewUBYqWi57mBOYsz3mWG5i7IrdTHCyuEHdJuJK1kld5UXkb897lx+dvz+8rSC/YU6hVmFV4SKonzZeenmA+YfKENpmzrFTWPtF/4qqJ3fIY+TYFohiraCzShx/1LUoH5Q/KB8VBxVXF7yelTTowWXeydHLLFKcpC6c8LYko+WkqPlUwtXma5bTZ0x5M50zfPAOZkT2jeab1zHkzO2ZFztoxmzI7f/avc9zmLJ/z19z0uU3zzObNmvfoh8gfaksZpfLSm/MD5m9cgC+QLGhd6LlwzcIvZcKyX8rdyivKPy0SLPrlR/cfK3/sW5yzuHWJz5INS4lLpUtvLAtetmO57vKS5Y9WjFxRv5K1smzlX6vGr7pQ4VWxcTVltXJ1e2VsZeMamzVL13xaK157vSq0as8603UL171bL1x/ZUPIhrqNZhvLN37cJNl0a3Pk5vpqu+qKLcQtxVuebE3beu4n9k8120y2lW/7vF26vX1H0o7TNb41NTtNdy6pRWuVtZ27xuy6vDtsd2OdS93mPYZ7yveCvcq9z/dl7buxP2Z/8wH2gbqfbX9ed5B5sKweqZ9S390gbmhvzGhsOxR9qLkpoOngYdfD249YHqk6anB0yTHKsXnH+o6XHO85ITvRdTL35KPm8c13To06de104unWMzFnzp+NOHvqHOfc8fOB549c8L9w6Bf2Lw0XfS7Wt3i3HPzV+9eDrT6t9Zd8LzVe9rvc1Dai7diV4Csnr4ZdPXuNd+3i9bjrbTdSb9y6OeZm+y3hrWe3C26/+q34t947s+4S7pbd07lXcd/0fvXvjr/vafdpP/og7EHLw+SHdx4JHr14rHj8qWPeE/qTiqcWT2ueeTw70hnRefn56OcdL2QvertK/9D9Y91Lh5c//xnyZ0v3qO6OV/JXfa8XvTF+s/0vr7+aexJ67r8tfNv7ruy98fsdH9gfzn1M//i0d9In0qfKz46fm77EfLnbV9jXJ+PL+f2fAhgcaE4OAK+3A0DPAIAJ+zbKaHUv2C+Iun/tR+A/YXW/2C8+ANTB7/fELvh1cxOAvVth+wX5tWGvmkAHIMUPoJ6eg0MjihxPDzUXDfYphPt9fW9gz0ZaAcDnpX19vdV9fZ+3wGBh73hCqu5BVUKEPcOmuM/Zhdng34i6P/0mx+/vQBWBF/j+/i/WxZCeBZOyBQAAAIplWElmTU0AKgAAAAgABAEaAAUAAAABAAAAPgEbAAUAAAABAAAARgEoAAMAAAABAAIAAIdpAAQAAAABAAAATgAAAAAAAACQAAAAAQAAAJAAAAABAAOShgAHAAAAEgAAAHigAgAEAAAAAQAAAsCgAwAEAAAAAQAAA0oAAAAAQVNDSUkAAABTY3JlZW5zaG90atxo+AAAAAlwSFlzAAAWJQAAFiUBSVIk8AAAAdZpVFh0WE1MOmNvbS5hZG9iZS54bXAAAAAAADx4OnhtcG1ldGEgeG1sbnM6eD0iYWRvYmU6bnM6bWV0YS8iIHg6eG1wdGs9IlhNUCBDb3JlIDYuMC4wIj4KICAgPHJkZjpSREYgeG1sbnM6cmRmPSJodHRwOi8vd3d3LnczLm9yZy8xOTk5LzAyLzIyLXJkZi1zeW50YXgtbnMjIj4KICAgICAgPHJkZjpEZXNjcmlwdGlvbiByZGY6YWJvdXQ9IiIKICAgICAgICAgICAgeG1sbnM6ZXhpZj0iaHR0cDovL25zLmFkb2JlLmNvbS9leGlmLzEuMC8iPgogICAgICAgICA8ZXhpZjpQaXhlbFlEaW1lbnNpb24+ODQyPC9leGlmOlBpeGVsWURpbWVuc2lvbj4KICAgICAgICAgPGV4aWY6UGl4ZWxYRGltZW5zaW9uPjcwNDwvZXhpZjpQaXhlbFhEaW1lbnNpb24+CiAgICAgICAgIDxleGlmOlVzZXJDb21tZW50PlNjcmVlbnNob3Q8L2V4aWY6VXNlckNvbW1lbnQ+CiAgICAgIDwvcmRmOkRlc2NyaXB0aW9uPgogICA8L3JkZjpSREY+CjwveDp4bXBtZXRhPgpk15s6AAAAHGlET1QAAAACAAAAAAAAAaUAAAAoAAABpQAAAaUAAHN43HiojwAAQABJREFUeAHsnQecVEX2tg9ZAUWCARZhYUQMKGZZFjC7ioJi+COiogKCghgRxbBGEMWEuquYxYBhDSifERMsoqisKCAGhihgABQEBgnfvuXe5nbP7b49M909HZ7z+zF9b+V6qt19p+bUqSotW7bcZBgEIAABCEAAAhCAAAQKhEAVBHCBrDTThAAEIAABCEAAAhBwBBDAfBEgAAEIQAACEIAABAqKAAK4oJabyUIAAhCAAAQgAAEIIID5DkAAAhCAAAQgAAEIFBQBBHBBLTeThQAEIAABCEAAAhBAAPMdgAAEIAABCEAAAhAoKAKVIoA7duxod9xxRxToefPm2YknnhiVxgsEIAABCEAAAhCAAARSTaBSBPBhhx1mo0ePjprL3LlzTekYBCAAAQhAAAIQgAAE0kkAAZxOurQNAQhAAAIQgAAEIJB1BBDAWbckDAgCEIAABCAAAQhAIJ0EEMDppEvbEIAABCAAAQhAAAJZRwABnHVLwoAgAAEIQAACEIAABNJJoFIEcDonRNsQgAAEIAABCEAAAhBIRAABnIgOeRCAAAQgAAEIQAACeUcAAZx3S8qEIAABCEAAAhCAAAQSEUAAJ6JDHgQgAAEIQAACEIBA3hFAAOfdkjIhCEAAAhCAAAQgAIFEBBDAieiQBwEIQAACEIAABCCQdwQQwHm3pEwIAhCAAAQgAAEIQCARAQRwIjrkQQACEIAABCAAAQjkHQEEcN4tKROCAAQgAAEIQAACEEhEAAGciA55EIAABCAAAQhAAAJ5RwABnHdLyoQgAAEIQAACEIAABBIRQAAnokMeBCAAAQhAAAIQgEDeEUAA592SMiEIQAACEIAABCAAgUQEEMCJ6JAHAQhAAAIQgAAEIJB3BCpVANeoUcOKiooc1OLiYispKck7wEwIAhCAAAQgAAEIQCC7CFSqAP7zn/9sEyZMcES6dOliM2fOzC46jAYCEIAABCAAAQhAIO8IIIDzbkmZEAQgAAEIQAACEIBAIgII4ER0yIMABCAAAQhAAAIQyDsCCOC8W1ImBAEIQAACEIAABCCQiAACOBEd8iAAAQhAAAIQgAAE8o4AAjjvlpQJQQACEIAABCAAAQgkIoAATkSHPAhAAAIQgAAEIACBvCOAAM67JWVC2UbghhtusI4dO9rGjRvtlFNOsR9++CHbhsh4IAABCEAAAgVFAAFcUMvNZDNNYMcdd3SxrqtVq2bjx4+3QYMGZXoI9AcBCEAAAhCAQAwBBHAMEF4hkEoC119/vfXs2dM12bVrV5sxY0Yqm6ctCEAAAhCAAATKQQABXA5oVIFAMgQaNmxoEydOtFq1atmkSZOsV69eyVSjDAQgAAEIQAACaSaAAE4zYJovXAKXXHKJnXfeeQ7A6aefbpMnTy5cGMwcAhCAAAQgkEUEEMBZtBjeUOQv2qVLF2vbtq01bdrUttlmG1u2bJk7PPXZZ5/Zu+++aytWrPCKJ/zcY489bO+997Zdd93V/vznP9v8+fNt5syZbmdyzpw5Cet6mZ06dXLj0PvTTz9tmzZtskaNGlmPHj1s9913twYNGtjixYtNY3vuueds9erVrupuu+1me+21l3vWTuiCBQvcc7wfO+ywgx166KEuW64Cn3/+ebyilop51a9f344++mjXx5dffmnTp0+3KlWqmObbuXNnk/9uSUmJzZs3z1544QWXH3dAMRl16tRxu75bb721q9etW7eYErxCAAIQgAAEIFBZBBDAlUU+Tr/77ruvjRw50po1axanhNmGDRuse/fuNm3atLhltthiC7vyyivt1FNPDSwjYXfjjTfaU089FZjvTxw9erQddthhLmnnnXe2o446ym699Vb3p31/OT1LYB9yyCEuWQJewlH2+OOP23XXXeee4/24+OKLbcCAAS77zDPPdCI9tmwq5yXxPm7cONfFvffea5qn/h144IGx3br3Sy+91F588cXAvNjEvn372uWXX+6SBw4caK+99lpsEd4hAAEIQAACEKgkAgjgSgIf1O3222/vBJl2V2USuJ9++qn9+uuvpjzt4EogSwRK2H700UdBzbiyY8aMsaKiIpe/dOlS+/jjj23RokWujXbt2rldZWU+8MADdvPNNwe24yX6BfAZZ5xhjz76qFWtWtV+//13+/bbb+2XX36xFi1auH6XL19u++23n1fVRUDQuH/66Sdr3769E++RzJgH7WxL+P/444/217/+tVRZMUjlvGIFsNiKjUyhyr777jvHSXMT82uvvdb1HzPsUq81atSw999/3/EoLi62I4880oVAK1WQBAhAAAIQgAAEKoUAArhSsAd3etFFF5l2C2XXXHONPfnkk6UKyh1CrgcSWHJlCLLbb7/djjvuOJelHd5hw4bZmjVrIkUlJEeNGuWEqnaTjz/++LhtqZJfAM+ePduJXYnmJ554IkqkyuWhf//+UaG+Lrjggsi7xPO///3vyDj8D3vuuWdkd1UCW7FzYy3V8/ILYM2rdevW7pcO+e7K7cGzmjVrmnakJYpfeuklLznup3bnxVymXfixY8fGLUsGBCAAAQhAAAKZJ4AAzjzzuD1qN1Y+sHJPkI+rxGlZTf6+zz//vKv29ttvW79+/QKb2G677eytt96yunXr2pQpUyKhuoIK+wWw8k877TT78MMPg4qWStPuqcYhk3+w5xYQW1BC8eyzz3bJ8peVP67f0jEvvwBWX5qTIjWUh7s3Vu2Mv/nmm+6XBAnmgw46yNatW+dl8wkBCEAAAhCAQBYQQABnwSJ4Q9ABswMOOMC9ys/2m2++8bKS/rzvvvvsiCOOcOXltzt37ty4dfUnfUUnkOCTv65/l9hfyS+A33vvPevdu7c/O/RZfrPa4ZUrh+Yn1wm/STQqTJh2puUycPjhh/uz3XM65hUrgE844YSEB+9KDSogQesmf2LZiBEj3O55QDGSIAABCEAAAhCoRAII4EqEH9u1/9KECRMm2NVXX23y3y2LqZ58bn/77TcbMmRIpKqiG3jmPUuMajdXdtJJJ8U9VOcXwHJx0M5xWUzuA5qLTDvS3o6w14YOnXmH8e666y7nnuHleZ/pmJdfAM+aNcuOPfZYr7tyf8pFQrv3K1eutA4dOtiqVavK3RYVIQABCEAAAhBID4GsEcBff/113B1IhZTSLqFERUUsVe1oDHfeead98MEHFRlOqbo6AKZoATpwJdPOrMKBTZ061e1M6iCbDojFs+rVqztfXoVRK6vJNUEuCkHmF8DHHHOMffXVV0HF4qZtu+22zvdX43rllVfswgsvjCqraBTya5bJBcTvf6u0dM3LL4DltnDuueequ3KbDvnpkJ5MO9aKlIFBAAIQgAAEIJB9BLJGAGcfmsQj0oE1L4RW4pJly1UkgltuucXt4sbW3LhxoxPDcl3QLwyxpp1f7ZTK9MtCUJnYOt67RG7szqw/zwuDJleJ8uxq6mBbx44d3S85+++/f+SXHYlb+SArJq/i/soNIdbSNS+/AH744Yftpptuiu26TO+PPfaY2/WVD7diCSvyBQYBCEAAAhCAQPYRqFQBLJ/PZHbJttpqK7cDrHBbFbFUtaMx/POf/0z6IFhZx6yd0n322cfthupTolOhtTxbu3atnXzyyaUiN2inVWJSpkNkqbp8wb8DrDjA5TkkprEovrFs0KBBNn78ePd88MEH20MPPeSe5QIiERlr6ZqXXwDLb1dRJsprbdq0sZdfftlVly/3VVddVd6mqAcBCEAAAhCAQJoJVKoATvPc8qb52rVrOzEs1wFFVZDpWl0dYIs17aIqssP333/vdlxj88vzngoBLPcTuXDIvcMfnUKiWOJYolouBPF2TdMxr1QK4LvvvtvdHqd56BCfLgTBIAABCEAAAhDITgII4Oxcl8BRKQawfIQVwky7wNp11LXEfvMOYSn0lvLLs1vrb0/PqRDAakexh+VDrLF50SAkiiWO5U991llnqVigpWNeqRLAzZs3d6Jefura2dYONwYBCEAAAhCAQPYSQABn79oEjuz+++93O4zyB1a0AQlhv+kCDcWylaXqEoZUCWDtjGr8MkWoUKSKe+65x72HXTOcjnmlSgDLd/iUU05x8+jatas7uOhe+AEBCEAAAhCAQFYSQABn0bLssssuCSMs1KpVy9555x3bYYcd3DW9umI31nSYTAfh6tWrZ0uWLLEuXbrYsmXLYotF3rWrrBvQ4l2rrIKpEsA68KZ+1OfEiRNt9erV9re//c0diNOOsN7jWTrmlQoBrN143cqn2+IUy9j75SPePEiHAAQgAAEIQKDyCSCAK38NIiOQKFSEBR2ikkvAggULIi4MRUVFbkdXN4vJdGucriMOMvkGK1KEbPny5TZ8+HDXnhdCTYfKWrVq5a5LVuxbCeZEf7ZPlQDWeLyQZ3LN0D8Jx1dffdV0ZXKYpXpeqRDAl112WeS2vbLckBc2V/IhAAEIQAACEEgfAQRw+tiWuWUJ4CZNmkTqrV+/3hYvXmxbb72129H1MqZNm+bi5sbeqOblyxd14MCBNmDAABdD10vXTWzK0yE5v4X5raZSACsE2tixY/3dW9++fd3OdlRiwEuq51VRAayoItr1Fc9URt0ImDpJEIAABCAAAQikkAACOIUwK9pUnz59TG4Ne+21lwVdZrFixQpTvFrF1JX/bJjtuuuudsMNN7hriIPa0zXJb7zxhgvfNXv27LjNpVIA6xY6uQz86U9/cv1ph7pdu3YmsZ+spWpeFRXAuhVv8ODBbtj6ZeP1119PdgqUgwAEIAABCECgEgkggCsRfryuFRVBLgryL23QoIELDbZw4UKTYI099BavDX+63Axatmzp2pQQVoi0RYsWuX/+crn2XJnzkj+23FQaNWpkxcXF7hcXHUzEIAABCEAAAhDIfgII4OxfI0aYhQR0dbP8mWVDhw61Z555JgtHyZAgAAEIQAACEAgigAAOokIaBEII6NY4xf9V5IrevXu72MYhVciGAAQgAAEIQCBLCCCAs2QhGAYEIAABCEAAAhCAQGYIIIAzw5leIAABCEAAAhCAAASyhAACOEsWgmFAAAIQgAAEIAABCGSGAAI4M5zpBQIQgAAEIAABCEAgSwgggLNkIRgGBCAAAQhAAAIQgEBmCCCAM8OZXiAAAQhAAAIQgAAEsoQAAjhLFoJhQAACEIAABCAAAQhkhgACODOc6QUCEIAABCAAAQhAIEsIIICzZCEYBgQgAAEIQAACEIBAZggggDPDmV4gAAEIQAACEIAABLKEAAI4SxaCYUAAAhCAAAQgAAEIZIYAAjgznMvVS40aNayoqMjVLS4utpKSknK1QyUIQAACEIAABCAAgc0EEMCbWWTd05///GebMGGCG1eXLl1s5syZWTdGBgQBCEAAAhCAAARyjQACOItXDAGcxYvD0CAAAQhAAAIQyFkCCOAsXjoEcBYvDkODAAQgAAEIQCBnCSCAs3jpEMBZvDgMDQIQgAAEIACBnCWAAM7ipUMAZ/HiMDQIQAACEIAABHKWAAI4i5cOAZzFi8PQIAABCEAAAhDIWQII4CxeOgRwFi8OQ4MABCAAAQhAIGcJIICzeOkQwFm8OJUwtBtuuME6duxoGzdutFNOOcV++OGHShgFXUIAAhCAAARynwACOIvXEAGcxYuT4aHtuOOOLiZ0tWrVbPz48TZo0KAMj4DuIAABCEAAAvlDAAGcxWuJAM7ixcnw0K6//nrr2bOn67Vr1642Y8aMDI+A7iAAAQhAAAL5QwABnMVriQDO4sXJ4NAaNmxoEydOtFq1atmkSZOsV69eGeydriAAAQhAAAL5RwABnMVrigDO4sXJ4NAuueQSO++881yPp59+uk2ePDmDvdMVBCAAAQhAIP8IIICzeE0RwMGLIz/YLl26WNu2ba1p06a2zTbb2LJly9yhsM8++8zeffddW7FiRXBlX2r9+vXt6KOPdilffvmlTZ8+3apUqWKdOnWyzp07m/xuS0pKbN68efbCCy+4fF/1Uo81atRwdVu1amX6p7EtXbrU1X/ttdds5syZpeqEJdSpU8ft+m699dau/27duoVVIR8CEIAABCAAgRACCOAQQJWZjQAuTX/fffe1kSNHWrNmzUpn/i9lw4YN1r17d5s2bVrcMsrYfffdbdy4ca7Mvffea6NHj3b/DjzwwMB6l156qb344ouBeW3atLFbb73Vdt5558B8JX766ad26qmn2vr16+OWic3o27evXX755S554MCBJiGNQQACEIAABCBQMQII4IrxS2ttBHA03u23394J1kaNGrkMCVyJyl9//dWUJ14SyFtssYUTmh999FF0AzFvsQJYddu1a+dKKcTYd99953aXW7Ro4dq89tprbcyYMTGtmMkt4eqrrzbtTMvmzp3rDqktWLDACfXWrVtbUVGRy5NQXrNmjXsO+6Ed5ffff9/Nrbi42I488kgXAi2sHvkQgAAEIAABCCQmgABOzKdScxHA0fgvuugi0y6o7JprrrEnn3wyusB/3+QO0aNHDyccw1wO/AJ49uzZJqEqUS2fW7k9eFazZk0788wznYvFSy+95CW7T7lJvPHGG+6A2rp162z48OH2+OOPR5XRyyGHHGKK43vEEUckLYC1iz1s2DDX1pVXXmljx44t1S4JEIAABCAAAQiUnQACuOzMMlYDARyN+oEHHrBDDz3U+eXuscceJleHiphfAKudDz/80EVYKEu7999/vx1++OFuGIMHD3a+wvHGJH/etWvXJjXuqlWr2ptvvmnafdZu9EEHHWQS2BgEIAABCEAAAhUngACuOMO0tYAAjkb79NNP2wEHHOASjzrqKPvmm2+iC5TxLVYAn3DCCfb5558n3Urz5s3tnXfeceXlLqEDdWURz4k60vzklywbMWKE801OVJ48CEAAAhCAAASSJ4AATp5VxksigKOR+y+DmDBhgvO7VZSF8ppfAM+aNcuOPfbYMjWl3WjtSsvuvPNOu/vuu8tUP1FhuVpol3vlypXWoUMHW7VqVaLi5EEAAhCAAAQgUAYCCOAywMp0Ub8A/vrrr+P6jupP6/qTucRSRSxV7WgMEoQffPBBRYZTqq4iPygKgg65ybTbqhvRpk6d6nZuP/74Y/vxxx9L1YuX4BfAcjc499xz4xUNTO/du7cNHTrU5SWKEBFYOUFi+/btI4ft7rvvPhddIkFxsiAAAQhAAAIQKCMBBHAZgWWyuF8AZ7LfVPSlA2teiLFUtOe1oUgNt9xyi4lNrG3cuNGJYUVr0C8MYeYXwA8//LDddNNNYVWi8nWoTWHNZKeccorrO6pAOV8ee+wxt+urGMSKSfzTTz+VsyWqQQACEIAABCAQRAABHEQlS9IU2kuxZcNsq622cjvAv/zyS1jRhPmpaked/POf/3SHyhJ2WM5MhRvbZ5993IE4fepCDIUM80wHzU4++eTQiyf8Alj+trfffrvXRFKfis+rOL2ys88+20WeSKpigkIKk/byyy+7EvJ5vuqqqxKUJgsCEIAABCAAgfIQQACXhxp1sopA7dq1nRi+8MILXdQEDU7XBSs+byKrqAD2hymLF5YtUf9BefIj1i10cu9QdIn58+cHFSMNAhCAAAQgAIEKEEAAVwAeVbOLgGIAy0d4u+22c+HGtJu6adOmuIOsqABWRArt0sqeeuopdygvbmdJZCiqxNtvv+1288ePH2+DBg1KohZFIAABCEAAAhAoKwEEcFmJUT6rCXhxeeUPrCgKcoeIZxUVwPXq1bNJkyaZdqB1u5suuyjLIbzYcckHWb7Esq5du7oDfrFleIcABCAAAQhAoOIEEMAVZ0gLGSKwyy672FdffRW3t1q1arm4vDvssIO7xlhXByeyigpgtd2vXz+77LLLXDevvvqqKRrE77//HtitDrTpso2gfO1a69pj3TonUd2rV6/ANkiEAAQgAAEIQKDiBBDAFWdICxkiMHHiRBcPV24HCrG2YMGCyMUTRUVFpuuCdWOaTPF5b7755oQjS4UA1uE7uV3oxjbZ9OnTXTQJXcO8evVqtzu800472RlnnGHdunUzuWVotzjWJKIlpmWnnXZa2g4QxvbLOwQgAAEIQKAQCSCAC3HVc3TOEsBNmjSJjH79+vW2ePFi23rrrU3uCJ5NmzbNevToEbjT6pXRZyoEsNqR+B45cqTtueeeenUmF4yff/7ZGjVqZFWqVPGSAwWwom9o17du3bpOQEsoYxCAAAQgAAEIpI8AAjh9bGk5xQT69OljcmvYa6+9TKHQYm3FihWmeL6PPvqo/fbbb7HZpd5TJYDVsMZzzjnnmC7HqF+/fqm+dNPcmDFj7LnnnjOJY7/179/fBg8e7JIGDBhgr7/+uj+bZwhAAAIQgAAEUkwAAZxioDSXfgK6sa5Vq1Yu2kODBg3cRRELFy60uXPnJjz0lv6R/dHDtttu68bXtGlTW7JkiQtlprEFmfyW5c6hneLi4mIn8GMFclA90iAAAQhAAAIQKD8BBHD52VETAhUmIFeNG2+80bWja5WfeeaZCrdJAxCAAAQgAAEIJCaAAE7Mh1wIpJWAbp9T/F8dmJP7xLp169LaH41DAAIQgAAEIGCGAOZbAAEIQAACEIAABCBQUAQQwAW13EwWAhCAAAQgAAEIQAABzHcAAhCAAAQgAAEIQKCgCCCAC2q5mSwEIAABCEAAAhCAAAKY7wAEIAABCEAAAhCAQEERQAAX1HIzWQhAAAIQgAAEIAABBDDfAQhAAAIQgAAEIACBgiKAAC6o5WayEIAABCAAAQhAAAIIYL4DEIAABCAAAQhAAAIFRQABXFDLzWQhAAEIQAACEIAABBDAfAcgAAEIQAACEIAABAqKAAK4oJY7vyZbo0YNKyoqcpMqLi62kpKS/Jogs4EABCAAAQhAIC0EEMBpwUqjmSDw5z//2SZMmOC66tKli82cOTMT3dIHBCAAAQhAAAI5TgABnOMLWMjDRwAX8uozdwhAAAIQgED5CSCAy8+OmpVMAAFcyQtA9xCAAAQgAIEcJYAAztGFY9hmCGC+BRCAAAQgAAEIlIcAArg81KiTFQQQwFmxDAwCAhCAAAQgkHMEEMA5t2QM2COAAPZI8AkBCEAAAhCAQFkIIIDLQouyWUUAAZxVy5H0YM477zzbf//9Xfm+ffva+vXrk65LQQhAAAIQgEAqCCCAU0GRNiqFAAK4UrBXuNO7777bOnfu7NrZddddbd26dRVuUw3ccMMN1rFjR9u4caOdcsop9sMPP6SkXRqBAAQgAIH8I4AAzr81LZgZIYBzc6nTIYB33HFHFxO6WrVqNn78eBs0aFBuwmHUEIAABCCQEQII4IxgppN0EEAAp4Nq+tvs06eP7bPPPq6j888/3zZs2FDhTq+//nrr2bOna6dr1642Y8aMCrdJAxCAAAQgkL8EEMD5u7Z5PzMEcN4vcVITbNiwoU2cONFq1aplkyZNsl69eiVVj0IQgAAEIFC4BBDAhbv2OT9zBHDOL2FKJnDJJZeYDtbJTj/9dJs8eXJK2qURCEAAAhDIXwII4Pxd27yfGQK49BJXqVLF9txzT3cYrFmzZrb99tub/GK/+eYbmz17tk2fPt1mzpxZuqIv5eCDD7YmTZrYpk2b7Omnn7Y6deqY0g488EBr2bKlzZo1y/7zn/84n9u1a9f6agY/HnbYYVa7du3ATPnr6tBaeU1j067v1ltv7ebWrVu38jZFPQhAAAIQKCACCOACWux8myoCOHpFJVBHjRpljRo1is6IeXvggQfs1ltvjet7+8gjj1inTp2cAN57771tzJgxtscee8S0Yk4E9+vXz3766adSef6E9957z3RILcgqGgVCYdQuv/xy1/TAgQPttddeC+qGNAhAAAIQgEAUAQRwFA5ecokAAjh6tbp06WJ33nmnS/z+++/t22+/tXnz5tmqVavcju5f//rXiDieOnWqnXHGGYEhyPwCWDu9EsHfffedffzxx6Yd5r/85S/WvHlz18/ChQvt+OOPt+XLl0cPxvemMW233XaRlFatWlmDBg3ce0UEcI0aNez99993u9zFxcV25JFHVmg3OTJAHiAAAQhAIO8JIIDzfonzd4II4Oi1VWzdY4891h5//HGbMmVKdOZ/37bccku7+eabXRllDhkyxJ5//vlS5TwB7GWMHTvWrr766oi4lEvFHXfcYcccc4wrol3nu+66yyse+pmqMGjdu3e3YcOGuf6uvPJK0zgxCEAAAhCAQDIEEMDJUKJMVhJAAJd9WeQrq0NiEsOffPKJSUTGml8Az5kzx+2syh/YbxLBH374oSkCg3Z/dQHFmjVr/EXiPqdCAFetWtXefPNNa9Gihbvw4qCDDgrczY47CDIgAAEIQKCgCSCAC3r5c3vyCODyrd8rr7xiu+22my1btixyJbG/Jb8AHjFihI0ePdqfHXkeOnSo9e7d270PGDDAXn/99UheoodUCOCjjjrK7r33XtdNojEmGgd5EIAABCBQuAQQwIW79jk/cwRw/CXUDum2227rfH932GEHq1mzZqSwLqKQAF6/fr21bt06ku49+AWw/Hu/+OILLyvqU9EdPHE8fPhwe/DBB6Py472kQgC/9NJL7mDeypUrrUOHDs7POV5/pEMAAhCAAARiCSCAY4nwnjME/AL466+/TvgneAmlrbbaqsJz05/8f/755wq3o0NqilqQattmm23szDPPdPFw9RxmO+20k4v24C/nF8ASl4sXL/ZnR57btm1rL7zwgnuX3/F1110XyUv0UFEB3L59exeZQn3cd999LqJFov7IgwAEIAABCMQSQADHEuE9Zwj4BXDYoOfPn2+Ki1tRKykpcTeOVbSduXPnmnZQU2lNmzY17YzWr1/fNav4uj/++KMtXbo06peDnXfeOVJGz7FXEfsF8C677GK///574DDVn6IwyN566y3r379/YLnYxIoK4Mcee8zt+motFK4tLAxbbP+8QwACEIAABBDAfAdyloBfAH/++ecJ/wyuA1o6+FVRa9y4cdwd0bK0LVE6ePDgslRJWFYhwbQbK9cG2UMPPWQPP/ywLVmypFS9Rx991B1aU0aYANYur8KoBVlRUZE7iKa8V1991S644IKgYqXSKiKA27RpYy+//LJrU5d0XHXVVaXaJwECEIAABCAQRgABHEaI/Kwl4BfAioEbdsNZ1k4kBQNTrF4vpNmTTz5p11xzTdxWJ0yYYGInCxPAhx9+uCnGbpDp4o2nnnrKZckXWIfRkrGKCGCvrnatNTbt7GMQgAAEIACBshJAAJeVGOWzhgACePNS9OzZ066//nqXoOegOMDKrF69us2YMcN96j1MAPfq1ctdNayysaZrh0eOHOmS//73v9sTTzwRWyTw3ROxyizLRRi6fOPtt982HfDTFcqDBg0KbJ9ECEAAAhCAQBgBBHAYIfKzlgACePPSnH/++XbhhRe6hJNOOsmmTZu2OdP3dMopp9hNN90USQkTwM8++6xdccUVkfL+h/vvv9/twiqtR48e7qY4f3685/IKYI1b45d17drVCfl4fZAOAQhAAAIQSEQAAZyIDnlZTQABvHl5jj76aLvnnntcgq4elsiMNUWwGDdunCksmmdhAvi3336zv/3tb6X8nlu2bOni/upCDO0oS5Ama+URwLpKWQfuFM5t0qRJpp1pDAIQgAAEIFBeAgjg8pKjXqUTQABvXgIJRPn21q5d292IJh/gf/3rX+764i222MLkr6tYvYoNvGLFCmvQoIGrHCaAVWjhwoV20UUXmQ4aVqlSxfbdd1939bHakmn3+f/9v//nnmN/eGX86drJ9SJg6Aa52CgTClm3du1afxW77LLLrF+/fi7ttNNOc7fQRRXgBQIQgAAEIFAGAgjgMsCiaHYRQABHr4fcEG688cZI4rp169w1wYpcoZ1ahUUbMmSI6RY1T4AmEsC6/vjWW2914lONKpKGBLAEtWeKxCCxrbZjTX0qPnNZTdExvPjCqqv4zdr1rVu3rk2fPt3ke4xBAAIQgAAEKkIAAVwRetStVAII4NL4FQ1DVxRrR9hvipZw1113uTjBitiQrADWRRna4T3nnHPc7rLXpsTwHXfc4cKteWmxn6kSwIov7IWMK8uVy7Hj4R0CEIAABCDgEUAAeyT4zDkCCODgJatVq5ZJuCpOr3x4dSBu2bJlwYUDUr2LMLQDrHZkErOKwSvf31mzZtk333xT6gKNgKYqnKS5fPDBB9aoUSMXju3II48M3G2ucEc0AAEIQAACBUUAAVxQy51fk0UAp2c9gwRwenoKb9Xv1qGd7WeeeSa8EiUgAAEIQAACIQQQwCGAyM5eAgjg9KxNNgng22+/3RT/d/Xq1da7d293wC89s6ZVCEAAAhAoJAII4EJa7TybKwI4PQuaTQI4PTOkVQhAAAIQKHQCCOBC/wbk8PwRwOlZPARwerjSKgQgAAEIZA8BBHD2rAUjKSMBBHAZgSVZHAGcJCiKQQACEIBAzhJAAOfs0jFwBHB6vgOtWrWybbbZxhQF4pNPPklPJ7QKAQhAAAIQqEQCCOBKhE/XFSOAAK4YP2pDAAIQgAAECpUAArhQVz4P5o0AzoNFZAoQgAAEIACBSiCAAK4E6HSZGgK6lrd27dquMd1MFnQdb2p6ohUIQAACEIAABPKJAAI4n1aTuUAAAhCAAAQgAAEIhBJAAIciogAEIAABCEAAAhCAQD4RQADn02oyFwhAAAIQgAAEIACBUAII4FBEFIAABCAAAQhAAAIQyCcCCOB8Ws0Cm0uNGjWsqKjIzbq4uNhKSkoKjED4dBs3bmz16tWzlStX2qJFi8IrUAICEIAABCBQAAQQwAWwyPk6RcKgha/sHXfcYV27drW3337b+vXrF16BEhCAAAQgAIECIIAALoBFztcpIoDDVxYBHM6IEhCAAAQgUHgEEMCFt+Z5M2MEcPhSIoDDGVECAhCAAAQKjwACuPDWPG9mjAAOX0oEcDgjSkAAAhCAQOERQAAX3prnzYwRwOFLiQAOZ0QJCEAAAhAoPAII4MJb87yZMQI4fCkRwOGMKAEBCEAAAoVHAAFceGueNzNGAIcvJQI4nBElspfAGWecYX379g0c4JNPPmn33XdfYF5sYqraiW2XdwhAIHcJIIBzd+0KfuQI4PCvAAI4nFG+lahdu7ZVr17dTevXX3/N6ekNGDDALr744sA53H///XbLLbcE5sUmpqqd2HZ5hwAEcpcAAjh3167gR44ADv8KIIDDGeVbiQceeMAOPfRQ27Rpk+200045Pb0ddtjBmjRpEplD06ZNTd9pWVkEcKraiQyEBwhAIOcJIIBzfgkLdwII4PC1RwCHM8q3EvkkgGPXRoL+jTfecMllEcDpaie2Xd4hAIHcIYAAzp21YqQxBBDAMUACXhHAAVDyPAkBHL7AqRLS4T1RAgIQyFYCCOBsXRnGFUoAARyKyP25mKuQwznlUwkEcPhqIoDDGVECAvlOAAGc7yucx/NDAIcvLjvA8RnVqFHDOnXqZK1atXL/5F+6dOlSmzdvnr322ms2c+bM+JX/l7PFFlvYYYcdZrvssovtuuuuVrVqVZs1a5b79+6779pvv/0Wt426deuafjmRqc60adNsm222sXbt2tmBBx5orVu3tuLiYps6daq99NJLge3UqlXLTjzxxKi80047zdVV4tVXXx2V572ovdWrV3uvpT7FRTxkTz/9tPMnbtSokfXo0cN23313a9CggS1evNg+++wze+655+K2VRE+pQb134RUCddUtLPHHnvY3nvv7dZd/1s0f/58952ZOHGizZkzJ2j4pdLq169vRx99tEv/8ssvbfr06ValShX3vezcubPtuOOOVlJS4r6TL7zwgssv1QgJEIBAuQgggMuFjUrZQAABHL4KCOBgRm3atLFbb73Vdt555+AC/0399NNP7dRTT7X169cHlikqKrJ77rknbhsSr+eff74Tt0ENNG/e3N555x2X9dBDD9njjz/uxOR2221Xqvjrr79ul156qa1ZsyYqTwLqk08+iUpL5qVDhw5OwMYrO3r0aCfslS9GRx11lOMlwR1rEn6HHHJIbLJVlE+pBv+bkArhqnYr0o5E/ZVXXum+G0FjlGC98cYb7amnngrKjkrTLxPjxo1zaffee6+Ju/7pF6Ag03fgxRdfDMoiDQIQKCMBBHAZgVE8ewgggMPXAgFcmtHpp5/udkarVavmMufOnWszZsywBQsWWLNmzdzuqcSbTEI5VnQqvW3btqY4tFtuuaVe7dtvv3VCdMOGDbbvvvu6HWGlSwydffbZNmXKFL1GmV8Aa0d2r732MkUr0K6qxqSxtG/f3u0qq+Lw4cPtwQcfjGpDu8i33XZbVJra0W6t7O23347K814uv/xyW758ufda6tMvgBVD99FHH3Xj+P33391cf/nlF2vRooVtv/32rp399tsvqo1U8Ilq8H8vFRGu/vbK247mO2bMGCfu1Z7+YvDxxx/bokWLTP97pN177eLL5Ipy8803u+d4P2IFsL47akP2ww8/2HfffefaE2sJ72uvvdb1H6890iEAgeQJIICTZ0XJLCOAAA5fEARwNCP9SVlRBLSTuW7dOicqtfMaa9rRvOGGG+yII44IFMASQRKnMgmdESNGODcBr52BAwfaRRdd5F71Z+1u3bp5WZFPvwBWogT4OeecY19//XWkjFwRtDss14rvv//eDj74YJPITmSp8AH2C+DZs2c7sSsx98QTT0T1v9tuu1n//v1t0KBBUUNKBZ+oBv/3Ul7hGttWedu5/fbb7bjjjnPNaYd32LBhUd8PCeRRo0aZfiHQOh1//PEJXWn8Alic5fYiV5hLLrnEuT14465Zs6adeeaZThTHc4fxyvIJAQgkRwABnBwnSmUhAQRw+KIggKMZKXTW4Ycf7hIHDx5s8quMZ3Xq1LG1a9dGCT6Vlbh55plnXLWPPvoo7p/C/X316dPH5BPst1gBfNZZZ9kHH3zgL+Ke/e3I31i7w4ks1QJYfcmv+MMPP0zUbSQvVXwiDfoeyitcfU24x/K0I3/f559/3tXXznq/fv1im3XvcmF56623TLvz2vnv2bNnYDkl+gWw3sW4V69epb5zysMgAIHUEkAAp5YnrWWQAAI4HDYCeDMjv+DUn5Z1+ChsN3Vz7c1P119/fUTUXHjhhfbKK69szvQ9abdWu7cy+Xl6O8JeEf94JGolboNM4vmKK65wWfJJluhOZKkWwO+995717t07UZdReaniE9Xo/17KI1xT1Y6uXdZfBGRhv4jIVUGuNvp+yR0kyI1G7cQK4BNOOME+//xzZWEQgECaCSCA0wyY5tNHAAEczhYBvJmRbkeTOJTdeeeddvfdd2/OLMPTww8/bAcddJCrsf/++9uyZcsCayvKxFdffeXy5Nd78sknR5XzC+BEO4pdunRx41VlXQv88ssvR7UT+5JqASwXB+1oJmup4hPUX2UK4AkTJpj+N0eRPYYMGRIZnqI2eOY9H3DAAW7XXOknnXSSc2vwyvg//QJYkUCOPfZYfzbPEIBAGgkggNMIl6bTSwABHM7XE8C//vqrC6kVr0bDhg3t559/jpeddHqq2pG/q/xoU2naxRw6dKhrsiKn6eVDLCGm3T35bOrK4XimSBI6FKXDUp7PsFfWL4DlM6tdwyDTrqN2H2WKPjB27NigYpG0VAvgY445JiLkI50keEgVn6AuKksAV69e3fnyegcng8YWL00HDhUqLsj8AvjNN9+0c889N6gYaRCAQBoIIIDTAJUmM0MAARzO2RPAYSUVrSAoxFVYvdj8VLWTyCUgts9k33WoTS4EslNOOcXF1022rr/cF198YbVr1w4Utf5yevbE4MaNG128WH9INb8AlquEDlQFWWULYP0Jf9WqVUFDC0xLFZ+gxitLAPv/t2blypVRBxWDxulP04HCeNE4/AJYO+c33XSTvyrPEIBAGgkggNMIl6bTS8D/f0r6M3EyFxekd0TZ17ongBXyKhGfxo0bJ4wLm+zMUtWOdkx1SC2Vpp24vn37uiYVmuz9998vV/PywVWYsRUrVriQZ4kakf+sd5mBxI5/tzhXBLDiAJfFVzpVfIK4VpYA3nbbbSOh7OJF9Qgab1iaXwArDrCiTGAQgEBmCCCAM8OZXtJAAAEcDtUTwIl8TMNbyY8S3bt3j+yyXnPNNS6Ob3lmpsgR2hWV6fY3hVOLZ4ovrPituhTDiz7hlc1XAZwqPh4n/2dlCWCNQYfTFNlB7jkdO3b0D6vczwjgcqOjIgQqTAABXGGENFBZBBDA4eQRwJsZ6WCSrvWVKYZrvGuCN9cIftLhOV1TK5OolbgNMu0SexEbJk2a5MJb+culSwB7YdO026xrnv27zv7+Ez374wCXdQc4VXyCxqc4u5MnT3ZZit983XXXBRULTStPO4q/q+uP9QuPLkgpy654vAEhgOORIR0C6SeAAE4/Y3pIEwEEcDhYBPBmRvXq1TMJUfnvKiyVLrv48ccfNxdI8umCCy6IXPwgsaeIEkEmNwsdWpM98sgj7npcf7l0CWC/r7NuFSvPHCsigFPFx8/Ke1aUBe2qy19d10h7Li1efrKf5WlHfzVQjF5ZMocRkxkLAjgZSpSBQHoIIIDTw5VWM0AAARwOGQEczUiXF1x22WUu8dVXXzVFg9D1vkGmW9h0MUFsvnZ25dura5Dlq6zQVbGh0LbaaisXrkwiVzuFihurm978li4B7J9jMmHT/GPynisigFPFxxtL7KfiLusGOq2LwtFpDcpjZW2nfv36plBo+kVqyZIlpnMHsevuH4eifyhKiPdXAH+e94wA9kjwCYHME0AAZ545PaaIAAI4HCQCOJqRYvO+9tpr7mpf5ehAk07e64Dg6tWr3e6w/EzPOOMMd32x/tQddImBwql5l0PMmTPHHdhT9APZLrvsYro2WCJN9uyzz0YusnAJ//uRLgEsv2RdvKHrk3VQT7vU8l/95ZdfIt3Pmzcv4Z/wKyKA1Ukq+EQGG/OgXzjuuusulzp//nzTWBcuXBhx9VA83WRC+pWnHV1u4YWr08HS4cOHu9v7vF12HZaT24muS1b7Esyx10T7p4MA9tPgGQKZJYAAzixvekshAQRwOEwEcGlGRUVFNnLkSNtzzz0jmQpTJtGk3UvvMgNlxhPA2gUcNWqUdejQIdKGhLL8beVi4ZniAJ933nn2008/eUmRz3QJYHXgv40t0qHvQYe4dJgrnlVUAKeCT7yxaX3+8Y9/2JFHHhlYRLF0FVM3zMrTjn6pUHzqAQMGmGIDe6Y428rTITm/jR8/HgHsB8IzBLKIAAI4ixaDoZSNAAI4nBcCOJiRLjQ455xz3C6u/rQda9pF1OUUusBA4jjIJHgkbnVTmtwh/LZ27Vp77LHH7Lbbbou705pOAayx6OY77Vg2bdrUFJ7OP8Z0C2D1X1E+aiORKaazdlnlZiB3A8+SFcBe+fK0o112+Vrrl6igyzEUx1oxoHVr3+zZs72uSn2yA1wKCQkQyBgBBHDGUNNRqgkggMOJIoDDGXl/tpZQlG+n/qwuAZOsSeg1a9bMhUTTs8Sz6scTzsm2my/l8plPzZo1rWXLls7tQUJYu+qLFi1y//Jl/ZgHBPKVAAI4X1e2AOaFAA5fZARwOCNKQAACEIBA4RFAABfemufNjBHA4UuJAA5nRAkIQAACECg8AgjgwlvzvJkxAjh8KRHA4YwoAQEIQAAChUcAAVx4a543M0YAhy8lAjicESUgAAEIQKDwCCCAC2/N82bGCODwpUQAhzOiBAQgAAEIFB4BBHDhrXnezBgBHL6UCOBwRpSAAAQgAIHCI4AALrw1z5sZI4DDlxIBHM6IEhCAAAQgUHgEEMCFt+Z5M2MEcPhSIoDDGVECAhCAAAQKjwACuPDWPG9mrKtMvWtndQ0tFw+UXtpatWq5K1s3bNhgup0MgwAEIAABCEDADAHMtwACEIAABCAAAQhAoKAIIIALarmZLAQgAAEIQAACEIAAApjvAAQgAAEIQAACEIBAQRFAABfUcjNZCEAAAhCAAAQgAAEEMN+BnCVQo0YNKyoqcuMvLi62kpKSnJ1LugbeuHFjq1evnq1cudIWLVqUrm5oFwIQgAAEIJBTBBDAObVcDNZPgDBofhrBz4RBC+ZCKgQgAAEIFDYBBHBhr39Ozx4BHL58COBwRpSAAAQgAIHCI4AALrw1z5sZI4DDlxIBHM6IEhCAAAQgUHgEEMCFt+Z5M2MEcPhSIoDDGVECAhCAAAQKjwACuPDWPG9mjAAOX0oEcDgjSkAAAhCAQOERQAAX3prnzYwRwOFLiQAOZ0QJCEAAAhAoPAII4MJb87yZMQI4fCkRwOGMsr3EMcccY3379nXDvOaaa2z69OlpG/IZZ5wR6Su2kyeffNLuu+++2GTeIQABCOQkAQRwTi4bgxYBBHD49wABHM4o20v06tXLJHxlp59+uk2ePDltQx4wYIBdfPHFge3ff//9dssttwTmkQgBCEAg1wgggHNtxRhvhAACOIIi7gMCOC6anMnIpADeYYcdrEmTJhE2TZs2NX2HZAjgCBYeIACBPCCAAM6DRSzUKSCAw1ceARzOKNtLZFIAx7LYaaed7I033nDJCOBYOrxDAAK5TAABnMurV+BjRwCHfwEQwOGMsr0EAjjbV4jxQQACuUgAAZyLq8aYHQEEcPgXAQEczijbSyCAs32FGB8EIJCLBBDAubhqjNkRQACHfxEQwH8w6tatm2255ZY2a9YsW758ufXo0cN22WUX+/TTT+3ZZ5+1JUuWmL5PJ554ou2999727bff2tNPP22zZ89OCHmLLbawww47zLW16667WtWqVV0f6ufdd9+13377LWF9L1OuBh07drS99trLtt56a/vkk0/cYbdp06ZZWQXwHnvs4eag8WhO8+fPt5kzZ9rEiRNtzpw5XpdJfVbUBaJatWrWpUsXa9u2rcmfeJtttrFly5bZDz/8YJ999pljtGLFiqTGQiEIQAACqSSAAE4lTdrKKAH9n/uECRNcn/o/Wf2fPBZNAAH8B48pU6bYtttua+PHj7d9993XdNjLM31v+vXrZ88991xUuoTySSedZHPnzvWKRn0WFRXZPffcYzvvvHNUuvdSXFxs559/vhPEXlrQ53HHHWc333yz1axZs1T29ddf79KSiQIhMX7llVfaqaeeWqodJZSUlNiNN95oTz31VGB+UGJFBLA4jxw50po1axbUtEvbsGGDde/e3ST0MQhAAAKZJIAAziRt+kopAQRwOE4E8B+MPAGst//85z/273//2w455BDbbbfdXAHt1K5du9ZeeOEF22677UyiVPbPf/7TiTj34vuhHU3FxdWuskw7xtq1laCT8NPuskyi8+yzzzb1H2SnnXaaXXfddS7r999/t6lTp9qMGTOsZcuW1q5dO6tdu7Ybr3alZfHCoG2//fY2ZswYkyiXLV261D7++GNbtGiR2wVWW9p9lT3wwANOcLuXkB/lFcAaz7hx46xRo0auBwlc7bb/+uuvpjz9tytOEu0S7B999FHISMiGAAQgkFoCCODU8qS1DBJAAIfDRgD/wcgTwL/88ov99a9/tTVr1ljdunWdaK1Ro4YrJFeDSZMmueeHH37YDjroICdGu3btWgq0xGb79u1dugTliBEjbNOmTZFyAwcOtIsuusi96+IKuWDEmsTtBx98YPXr13fiu3///s5NwSsn8al+JMg9iyeAb7/99oho1w7vsGHD3By9ehKdo0aNsv3228+J9OOPPz6pv5iUVwBr7mIg0+61flmINQlyuaK8//77SY0ltj7vEIAABCpCAAFcEXrUrVQCCOBw/AjgPxh5Alh+sGeeeWYE3Msvv2xt2rRxolC+s9qxlcl14cILL3QiUvl+k4h85plnXJJ2LuO5HChs2OGHH+7K9enTx/m7+tvRzrBcFmQSsPfee68/2z1rl/rBBx+MpAcJYO0OP//8867M22+/7dw5IhV8DxLSb731lhP+4tGzZ09fbvBjeQWwfik49NBDHU9x1c44BgEIQCCbCCCAs2k1GEuZCCCAw3EhgP9g5Angf/3rX3bZZZdFwHk7vT/99JMdeOCBkXSJ2htuuMG9y8fXL+Dkl+uJR4nkV155JVLP/3DwwQfbQw895JLkDuDtCHtllLb77rvbxo0brVOnTrZ48WIvK/KpQ2QS7drBlQUJYF1PfMQRR7h8HciL57OsAtdee61rQ/ORG4d2whNZeQWwDhAecMABrumjjjrKvvnmm0TdkAcBCEAg4wQQwBlHToepIoAADieJAP6DkSeAn3jiCfv73/8eAaddVwm0BQsWmASrZyeccILdeuut7nWfffYxuU545olmve+///4uqoGX5/+Ua8VXX33lkhTx4OSTT/ZnO59YuQFIsEq4xjNvDZUfJIB1EFT/LciPeciQIZFmqlSpUupZolR+xzId8As7fFZeAez/JUHju/rqq51fcmRAPEAAAhCoZAII4EpeALovPwEEcDg7Tzzp8JGiEsSzhg0b2s8//xwvO+n0VLXz/fffR3xIk+48QUFPAMudYPjw4ZGSt912m8kfVofY/va3v0XSjznmGOczqwSFJ9N4PNPNaBKG2kVt3bp1lO+vV8b71MEviVwdSvN8hpUn/98vvvjCFdPhOUVCiGdDhw613r17u+xYAVy9enXnP6ud4rLa5Zdf7iJfJKpXXgGsyA+vvfaaO+Sm9sVKh/t0yO/zzz93B/R+/PHHRF2TBwEIQCCtBBDAacVL4+kkgAAOp+sJ4LCS8n2tVatWWLHQ/FS1E7YrGjqQmAKeAI6NgKAwXTqg9vXXX9vRRx8dqdW5c2e7++673bsOwy1cuDCSJ+EqARsraiMFfA+eWJabg+Lyrl+/3uX6heXrr79uAwYM8NWKfjznnHMiO7uxAtj/38DKlSvdPKJrx38bPXq0yWc4kfnHWdarkBXl4ZZbbjGNMdbEQ2JYLhlij0EAAhDINAEEcKaJ01/KCPj/z584wMFYPQGsmLaJ4iQ3btw40Ac1uNX4qalqR+Jy8ODB8TsqY04qBbAOvim8ly5wkMhLZO+9957tuOOO7jCY/H29SBGKQ6xQbDJdmKFDcvHMO5Cn/FgBrNjGmpssXrQJl1nOHxURwOpSO9NyIdGBOH3K79iLuqF8hZ6Ta0ii76bKYRCAAARSTQABnGqitJcxAgjgcNSeAE4UHSC8ldwvkUoBrFjBEnIy7equW7cuLiD92V+xbuV+4kWEUGHdGCf/YAlE7SjLDSOe+f1pYwWw6silQCHd5KYhd41UWkUFcOxYtHMuMazDgy1atHDZkydPdsI+tizvEIAABNJJAAGcTrq0nVYCCOBwvAjgPxilUgDLNUIuEjKJ2ni+1dol9i54UHxhxRn2m+Lf6npgRaDQRRXe7rC/jJ79h+6CBPBLL71kCjUmIe6FdItto7zvij4hgSp7/PHHI5d2lLc9r578ouUjrNBs2gXWuOPN36vDJwQgAIFUEkAAp5ImbWWUAAI4HDcC+A9GqRTAF1xwgQ0aNMg1LDF85513Bi6EP87vI4884q4h9hf0xwmOdxuaLsn48MMPI24DQQJYF0144lpxhceOHevvpkLPiiShXWz5h7/zzjvWt2/fCrXnr+zNX/7AEvASwhgEIACBTBFAAGeKNP2knAACOBwpAvgPRqkUwNrZlW+vrkGWr/Kxxx5bKhTaVlttZbpko3nz5i4CgsKcKdSa3xSSTPFyZbqg4txzzy21C+q/UU3lggSwRLJCjdWrV8+WLFli8odftmyZigeadl8VvcLbnQ4s5EtUnGNdGa2rmnUgUHMOM10F7YWACyrrCWr5Qn/33Xd25JFHBhUjDQIQgEDaCCCA04aWhtNNAAEcThgB/AejVApgtegPTTZnzhx3YM8Laybxd/PNNzvRqLLPPvusXXHFFdZTSGcAADM4SURBVHosZbrBTTe5yXRJh9ZLF2JI1OqyjdjLM4IEsOoqXREVZDrwqFBvumbZCzWmw3KtWrVy1yVLsEswe7vYrlKCHyp/1113uRLz5883RY9QVAzPZWHWrFmlQujp8o5Vq1Y5ga9xSPx7l4kUFRW5G/AkpmWxkTlcIj8gAAEIpJkAAjjNgGk+fQQQwOFsEcB/MEq1ANZu66hRo6xDhw6RRdCtahKFOujlmeIAn3feec7P10vzf+qQmXx8//SnP0WSJWAlgGXa0VWYtDPPPNO9xxPAOlQ3cOBAF05NsYE9U/xn5emQnN/Gjx+ftACWG8Q//vGPuLu02rl+8803/c272+uaNGkSSVP4Nwn7rbfe2u1Uexm6iKNHjx5ud9lL4xMCEIBAJggggDNBmT7SQgABHI4VAfwHo1QLYLUqYSlx279/f+cO4V8N+bM+9thjpos2vJ1Pf77/WS4VEtNyifDf3qbLOdS2rkmWn68sngD22lNUCl3hvOeee7oIE16696n4yopNLPeM2bNne8lJfcpPWbvBcp+QG4VnQQJYYd3k1rDXXnsFjkMh5CT8H330UXeDndcWnxCAAAQyRQABnCnS9JNyAgjgcKQI4HBGFS0hIaybzyQ+9SyXAAlNHe4qi2l3VOHV9Knb4ZLxtY3Xfs2aNa1ly5bO7UGh1hQibdGiRe5fvDrpSK9Tp44bg6I9NGjQwO2Ey31CfDj0lg7itAkBCCRLAAGcLCnKZR0BBHD4kiCAwxlRAgIQgAAECo8AArjw1jxvZowADl9KBHA4I0pAAAIQgEDhEUAAF96a582MEcDhS4kADmdECQhAAAIQKDwCCODCW/O8mTECOHwpEcDhjCgBAQhAAAKFRwABXHhrnjczRgCHLyUCOJwRJSAAAQhAoPAIIIALb83zZsYI4PClRACHM6IEBCAAAQgUHgEEcOGted7MGAEcvpQI4HBGlIAABCAAgcIjgAAuvDXPmxkjgMOXEgEczogSEIAABCBQeAQQwIW35nkzY92a5V07q2toy3rxQN6ASDCRWrVqma7G1W1kXDyQABRZEIAABCBQUAQQwAW13EwWAhCAAAQgAAEIQAABzHcAAhCAAAQgAAEIQKCgCCCAC2q5mSwEIAABCEAAAhCAAAKY7wAEIAABCEAAAhCAQEERQAAX1HLn12Rr1KhhRUVFblLFxcVWUlKSXxNMwWwaN25s9erVs5UrV9qiRYtS0CJNQAACEIAABHKfAAI499ewYGdAGLTwpScMWjgjSkAAAhCAQOERQAAX3prnzYwRwOFLiQAOZ0QJCEAAAhAoPAII4MJb87yZMQI4fCkRwOGMKAEBCEAAAoVHAAFceGueNzNGAIcvJQI4nBElIAABCECg8AgggAtvzfNmxgjg8KVEAIczogQEIAABCBQeAQRw4a153swYARy+lAjgcEaUgAAEIACBwiOAAC68Nc+bGSOAw5cSARzOiBIQgAAEIFB4BBDAhbfmeTNjBHD4UiKAwxnlW4natWtb9erV3bR+/fXXfJse84EABCCQEgII4JRgpJHKIIAADqeOAA5nlG8lHnjgATv00ENt06ZNttNOO+Xb9JgPBCAAgZQQQACnBCONVAYBBHA4dQRwOKN8K4EAzrcVZT4QgEA6CCCA00GVNjNCAAEcjhkBHM4o30oggPNtRZkPBCCQDgII4HRQpc2MEEAAh2NGAIczyrcSCOB8W1HmAwEIpIMAAjgdVGkzIwQQwOGYEcClGdWvX9+OPvpol/Hll1/a9OnTrUqVKtapUyfr3Lmz7bjjjlZSUmLz5s2zF154weWXbuWPlC222MIOO+ww22WXXWzXXXe1qlWr2qxZs9y/d99913777bd4Va1OnTp21FFHufxvvvkmbj9NmjSxv/zlL67cZ599ZsXFxZE2a9WqZSeeeGLkXQ+nnXaatW7d2qVdffXVUXney0svvWSrV6/2XgM/99hjD9t7773dvPTf2vz5823mzJk2ceJEmzNnTmCd2MRq1apZly5drG3btta0aVPbZpttbNmyZfbDDz+Y5iJGK1asiK3GOwQgAIG0E0AApx0xHaSLAAI4nCwCuDSj3Xff3caNG+cy7r33Xhs9erT7d+CBB5Yu/N+USy+91F588cVSeUVFRXbPPffYzjvvXCpPCRKq559/vhPDQQWaN29u77zzjst66KGHbNiwYUHF7IgjjrD77rvP5V155ZU2duzYSDmJ+U8++STynuxDhw4dbPHixYHFJerVz6mnnhqYr18ObrzxRnvqqacC873Efffd10aOHGnNmjXzkkp9btiwwbp3727Tpk0rlUcCBCAAgXQSQACnky5tp5UAAjgcLwK4NKNYASyh1q5dO1dQO5Pfffed26ls0aKFSQxee+21NmbMmKiGtKP55JNP2pZbbunSv/32WydEJejUnnaEZRKLZ599tk2ZMsW9+3+kQgDXrVvXbrvtNn+zttdee1mjRo1c2ttvvx2V571cfvnltnz5cu818rn99tu7uUrcy5YuXWoff/yxLVq0yPTfmzhpF1cmV4ubb77ZPcf+UDv6JcMbhwTup59+agrLpjy1JU7iK6H90UcfxTbBOwQgAIG0EkAApxUvjaeTgP5PdMKECa4L/ZlVf57FogkggKN56M0vgGfPnu3cBSTQLrnkEuf24NWoWbOmnXnmme7P9XIZ8JsEcfv27V2ShOCIESNc2DGvzMCBA+2iiy5yr3Kx6Natm5cV+UyFAI405nuoiA/w7bffbscdd5xrTTu82pVes2ZNpHWJ11GjRtl+++1nEvvHH3984H93mrsYyK655hr3y0Kkkf89SEj36NHD3n///cA2YsvzDgEIQCCVBBDAqaRJWxklgAAOx40ALs3IL4CV++GHH1qvXr2coCtdunSKxN8zzzzjMrRzGc9V4P7777fDDz/clevTp4/zd/W3lm0CWP6+zz//vBuido779evnH27kebvttrO33nrLtPusne2ePXtG8rwHT4RrB1y+xBLLGAQgAIFsIoAAzqbVYCxlIoAADseFAC7NKFYAn3DCCfb555+XLhgn5frrr4+IvgsvvNBeeeWVwJIHH3ywybdXJncAb0fYK5xtAlh+xvI3lulg39y5c91z0A+5hZx++ulO2ModxL9LrPJPP/20HXDAAa6qDvrpkB8GAQhAIJsIIICzaTUYS5kIIIDDcSGASzPyC2BFbDj22GNLF0qQ8vDDD9tBBx3kSuy///4uqkFQ8Ro1athXX33lshTx4OSTT44qlm0CWO5E+m9KkSuGDBkSGasiZHjmPUvcKtqE7KSTTip1iM3/S4LaVTQK+RNjEIAABLKFAAI4W1aCcZSZAAI4HJkngHX4yB8+K7Zmw4YN7eeff45NLvN7qtr5/vvvIz6kZR5ESAW/AH7zzTft3HPPDakRnf3GG2+4K4b1Z32FG9OVw/FMB7/k6yrx5/kMe2WzSQBXr17d+eEqbFlZTQfqnnvuuahqivzw2muvuUNuyhCrGTNm2NSpU91uuw7W/fjjj1F1eIEABCCQSQII4EzSpq+UEkAAh+P0BHBYSflqKqZsRS1V7ejP7/ozfDrML4C1m3vTTTeVqZsvvvjCateuHShqYxvyxPLGjRtdPN3169dHimSTAPb/t7Ry5Ur7+uuvI+MMe1AYuaBoE4rycMstt5jajjXxkBiWK0VZ+opth3cIQAAC5SWAAC4vOepVOgH//2kTBSJ4ObS76V2iEFzij9TGjRvHjQubqF5sXqra0Y7p4MGDY5tPybtfACsOsCIflMV08E3hvXSBg0ReInvvvfciF2uoX/9ucTYJ4G233TYSqi1e1IpE84yXpx3lffbZxw499FD3KX9huYZ4tnbtWucaQgQXjwifEIBApggggDNFmn5STgABnHKkBdFgRQWwboeTkJPp9rd169bF5aY/+yvWrdxPvIgQXuFkBbB8h714u7EXYXht+T+9CAwS2zvttJM/K+GzDgIqsoPcTzp27JiwbHkztXMuMazDg4qzLJs8ebI7UFfeNqkHAQhAoDwEEMDloUadrCCAAM6KZci5QVRUAN99993uymRNXKI2nm+1dom9Cx4mTZrkQq35YdWrV89dB6y0f/3rX3bZZZf5syPPgwYNsgsuuMC9JyOAvfBrEsCtWrWK2nWONBrwoFjHClkmQd+mTZu0hi6TX7R8hBVSTbvA6s+/Ox4wPJIgAAEIpJQAAjilOGkskwQQwJmknT99VVQAS4xKlMokhu+8885AOLoBToJV9sgjj7jrg2MLejvEikXsRVWILaMLKbxrmpMRwDfccEMkNrFubkv2sJkurFA8ZFky/cSOs6zvnlCXP7CEt4QwBgEIQCBTBBDAmSJNPykngABOOdKCaLCiAlg7u/Lt1TXI8lVWGLVly5ZFsdtqq63s5ZdfNrk5KAKCDvQtWLAgqoxeFIVC1w6rjEKrLV68OKqMwqyNHTs2kpaMMNUFFt5u8sUXX+zGEWkgwUP9+vXdzYramV6yZInJrz52Xv7q2sVVFAxvl9ufp6ugvRBw/nTvWQcu33nnHdthhx3c1dNHHnmkl8UnBCAAgYwQQABnBDOdpIMAAjgdVPO/zYoKYBEaOnSo9e7d28GaM2eOO7Cn6BAyiT/57O62227u/dlnn7UrrrjCPcf+GDBggEmkyr788ksXf1dRESSgDznkEFM83dWrV5sOqcmSEcDyS9bFG1WrVnUH9bRLLf/eX375xbWhH/PmzQt0cdDlForMIFu+fLkNHz7cPvjgg8gussYhtwpdlyzhrxi/3m64q/S/HxMnTrRVq1a5CzFUX+JfIl8mwa95eLGU5bPs+Tj/rzofEIAABNJOAAGcdsR0kC4CCOB0kc3vdlMhgLVLOmrUKOvQoUMElm5Dkx+rDnp5pjjA5513nv30009eUtSndlG1myzB65k/lJwu0BgzZowpnJ0sGQGscv6LKPQeazrkpsNusSbRPHDgQJMwV2xgzxRHWnk6JOe38ePHxxXATZo0iRRV+Dftbm+99dYmdp5NmzbNevToYb///ruXxCcEIACBjBBAAGcEM52kgwACOB1U87/NVAhgUZIglLjt37+/c4fwk5M/62OPPWa33XZbZOfTn+9/1o6oriFu2bJlJFkH0aZMmeKuT5YbhPJlyQpglVW0Be3oNm3a1BSeTi4bnsUTwF6+dpHlS7znnnta0OUYitOsGMdy85g9e7ZXLfLZp08fk1vDXnvtFVhfIeQUg/nRRx91N89FKvIAAQhAIEMEEMAZAk03qSeAAE49U1osOwEJYd18JtGoZ12vLIGow13JmkSmhLDcJ3744Qd3tbB2givbatas6YS53B40Ru0aL1q0yP1LZmx16tRxLhOK9tCgQQO3E75w4ULHh0NvyRCkDAQgkC4CCOB0kaXdtBNAAKcdMR1AAAIQgAAE8pIAAjgvl7UwJoUALox1ZpYQgAAEIACBVBNAAKeaKO1ljAACOGOo6QgCEIAABCCQVwQQwHm1nIU1GQRwYa03s4UABCAAAQikigACOFUkaSfjBBDAGUdOhxCAAAQgAIG8IIAAzotlLMxJIIALc92ZNQQgAAEIQKCiBBDAFSVI/UojgACuNPR0DAEIQAACEMhpAgjgnF6+wh48Ariw15/ZQwACEIAABMpLAAFcXnLUq3QCVapUiVw7q2toy3LxQKUPngFAAAIQgAAEIFBpBBDAlYaejiEAAQhAAAIQgAAEKoMAArgyqNMnBCAAAQhAAAIQgEClEUAAVxp6OoYABCAAAQhAAAIQqAwCCODKoE6fEIAABCAAAQhAAAKVRgABXGno6biiBGrUqGFFRUWumeLiYispKalok9SHAAQgAAEIQKAACCCAC2CR83WKhEHL15VlXhCAAAQgAIH0EkAAp5cvraeRAAI4jXBpGgIQgAAEIJDHBBDAeby4+T41BHC+rzDzgwAEIAABCKSHAAI4PVxpNQMEEMAZgEwXEIAABCAAgTwkgADOw0UtlCkhgAtlpZknBCAAAQhAILUEEMCp5UlrGSSAAM4gbLqCAAQgAAEI5BEBBHAeLWahTQUBXGgrHj3fatWq2UknnWRt27a15s2bW506dSIFTjvtNFu1alXkPdHDeeedZ/vvv78r0rdvX1u/fn2i4uRBAAIQgEAeEEAA58EiFuoUEMCFuvJmjRo1sscff9xat24dCGHfffe1FStWBObFJt59993WuXNnl7zrrrvaunXrYovwDgEIQAACeUYAAZxnC1pI00EAF9JqR8912LBh1r17d5f4ySef2JQpU+zXX3+NFHriiSeSvhgFARzBxgMEIACBgiGAAC6Ypc6/iSKA829Nk5lR9erVbebMmSYXCIlfTwgnUzeoTJ8+fWyfffZxWeeff75t2LAhqBhpEIAABCCQRwQQwHm0mIU2FQRwoa34H/Nt1qyZvfvuu+5l1KhRdtdddxUmCGYNAQhAAALlJoAALjc6KlY2AQRwZa9A5fR/4IEH2lNPPeU6v/766+2xxx6rnIHQKwQgAAEI5CwBBHDOLh0DRwAn/g7UqFHDOnXqZK1atXL/mjZtakuXLrV58+bZa6+95twIErdgpkNhBxxwgPtUpIUFCxbYrFmzbOrUqfbll18mrP6Xv/zFWrRo4co8++yzLrpCmzZtrF27dq7NTZs2uTG8+OKLNn/+/Lht+dtRoaKiIjvzzDNd+fHjxzv/X/fi+/H888/HPcx22GGHWe3atX2lNz+qvY0bN25OCHnaaaedHOO9997bttxyS/v000/deKZNm+bmrvnKPvzwQ/vpp59CWiMbAhCAAAQyRQABnCnS9JNyAgjg+EglvG699Vbbeeed4xaSWDv11FMDw35VrVrVzj33XLvgggucr21sIxKv9913n91xxx1xfWZvv/12O+6441zVPffc0xRurH///rFNucNr6ueDDz4olacEfzuBBQISE0WBeO+992zHHXcMqPWH4E82CkTXrl1txIgRVrNmzVJtXXnllVarVi275pprXN7pp59ukydPLlWOBAhAAAIQqBwCCODK4U6vKSCAAA6GKLF19dVXR4Tr3LlzbcaMGW73Vv6zCh2mXVSZhPKaNWtKNeSPjLB69Wr7+OOP7euvv3b1tCO81VZbuToSrWeddVap+krwC9c777zTLrzwQrf7rN1RCWi186c//cnVXbZsmXXo0CEwcsPZZ59tcnvwrEGDBpFDa7Nnz3bz8vK8z4suusg07iDTWLbbbrtIlnbI1aYs2TBoPXr0sBtvvNHV0aE5/TIxffp00y67dqzFR5Ep2rdv78oggB0GfkAAAhDIGgII4KxZCgZSVgII4NLEtLP5xhtvuN1H7WQOHz7cxcuNLXnIIYfYDTfcYEcccUQpAbzffvvZM88846osWbLEevXqZd9++22kCfUhv1u5RMh69+5t2lWNNb8AVt7o0aPdrrTnYiA3hH/84x/WsWNHV1W7pmPHjo1tptS7ROWYMWNceip8gP1iPxkBLFeHiRMnWv369Z2bxaBBg+ytt96KjFMiWGHY/LvMCOAIHh4gAAEIZAUBBHBWLAODKA8BBHBpavfff78dfvjhLmPw4MH2wgsvlC70vxTdnLZ27dpSLgwSl97OpVwkPvroo1Jt7LbbbvbKK6+4dO18duvWrVQZvwDWrq9ubYs1fzvjxo0z7dyGWWULYO14X3XVVW6YEs/aUY41/0E95SGAYwnxDgEIQKByCSCAK5c/vVeAAAI4Gp52ZN955x2X+N1339nRRx9dStxG1yj91rBhQ+fuoJzi4uKImC5d0kyH1+TbK9PBMrla+M0vgCVsJXCD7IsvvnCH0iS0JbjDrLIFsOax++67O7YHHXSQLV68uNSQq1Sp4tZCLicyBHApRCRAAAIQqFQCCOBKxU/nFSGAAI6md+ihh9oDDzzgErUrqd3Jslrbtm0ju8b6M/7f//73uE1ceuml7qCcCshNYtKkSVFl/QK4S5cucaNOvP322y5igqJTaA5hVtkC+LPPPrN69eo5wS/hH89GjhwZ2RlHAMejRDoEIACByiGAAK4c7vSaAgJ+AawDWkGHubxuVq5cGTm45aWV51M7pD///HN5qkbV+f77723gwIFRaRV9kS/u0KFDXTMSp9qhLat17tw5IpwV4eGee+6J28QZZ5wREcjq1/Mb9ir4BbD8ipcvX+5lRX2++uqr7vCZQrR5rhdRBWJeKlMA161b1z7//HM3Ih0M1GG4eHb55Zdb3759XTYCOB4l0iEAAQhUDgEEcOVwp9cUEPAL4LDmFGfW+3N0WNlE+SUlJe6AWaIyyeTJXSDR7mEybcSW0aE2z4XglFNOcbF6Y8uEveta4CuuuMIVCzuU5hfL9957r4v64G/fL4DlKvHbb7/5syPPuSSAFfdXhwxliqWc6JcYiV+JYBkC2GHgBwQgAIGsIYAAzpqlYCBlJeAXwNqVW7VqVdwmtDus0/sVtcaNGwf6fJa1Xe126pBaKs2/46jQYe+//36Zm5eAlpCWXXfddYERJLxGdfBNf+aXKeaw4gL7LR8F8Lbbbhu5eEORILwLOfzz9p7l9+wJZASwR4VPCEAAAtlBAAGcHevAKMpBwC+AE/mYlqPpnKzSvXt3GzZsmBu7LmB48sknyzwPHep6+OGHXb1//vOfEYEb1NA555xjQ4YMcVmK8etFhfDK5qMA1uE2xVTWJReKQaxd8Hh20003mXbiZQjgeJRIhwAEIFA5BBDAlcOdXlNAAAEcDVEXSzz99NMu8amnnnKXYUSXCH/z/4lfglbCNp75XS5OPvlk0+Ewv+WjANb8vEN7umhj//33d6Hk/PP2nhXTWPkyBLBHhU8IQAAC2UEAAZwd68AoykEAARwNTZEJFIlBF0zI5UOXXfz444/RhULe5CYydepU5y4igdeuXbtA390aNWrYhx9+6C6D0E1oinsbe8gtXwWwLt/o2bOnIxkv1rIuwXj33XdNO8YyBLDDwA8IQAACWUMAAZw1S8FAykoAAVyaWL9+/eyyyy5zGTpcpmgQv//+e+mC/03p1KmTE7Gx+YrooIgSsttuu83d1uZefD9OO+005yOspGeffTZycM5XJOoq5Hw5BKf5SdxOmDDBXTWtWMnym/7hhx8iU69ataq7HOOYY46JpCGAIyh4gAAEIJAVBBDAWbEMDKI8BBDApalpZ1bRCVq0aOEydUubfFFnzpxp2tHV7rDcHBTCTIfY2rRpUyp8XKNGjdzVxt6hQcUUlkuFwr/p+t8TTzzR+f5K6Gn3V9EsFixYUGow2bgDrENssSY+XkQOXcsc+wuBQujpxjy/3XLLLY6D0hRhRNc86yBmkyZNTO4guo1Pl5EUFRW5aghgPz2eIQABCFQ+AQRw5a8BIygnAQRwMDiJLkVn8G5pU6mNGzc6AStx6/1ZXulBAljp2r0cMWJEVOSMZcuWWYMGDZTtbN26dS4OsHaAgyzbBHC1atVM8aLLakFuDjoEp8gX/l1ef7vPP/+8+6VDhxFlCGA/HZ4hAAEIVD4BBHDlrwEjKCcBBHB8cBJ7itIgVwbt2sbarFmzbMyYMfbcc885cRybr3cJablA7LHHHqWyFQFB7hXaWY5n+SyANWf9IiG+2u0Vo+rVq7td4MmTJ7sLRBQizYupTJSSeN8S0iEAAQhUDgEEcOVwp9cUEEAAJwdRf/Zv1aqVNW3a1JYsWeL+ZK+LOJI13X62yy67WPPmzW3hwoUm8fzrr78mW70gykn86p/fVeKqq66ys846y81fV0wnilNdEJCYJAQgAIEsIoAAzqLFYChlI4AALhsvSmeWwEMPPWQHH3ywi46hq6AxCEAAAhDIHgII4OxZC0ZSRgII4DICo3jGCOi7+eabb7pIEePGjTPdCodBAAIQgED2EEAAZ89aMJIyEkAAlxEYxVNGQD69xx57rOmwm+L9rl+/PtK23EXk/9y6dWvTQcEjjjjCuY5ECvAAAQhAAAKVTgABXOlLwADKSwABXF5y1KsoAYWQU6QNmcTvvHnz7KeffnIxghs3buwOyCnyhiJpPPjggxXtjvoQgAAEIJBiAgjgFAOlucwRQABnjjU9RRPQzXfDhg0zfQeDbM6cOS5Wcuz10EFlSYMABCAAgcwTQABnnjk9pogAAjhFIGmm3AS233575+rQsGFDFzNZO8HffvutLV26tNxtUhECEIAABNJPAAGcfsb0kCYCCOA0gaVZCEAAAhCAQJ4TQADn+QLn8/QQwPm8uswNAhCAAAQgkD4CCOD0saXlNBPQTVy1a9d2vaxZsybujWZpHgbNQwACEIAABCCQYwQQwDm2YAwXAhCAAAQgAAEIQKBiBBDAFeNHbQhAAAIQgAAEIACBHCOAAM6xBWO4EIAABCAAAQhAAAIVI4AArhg/akMAAhCAAAQgAAEI5BgBBHCOLRjD3UygRo0aVlRU5BKKi4utpKRkcyZPEIAABCAAAQhAIA4BBHAcMCRnPwHCoGX/GjFCCEAAAhCAQDYSQABn46owpqQIIICTwkQhCEAAAhCAAARiCCCAY4DwmjsEEMC5s1aMFAIQgAAEIJBNBBDA2bQajKVMBBDAZcJFYQhAAAIQgAAE/kcAAcxXIWcJIIBzdukYOAQgAAEIQKBSCSCAKxU/nVeEAAK4IvSoCwEIQAACEChcAgjgwl37nJ85Arh8S/jEE09Y3bp1bebMmTZ06NBSjVx22WXWvn17l37iiSfahg0bSpUhAQIQgAAEIJDLBBDAubx6BT52BHD5vgCfffaZ1atXzz755BPr3r17qUbuvfdeO+qoo1x669atbf369aXKkAABCEAAAhDIZQII4FxevQIfOwK4fF8ABHD5uFELAhCAAATyhwACOH/WsuBmggAu35IjgMvHjVoQgAAEIJA/BBDA+bOWBTcTBHD5lhwBXD5u1IIABCAAgfwhgADOn7UsuJkggMu35Ajg8nGjFgQgAAEI5A8BBHD+rGXBzQQBHLzk1atXtyOOOMLatm1rbdq0sXnz5tnUqVPtvffesxUrVlhZBXDNmjXtoIMOsgMOOMB23nln+/rrr+0///mPvfXWW7Z69ergQZAKAQhAAAIQyGICCOAsXhyGlpgAArg0n2222cb+8Y9/2IEHHlgq87vvvrMePXo44ZpsFIh9993XHnzwQdt7771LtTd79mzr06ePff/996XySIAABCAAAQhkMwEEcDavDmNLSAABHI1HsX3HjRtnzZs3dxkLFy60KVOm2Nq1ayO7t1999ZXL33LLLZMKg6bd4n322ceKi4vto48+cu1KXLdo0cI9//jjj9atWzdbvHhx9GB4gwAEIAABCGQxAQRwFi8OQ0tMAAEczad///42ePBgl/juu+/aeeedZ+vWrYsUuvLKK+3ss8+OvCcTB1iFX3zxRRsyZEjkQoxq1arZiBEjnPBV/uOPP27XXXedHjEIQAACEIBAThBAAOfEMjHIIAII4M1UatWqZRMnTrSGDRvaqlWrrF27drZmzZrNBf73JDG75557urdkBPCCBQvs0EMPtY0bN0a1VbVqVXv//fetSZMmrp+OHTva8uXLo8rwAgEIQAACEMhWAgjgbF0ZxhVKAAG8GdFhhx1mo0ePdgljx4417fYGmXyAb7zxRpeVjAC+88477e677w5qyi6++GIbMGCAy1N/6heDAAQgAAEI5AIBBHAurBJjDCSAAN6M5YwzzrC///3vLuGiiy5yvsCbczc/+ZklI4B1VbLKBVn79u1tzJgxLksH72677bagYqRBAAIQgAAEso4AAjjrloQBJUvAL+YUmivoT/5eWytXrrStttrKey33p1wMfv7553LX9yoqcsLAgQO91wp/XnHFFS4igxo6/fTTbfLkyYFt1qlTx6ZPn+7ykhHAcn9QGLUga9Wqlb3++usu66WXXrJLLrkkqBhpEIAABCAAgawjgADOuiVhQMkS8AvgsDrz58+3Zs2ahRULzS8pKTH521bU5s6da3JbSJWNGjXKjjnmGNfc0Ucf7WL1xmt7xowZtsUWWyQVBUL+wr/99ltgUw0aNHDxhZWpCBGnnnpqYDkSIQABCEAAAtlGAAGcbSvCeJIm4BfAn3/+uTv8Fa+ydocV+qui1rhx45SE/Fq6dGkkYkNFx6T6w4cPt//7v/9zTR1//PH2xRdfBDarw2sKhaZIDsnsAOvyi3g73mIxadIk188777xjffv2DeyTRAhAAAIQgEC2EUAAZ9uKMJ6kCfgFcJcuXWzmzJlJ1823gueff75deOGFblq6nEJh0IJMLhwff/yxy0pGAHfu3Nl04UWQ7bHHHibXB9kTTzwR8UEOKksaBCAAAQhAIJsIIICzaTUYS5kIIIA34zrhhBPs1ltvdQk6DCdBGmS6HvmFF15wWckIYO3qanc3yP72t7+5W+eUd8stt9j9998fVIw0CEAAAhCAQNYRQABn3ZIwoGQJIIA3k9ptt93slVdecQmJ/HGHDh1qvXv3duWSEcCJDrfdddddduyxx7q2zjrrLPvggw82D4gnCEAAAhCAQBYTQABn8eIwtMQEEMDRfJ588kl3AcamTZvsuOOOMx1281ujRo1c1Ib69eu75GQEsK5RPuqoo0wXYvhtxx13tDfeeMMdCPzmm29MB+/ULwYBCEAAAhDIBQII4FxYJcYYSAABHI2lU6dO9sgjj7jEFStWmOIBT5kyxV1hvPvuu7s4vS1btoxUSkYAq/CSJUucf/Fnn33m6u6zzz6mCzJ22GEH937ppZe665LdCz8gAAEIQAACOUAAAZwDi8QQgwkggEtzGTJkiJ1zzjmRjHXr1tnvv/9uiv8r04UVPXv2tHr16iUVBULRJRRjWObFWfZH03juuefcrXMbNmxwZfgBAQhAAAIQyAUCCOBcWCXGGEgAARyIxXR7m3x969atGykg8froo4/ayJEjTTu5yQrg1q1bW69evWzQoEGl2rvnnnvsvvvui/TBAwQgAAEIQCBXCCCAc2WlGGcpAgjgUkgiCVWqVLGioiJr06aNu8lNcYHXr18fyS/rg+IG77rrrqbb3xRHWDfvsetbVoqUhwAEIACBbCGAAM6WlWAcZSaAAC4zMipAAAIQgAAEIPBfAghgvgY5SwABnLNLx8AhAAEIQAAClUoAAVyp+Om8IgQQwBWhR10IQAACEIBA4RJAABfu2uf8zBHAOb+ETAACEIAABCBQKQQQwJWCnU5TQQABnAqKtAEBCEAAAhAoPAII4MJb87yZMQI4b5aSiUAAAhCAAAQySgABnFHcdJZKAgjgVNKkLQhAAAIQgEDhEEAAF85a591MEcB5t6RMCAIQgAAEIJARAgjgjGCmk3QQ0GUPtWvXdk3rprONGzemoxvahAAEIAABCEAgzwgggPNsQZkOBCAAAQhAAAIQgEBiAgjgxHzIhQAEIAABCEAAAhDIMwII4DxbUKYDAQhAAAIQgAAEIJCYAAI4MR9yIQABCEAAAhCAAATyjAACOM8WtJCmU6NGDSsqKnJTLi4utpKSkkKaPnOFAAQgAAEIQKCcBBDA5QRHtconQBi0yl8DRgABCEAAAhDIRQII4FxcNcbsCCCA+SJAAAIQgAAEIFAeAgjg8lCjTlYQQABnxTIwCAhAAAIQgEDOEUAA59ySMWCPAALYI8EnBCAAAQhAAAJlIYAALgstymYVAQRwVi0Hg4EABCAAAQjkDAEEcM4sFQONJYAAjiXCOwQgAAEIQAACyRBAACdDiTJZSQABnJXLwqAgAAEIQAACWU8AAZz1S8QA4xFAAMcjQzoEIAABCEAAAokIIIAT0fn/7J13aBRdF8ZPYo81GuwFiRq7ohJFRLFiFxtij1jAKHaxYS/YooK9YO+IioqiYBfFGhS7hqixlyixxBrf77lkNltmdjfOsJnlew4kO3Pn7rknv5s/nr177rl8ZmsCFMC2nh4GRwIkQAIkQAK2JUABbNupYWC+CFAA+yLE5yRAAiRAAiRAAnoEKID1qLAtKAhQAAfFNDFIEiABEiABErAdAQpg200JA/KXAAWwv6TYjwRIgARIgARIwJkABbAzDV4HFQEKYOPpyp8/vzRq1EiqVKmifrJlyyZ3796VO3fuyIkTJ+TPnz/Gb05/Eh4eLm3atFF3t2/fllu3bklISIg0btxY2rZtK2XKlJEfP37I06dPZf/+/eq5nlOr/MA3/p7o6Gj1Wq5cOUlKSpJ79+7J1atXBTH6Y1bGA64dOnSQWrVqSenSpaVQoUKSnJwsb9++lRs3bsjp06fl06dP/oTFPiRAAiRAAgEkQAEcQNgcyloCFMD6POvXry9xcXFSokQJ3Q7Xrl2TkSNHyuvXr3Wfa43VqlWTQ4cOqduVK1fKunXr1A/869m4cePkwIEDHo+s8BMaGipDhw5VcUN0utvfv39lzZo1snTpUp/i3op4MH7dunVl8eLFUrZsWfdwHPf4oNGjRw+Jj493tPGCBEiABEgg6wlQAGf9HDCCfyRAAewJbtCgQTJhwgSBYIQovHz5slohzZEjh9SoUUOtVOJdHz9+lE6dOsmLFy88naS3uAtFCL4GDRqop1jhTEhIUCue5cuXl9y5c8uMGTNk27ZtHv6s8LN8+XK16gzn3759kytXrsjDhw8lMjJSrQhjxRt27tw5GTBggLo2+mVFPMWKFVMfDiIiItQwELjXr1+XlJQUwTP8b4IXuPTq1UvNg1E8bCcBEiABEgg8AQrgwDPniBYRoAB2BVmhQgU5evSoYIUUq7tjxozxEF7dunWTefPmqT7Hjx+X2NhYVydOd85C8cGDBxIVFaVWMseOHavSHrSuOXPmlJiYGPW1/8GDB7Vmx6tZP/Xq1ZM9e/Yof/i7+vfvL48fP3b4RyrGli1bBCkRsIEDB8qZM2fUtd4vs/HA5+jRo2X48OHK/bRp02THjh0eQyEdomfPnnL27FmVfuLRgQ0kQAIkQAJZRoACOMvQc2CzBCiAXQlu2rRJ5efia/fu3bvLzZs3XTuk302cOFEGDx6s7rytTjoLRXS+dOmSEp/+5A+nD6VezPrBqnLDhg2VL6N4q1atKocPH1Z9kKvcuXNn5xBcrs3GA2fr16+XZs2aqRxorKxnlolLQLwhARIgARIIOAEK4IAj54BWEaAAziCJzWFHjhxRDcjbxQqlkRUuXFilEGBDG/JmFy1apNvVXSh26dLFUFTrOkhvNOOnSJEiKla4SkxMlBYtWhgOhfzjmjVrqufNmzeXJ0+e6PY1E4/mcNeuXSr1AvetW7eWR48eaY/4SgIkQAIkEAQEKICDYJIYoj4BCuAMLh07dlQbwNCyd+9elQurPYXQhWmvuJ4+fbpAXHrLmXUWiqi00L59e7w102bGD6oroMIEbPv27SpuowCwCQ8b5WBIk7hw4YJuVzPxaA5nzZolvXv3VrcnT56UqVOnyps3b7THfCUBEiABErA5AQpgm08QwzMm4CyAsSEqNTXVsPPnz59F2yhl2MmPBxCNHz588KOn9y4vX7505JB67+nfU1R1GDFihH+dnXq9evVKlUtzanJcOgtFlE7TxKWjg58XZvyg3Bo2wMFQ4WHFihWGo/br188hkCdPnuzIG3Z/g5l4NF+o/HDs2DG1yQ1tSIFAiTmUY0PqCTbpvXv3TuvOVxIgARIgAZsRoAC22YQwHP8JOAtgX+969uyZ13JVvt6vPUfd21y5cmm3//yKr+fxNb1VBnGIVWAYNqx9+fLFL9eoUTtkyBDdvs5CcePGjTJ37lzdfr4azfhBVYtJkyapIaZMmSK7d+82HM5ZLKNs25IlS3T7monH2SGqPCxcuFDwf+huaWlpSgyjMgY+nNFIgARIgATsRYAC2F7zwWgyQcBZAGPVzZvow+pwnjx5MuFdvytq62LV1Kzh6/Lx48ebdeN4/5w5c1TFATT4qoLgeJOPC2eh6E1Q+nAjZvxg09vs2bPVEDNnzpStW7caDoeNb6jLC0NeM/Kb9cxMPO7+UHGjTp06akMcXpGygZJzmn3//l1tSMQhJDQSIAESIAH7EKAAts9cMJJMEnAWwDiN6/9ZZED04mt/GOoA79u3L5M0PbtbJRTN+GnSpIlg9Rm2evVqh8D1jFbUSjb+dtioUaMcVSHc+5qJx92X+31YWJgSwxgf9ZFhFy9elL59+7p35T0JkAAJkEAWEqAAzkL4HNocAQrgDH5NmzaVDRs2qAZ89Y8VW7NmlVA04we1jVGvGIYyZxCWRoaVYqwYw1AGDkcR65mZePT86bWhBjByhIsWLSpYBa5evbo6mESvL9tIgARIgAQCT4ACOPDMOaJFBCiAM0BCaOHABRxKkZSUJC1btpRfv35ldPiHK6uEohk/SFvBxjK84gQ4nET39etXj78GaQeoUxweHq42pOG4Zpx2p2dm4tHzZ9S2du1aVbYN+cCoFQwhTCMBEiABErAHAQpge8wDo/gHAhTArtBw8tuwYcNUI3JhkTLgzaKjo9UGLWyE0zOrhKJZP0jtQIoHLC4uTlatWuURbp8+fQQ5wjCUgdM2znl0/F+D2Xjgs3LlynL//n0996oNGyVPnTolxYsXV0dGt2rVyrAvH5AACZAACQSeAAVw4JlzRIsIUAC7gsQqKcqVlSxZUj3ANUqI4djgnz9/qtVhHBeM1VHUsK1UqZJAmCUkJLg6Sr+zQijClVk/ERER6mhjbRPjsmXLZOfOnaocHVZ8u3btqvKeQ0ND1eovqmtgFdzIzMYDv+fPn1ebLnEgBmopYzztNLjIyEhBxQrkL8Nwatz8+fPVNX+RAAmQAAnYgwAFsD3mgVH8AwEKYE9oUVFRaqMYjgbWDMIMtYshJCESnS0YBDDibdeunSxYsMClkkdycrLgVDvNIPJxwAdWgL2ZVQJY+6CBsX7//q2qgxQoUEAKFizoGD4+Pl5V5zCbjuJwyAsSIAESIAFLCFAAW4KRTrKCAAWwPvXs2bNLbGysxMTEuIgxrTdqGWMFEyvE2FgG4ahnVghF+LXKD1ZWkQKBfFp3Q+1jnATnTyUQK+JBfWJ8eKhdu7agFJq7Ia0E1Ss2b96sm7Ps3p/3JEACJEACgSVAARxY3hzNQgIUwL5hYnNcxYoVpVSpUmoVGDWMExMTvZ6a59tr1vbIly+fysFFOsfz588FxzSnpKRkSVB58+ZVfMEZq9Hv379XMeGgE256y5Ip4aAkQAIk4BcBCmC/MLGTHQlQANtxVhgTCZAACZAACdifAAWw/eeIERoQoAA2AMNmEiABEiABEiABrwQogL3i4UM7E6AAtvPsMDYSIAESIAESsC8BCmD7zg0j80GAAtgHID4mARIgARIgARLQJUABrIuFjcFAgAI4GGaJMZIACZAACZCA/QhQANtvThiRnwQogP0ExW4kQAIkQAIkQAIuBCiAXXDwJpgIUAAH02wxVhIgARIgARKwDwEKYPvMBSPJJAEK4EwCY3cSIAESIAESIAFFgAKY/whBSyAkJETCwsJU/KmpqZKWlha0fwsDJwESIAESIAESCBwBCuDAseZIJEACJEACJEACJEACNiBAAWyDSWAIJEACJEACJEACJEACgSPwHwAAAP//0SWqTQAAQABJREFU7J0HvBNF978PUlQsgGBBEf5ylaKCvffexfqzKxbE3ruvvaJi710Rsb0gKCpYEFGwd8EKgmJXVCyAin+f8Z2w2bub5Cab3JTv+Xy82czOnp19Juo3J2fONOncufPfJhMBERABERABERABERCBGiHQRAK4RmZajykCIiACIiACIiACIuAISADrg1CxBJo3b251dXVu/JMmTbKZM2dW7LNo4CIgAiIgAiIgAqUjIAFcOta6U8IE/t//+3/29NNPO6/bbbedjR8/PuE7yJ0IiIAIiIAIiEA1EpAArsZZrZFnkgCukYnWY4qACIiACIhAwgQkgBMGKnelIyABXDrWupMIiIAIiIAIVBMBCeBqms0aexYJ4BqbcD2uCIiACIiACCREQAI4IZByU3oCEsClZ647ioAIiIAIiEA1EJAAroZZrNFnkACu0YnXY4uACIiACIhAgQQkgAsEqMsbj4AEcG7sDzvsMFtttdVc5z59+tiff/6Z24Xq1WAClOXbZZddrFOnTrbooota06ZNnY9HH33Ubr311gb70wUiIAIiIALFISABXByu8loCAhLAuUG+5pprbOutt3adu3fvbrNmzcrtwgR7IQTnm28+55F6zdVYs3m//faz0047zZo1a1aP3N13323nnHNOvXY1iIAIiIAINA4BCeDG4a67JkBAAjg3iOUggJdffnkbOnSoG/CVV15pjKmabMkll7SRI0daixYt7Ndff7WHH37YPv/8c/vrr7/cY7733nv24osvVtMj61lEQAREoKIJSABX9PTV9uAlgHOb/4MOOshWXnll1/nII49MibLcrk6mV7UL4KOPPtqOOuooB2ufffaxsWPHJgNOXkRABERABIpCQAK4KFjltBQEJIBLQTmZe1S7AO7fv7/tsMMO7ssFaSY+8psMPXkRAREQARFImoAEcNJE5a9kBCSAS4a64BtVuwC+9957bY011rCffvopFW0vGJociIAIiIAIFI2ABHDR0MpxsQlIAEcT3mSTTaxly5aRJ4cPH26zZ8+OPOcb11prLVtqqaXc2wceeMBVjUDArrnmmrb66qvb33//bePHj7chQ4bYlClT/GVpr6uuuqp16dIl1bb44ovboYce6t4/88wzNmrUqNQ5f/DJJ5/YSy+95N9Gvi6wwAK27rrrGlFW/mFxHWMhx5Yc3Fwir23atLGtttrK+X/33Xft7bfftiZNmtj666/vFguSz8sivcmTJ9vgwYPd+eBg5p9/ftt+++2DTUZ1jY4dO9rvv/9uF154Ydo53nzwwQf22muv1WunoXXr1rbhhhtaz549bbHFFrN27drZV1995a758MMPXe7w9OnTI6+Na+zcubMxB8sss4z7h+f77LPP3LM88sgjbpxx1/r2Hj162EorreQ48+8acw3rMWPG2MSJE323jK/Mz3bbbWcrrLCCdejQwT3rDz/8YN988429/vrr7nPw448/ZvShkyIgAiJQDAISwMWgKp8lISABHI352WefNURclOVSBeLyyy+3Xr16ucsRZZRRO+SQQ+q5+/nnn43c1+eee67eubPPPtvIhW2IPfjgg3bKKafEXkKElVSD9u3bR/Z59dVX3XgQj5lsueWWs2HDhrku1113nd18883uH/xH2QknnODEvj9HiTNEfEMsrgrEtddea5tvvnmqXFqUT4Tn4Ycf7sRn1PlgW/PmzY08b+bLl2ALnueYeWN+/KLE8Pl55pnHTj/9dNtzzz3Dp9x7vhycf/75RtQ7k62yyip22WWXuS8Gcf34wrLbbrvZG2+8EddF7SIgAiJQFAISwEXBKqelICABHE2ZKguLLLJI6iRRwIUWWsi9b6gAxtcxxxzjoqGIFKK/RIGXWGIJ549oHhHZcFmz3Xff3TbaaKPUGIjceoFJpHfSpEmpc/7ghRdeMIRilLGQ7+STT7a55prLjYFI8YQJEwzBR6SSCCM2bdo0J96nTp0a5ca1hQUwQo3oNkZkkvERlSUKjhhELA4YMMCd5w9szzvvvNR7Doi2cg01lvkCEjYE8/333x9utqeeesrdB35EiYk6E6mFF/Pmx8X5Y4891kaMGFHPh2/g/ojSrl27uiai0US333//fRfhpp1nJ4J9yy232MUXX+wvTb1Su5hnpZ4x9vXXX9vLL79s8OTfN8bDfbA4H5zDD18yiGZjfHaIgCO+OYcvuMMXoZ0t8u+c6I8IiIAIJEhAAjhBmHJVWgL8T/Tpp592N+VnVn6eldUn0NAyaMEIMN6IkF566aWp1AnSK66//npbb7313M2IFt533331bxxoKSQHeOmll7bHHnvMRTSJ7h533HH1BBObT5B6QNQTkUjUOs6CAhjRiTBEoB1//PFOgPrrKGnWu3dvJ4opa5bJELeI4IbmAN91112uYgTXR6UCIBIRpHPPPbcTxhtvvHFqHsLjueCCC4wvHhjPQ3Q+/EWgVatWduqpp7ovCv369Qu7sODcI6ZhipD2hni9+uqr3bMSvWXhX9S/d4j1I444wl125pln2sCBA72L1CtCeo899rDRo0dH+kh11IEIiIAIFIGABHARoMplaQhIAOfGuRABjJBCXIZt2WWXNXJJMSJ9CJ5MVogAvuOOO1x+LoJr1113tbfeeivyVqRPkIuLZYoqBgUwfceNG2dsYpFL/jD9oyxfARzlK9xGCobPn44rscYzIdKJkH/66ae2xRZbZNzxb8EFF3TR2OC9yPd96KGHXBOR6b59+wZPp46JgD/55JMukkxt47322it1zh8QHUasE7kmQl8IW+9TryIgAiKQJAEJ4CRpyldJCUgA54a7EAGMsPX5suG7vfPOO26xHT9fx+WL+mvyFcCkbLCNMJZNaJPmwc/1LPi68cYbXdTa3z/4GhbAO+20U6yoDl6X6biYAnjTTTe1m266yd3+rLPOsnvuuafeUIKR20xzVu/CQAPMNttsM9fCQkqEdJyRFoIYR9iSfhKMEnPNoEGDXKoMx1tuuaV99NFHHMpEQAREoGwISACXzVRoIA0lIAGcG7FCBHCm1BKfv0reKtG+TJavAKbawhVXXOFcU5EiuOAOoYv5V44RiG3btnX99t9/f5rqWVAAk0e87bbb1uvT0IYkBDBbRbPAj4oZpAf456J6AmkfGIsAST8JGwvaYEwOMtH5fCKupBPx7xQ72ZFv7c2Pg/f+mDzwvffe23XhFwJ+KQjaueeem4oM4/eMM85w+cTBPjoWAREQgcYkIAHcmPR174IIBAUw5aLCUaigc8pIsbCoUENcff/994W6sS+++CKVI1mwsywOChHA5LWysCzKiMwSoWWh1Nprrx3VJdWWrwAO7rCWcpbDwZdffukW50V1DQpgSqf59IKovrm2FSKAWURI1QbKz2Uz5pKFiWFjsRsCmooRwcWH4X5x75s1a+bycOMqR8RdRzupJ1TwCBol4R5//HG3yI12BDml6l555RUXbSdS/+233wYv0bEIiIAIlJSABHBJcetmSRIICuBsfhEG/E+5UCOnkQVJhRo/L/MzcymsEAFMGTQiglFWCgFM9NfX3GXB2i+//BI1lHptLCg7+OCD67XTEBTAt99+u7F4rFDLVwCfdtppduCBB6ZuD2sW+lFdw9drpmoDY8Yo20a6Q9CotOCrKJDP7COzwT7ZjoP/LvFlkS+UuRqLJPk1IGws4LvkkksM32Hj2RDDpFI05F5hP3ovAiIgAvkSkADOl5yua3QCwf9pszAqkzgiOjzvvPMWPGZ+oia6WKgRNT3xxBMLdZPT9ZUsgKk3S6UADKEYVWIsJwiBTkEBHCUoA11zPsxHAG+99dbG3GCUhbvooovcxhBe+PqbBxenRY2XqhzkY2P8e0BOc0Nt4YUXdhtucB3R5B133LGhLiL7E1FeeeWVXYoMr+QLU7rO24wZM9zCxqhKEr6PXkVABESgGAQkgItBVT5LQiAogDPlqpZkMGV8k0oWwIheoqQYeam+SkEhuMtFAN95552ulBxfztiZjvq/URbMg44SwFwzduxYV1+X9Bzyc/MxxDPRZtJzfIm7fPxkugaxTr44taX9boOMvaGbpmS6h86JgAiIQC4EJIBzoaQ+ZUlAAji3aSkHARwsm0Yd2auuuiqnwZPPeuutt7q+/PSPACzUykUAkwdLTjmvPsod9WxHHXWUq+nLuTgBTJ1dv2kGG4589913Ua4ytlFGjZJls2bNcgvq8llIl/EGgZMs8iNHmJJqRIHJEWeTFZkIiIAIlIqABHCpSOs+iROQAM4NaTkI4GCeKiWy/vOf/+Q0eAQSGyWwKQURUsp0/fHHHzldG9epHAQwqQH87M/iMypbxFWsIF2AKgp+5704AUyVCLZLxvLNa2bDCuohY7lsbuI6FvCH0m6UeCPlA+GNEJaJgAiIQKkISACXirTukzgBCeDckJaDAGakVAFg69uJEye62rC5RhiD4u6yyy6zG264IeODkwLAwqqondW4sBwEMON44okn3HbHjJNIN9sEh40d7dihzlucACZ1AaHMFw0WahJRjtswhGooROT9wjnvu02bNs4Hu8WxEI+0IhbjxRlRXHbRC/uhf7du3dwWzHHXspCU7aEXW2wxt/X05ptvHtdV7SIgAiJQFAISwEXBKqelICABXJ8yi5nCRpUDX3GC3M5wBJVV/8HoW3BThaSqQDAm6teyQxmG+OFne/JNqV2LMY6o0lgsXqRcGfVxMY4R9R9//LH7uZ7ocKdOnYyf/tmVrEuXLoag+uSTT1z/8J9yEcBsSXzQQQe54ZEHS66zzwPmWYnosrUxTPy8xglgnOy8886u6gLHzDHzSJrB559/TpPjt9pqq9lJJ53kNhW5+OKLXXvwD7m4VGbAKH/Hwjwi1H5eGMcyyyxjvXr1cvWTEd2kaIRtzJgxblEq0X6u57n8F566ujoXYd5ggw3cZewaFzWWsE+9FwEREIEkCUgAJ0lTvkpKQAI4HTc/q+dTUopqFIMHD045K5YARqSyfTL1aqOMBW7BDRiCfYg0Ev0lcukNQcWiL6KebAEctEoQwCwIGz58eFp5PoQmaRFEY7F3333X+vXrZwMGDHDvMwlgNqlg+2JqJ/OlwBtfLOAT5B4nOul3xBFHOPHNOLwRneYckeagMf44Aey/sNCfLzlUT2ELZiLM3thAg2h1+EuZP69XERABESgWAQngYpGV36ITkABOR1zuApjRsl0xmz6wwQYCCfHqdxfLJIC5FkFGSkDv3r3TRBTnMH76J/JIhBihzWKuKCuXCDBjI8eZfNvwbnRUhqCmL+kPSy65ZGo76kwC2D8rEVrKx1E+jc9E0PDLltIIYEqvxRkbnJx33nnGLwBhH1xDHesRI0YYO9BRnzlsRLb5ErLiiitGXk/aB7nKVMKIqzMd9qn3IiACIpAkAQngJGnKV0kJSACXFHdZ3QzhiNBjcRhRYKKLCDoEXiUaubA8D8/F9syISp8ykO/zsICuc+fOzi/RWzaDIW0kU73s8L2IJHsfCGFSVqZOner+CfeNek/U2T8XX36oTkFKBgI6mHYTda3aREAERKCYBCSAi0lXvotKQAK4qHjlXAREQAREQASqloAEcNVObfU/mARw9c+xnlAEREAEREAEikFAArgYVOWzJAQkgEuCWTcRAREQAREQgaojIAFcdVNaOw8kAVw7c60nFQEREAEREIEkCUgAJ0lTvkpKQAK4pLh1MxEQAREQARGoGgISwFUzlbX3IBLAtTfnemIREAEREAERSIKABHASFOWjUQhIADcKdt1UBERABERABCqegARwxU9h7T6ABHDtzr2eXAREQAREQAQKISABXAg9XduoBNhBjO1kMTZAmD17dqOORzcXAREQAREQARGoDAISwJUxTxqlCIiACIiACIiACIhAQgQkgBMCKTciIAIiIAIiIAIiIAKVQUACuDLmSaMUAREQAREQAREQARFIiIAEcEIg5UYEREAEREAEREAERKAyCEgAV8Y8aZQRBJo3b251dXXuzKRJk2zmzJkRvdQkAiIgAiIgAiIgAukEJIDTeehdBRFQGbQKmiwNVQREQAREQATKiIAEcBlNhobSMAISwA3jpd4iIAIiIAIiIAL/EpAA1iehYglIAFfs1GngIiACIiACItCoBCSAGxW/bl4IAQngQujpWhEQAREQARGoXQISwLU79xX/5BLAFT+FegAREAEREAERaBQCEsCNgl03TYKABHASFOVDBERABERABGqPgARw7c151TyxBHD9qRw1apQ1a9as/ol/WjbZZBObNWtW5Dk1ioAIiIAIiEAtEZAArqXZrrJnlQCuP6EffvihNW3atP6Jf1qWXXZZ1UqOJKNGERABERCBWiMgAVxrM15FzysBXH8yV1ppJWvSpEnqxHHHHWdrrbWWey8BnMKiAxEQAREQgRonIAFc4x+ASn58CeDss3f11VfbNtts4zpKAGfnpR4iIAIiIAK1QUACuDbmuSqfUgI4+7RKAGdnpB4iIAIiIAK1R0ACuPbmvGqeWAI4+1RKAGdnpB4iIAIiIAK1R0ACuPbmvGqeWAI4+1QWKoC7d+9uq6++uvHaqVMn++yzz2zChAn2yiuv2Lvvvpt9AP/0aN68uW222WZGfjJpGBMnTrRXX33VRo8ebT/++KNtscUW1qJFC/v+++9t7NixsT6T8sMNFlhgAVt33XXdc/FsLBwcP368vffeezZy5Ej766+/YscRPLH++utbhw4dXNOgQYPs77//tnbt2tkee+xhyy23nC200EL25Zdf2uuvv24PPvig/fbbb8HLdSwCIiACItBIBCSAGwm8bls4AQng7AzzFcBzzTWXHXrooXb00UdHVpVA6N144412xRVXZBSLrVu3thtuuMGJ6PBoP/roI9ttt92M0m2tWrVyopj3UZaUH3yvscYa1r9/f2vfvn3Urdw4eO6vvvoq8nyw8eabb3bl5Wjr0qWLbbnllnbppZfa3HPPHezmjqdMmWIbbbRRvXY1iIAIiIAIlJ6ABHDpmeuOCRGQAM4OMl8BfM0119jWW2/tbkDU8uWXXzZKrNXV1TkxSwQVe+6552z//fd3x+E/8803nw0dOtSWWmopd+rrr7+2F1980aZNm2arrrqqLb/88vbGG29Y165drWXLlrECOCk/DOKggw6yk08+2RD4iPiXXnrJRbSJLvfo0cNWWGEFN1bG2KtXL5s6dap7H/cnKID33Xdfu/POO53vP/74wz7++GP76aef3PMvuuiiqeeO86V2ERABERCB0hGQAC4da90pYQISwNmB5iOAEaf333+/c04UdL/99nNizt9tySWXtLvuusulRNB24IEH2rPPPutPp14PPvhgJzZpILWhb9++aSkARx55pB1zzDGp/qRFREWAk/Kz9NJL22OPPeYi2jwXJeIQwEHbZZdd7MILL3R9RowYYYcddljwdL3joAD+4IMPnNi9+OKL7Z577kmLjJP6ccghh9hRRx1Vz4caREAEREAESk9AArj0zHXHhAhIAGcHmY8AHjBggK299trO+Z577llPJHICQffII4+4Pm+//bbtuOOO7tj/IQWA6DD5sESQ11xzTfv111/96dTrvffe61ISaIgSwEn5wf8dd9xh5OyS37vrrrvaW2+9RXM9O+WUU6xPnz6uPe75/UVBAUzb3nvvbePGjfOn9SoCIiACIlCmBCSAy3RiNKzsBCSAszNqqABu27atS3fA86RJk2zTTTeNvcmQIUOsZ8+e7jzbLH/66aepvrxHHGL33XefnX766alzwQOE82WXXeaaogRwUn5Y6Pboo4+6+wwbNsyOPfbY4DDSjlm4RsoHG4qQ50xOb5wFBTBRcKLhMhEQAREQgfInIAFc/nOkEcYQkACOARNobqgAJgd28ODBzgM/45911lkBb+mHJ5xwglsoRytpEs8//3yqA+/PPPNM9x6xieiMMtIpfPpElABOys/222/vFuwxhgceeMBFp/14/M55/pV2npsvA5lynOkXFMCkODz55JM0y0RABERABMqcgARwmU+QhhdPICiAWaD1+++/x3aePn26K30V2yHHE4giynUVal988YUdccQRhbrJen1DBTAL31gAh1Hh4dprr429B4u+vEA+7bTTUnnDXMB7Hw3da6+93OK3KEfzzjtvqpxalABOyg9VHfLJv6WEGeXS4iwogNlx7/3334/rqnYREAEREIEyIiABXEaToaE0jEBQAGe7khJUHTt2zNYt6/mZM2dGlrjKemGoA+kC/LxfbGuoAKZKwqmnnuqGRdoC6QtxFhTL1113nV1++eWprsH7UhqMkmdxRj1hhHCUAE7KD2KeKDDGYrVffvklbjhp7dQpZhFenAUFMNHzXP3G+VO7CIiACIhAaQhIAJeGs+5SBAJBAcyCpkzig+gwIqtQo3YsUcFCjZJgJ554YqFusl4fFJAsXEPAZzIWfZ133nmuyznnnGN33313bPdg/i55suTLejv//PPdZhC8p7IC5c6ijA0oEKSkH0QJ4GL4iataETW+bG1BAUwd4Fw30MjmV+dFQAREQASKS0ACuLh85b2IBIICeLvttnM7eRXxdhXpuqECeIMNNrDbb7/dPSsbWPgFalEPHyxPRjkzXxWCvuTDeoFPKTFKikUZ9XH97m9RAjgpP4he0ikw6gA/9NBDUcNpcJsEcIOR6QIREAERKAsCEsBlMQ0aRD4EJICzU6Omra+tu8oqq7ithzNdRa1cL1YRtME6veHriBQTMcYoK8Z2v974QnLllVe6t5lyiddaay1XM5eOUQI4KT/swHbrrbe68ZCqQcpGEiYBnARF+RABERCB0hOQAC49c90xIQISwNlBsp0x1RowdjYj3zaTkSbyyiuvuHSRTPV72TmNerdt2rRxP/uzvTC7p3lbbLHFbPTo0dasWTMj/3rjjTd2O6/58/71kksusZ133tm9jRLASflZZJFF3HhatGhhn332mW222WbGbm2FmgRwoQR1vQiIgAg0DgEJ4MbhrrsmQEACODtE6vjedNNNriMbXJx99tlZLwpWXujfv79df/319a5hwwdyhDHKivmFc8GO7IhGZBgjEn3bbbcFT7sawmyE4XOzowQwFyTlh53fDj/8cDcGUjtI8chkq6++utv+mYVwcSYBHEdG7SIgAiJQ3gQkgMt7fjS6DAQkgDPA+d+pueaayx5//HEjtQEbNGiQi4T6knHszhZeoMbubdTm9cKUVAaEKuXfiPgSsSWPFt8s+qKaBVHVsDE/pFMQBca491NPPWXfffedrbbaakZpMsrTsfHEPPPME5kCwXVJ+eF5Ro4caYsvvjhu3TEl3z7++GObNWuWER3u1KmT25mO0m0satt8883tk08+cf2j/kgAR1FRmwiIgAiUPwEJ4PKfI40whoAEcAyYUDPpCUSBF1hggdAZc3VrqV8bNtr69euXEsGc/+GHH5xY9X0RjdQBJgIcZ2yBTKR1wQUXrNeFqh1EiCm11qpVq1gBzIVJ+enatatb2EdFDG+IeMQ9wh9RHzQJ4CANHYuACIhA9RCQAK6euay5J5EAzn3Kl1hiCSMFoEePHi6iSvkxjI0bogQw5+rq6owUCK4JG6XLyC0eP358+FS990Sf2fRjpZVWsg4dOhgl4F566SW3+O21115zeclEZ4kO9+3bt971viEpP0SkqUzRu3dvJ7y9f/9KqbgxY8a4CDELARH6caYIcBwZtYuACIhAeROQAC7v+dHoMhCQAM4AJ8FT888/v3Xr1s2lB3z++ec2YcIE+/nnn/O6A76C9ZqJSr/55pvOF+XXLrjggpz8JuWHxXHLLLOM8QWBKDA1nidNmpRxV8GcBqhOIiACIiACZU1AArisp0eDy0RAAjgTnco417NnTxsyZIgbLAv0WKiXjyXlJ5976xoREAEREIHKIyABXHlzphH/j4AEcOV/FKjGwI5y5OGytTIL0vKxpPzkc29dIwIiIAIiUHkEJIArb8404v8RkAAu/4/CwIEDXV3h//73v2mVIshBJi+YsmQcsxDu9NNPj32gpPzE3kAnREAEREAEaoqABHBNTXd1PawEcPnP56hRo6xjx45uoFSRIL+WkmedO3dOVZigbffdd3fl0eKeKCk/cf7VLgIiIAIiUFsEJIBra76r6mklgMt/OtkGmV3XfE3h4IhJe7jjjjuMPjNmzAieqneclJ96jtUgAiIgAiJQkwQkgGty2qvjoSWAK2MeKTtG3d327dtb27Zt3eYXbC4xceLErMI3+IRJ+Qn61LEIiIAIiEBtEpAArs15r4qnlgCuimnUQ4iACIiACIhAyQlIAJccuW6YFAEJ4KRIyo8IiIAIiIAI1BYBCeDamu+qetomTZpYy5Yt3TP9/vvvNnv27Kp6Pj2MCIiACIiACIhAcQhIABeHq7yKgAiIgAiIgAiIgAiUKQEJ4DKdGA1LBERABERABERABESgOAQkgIvDVV5FQAREQAREQAREQATKlIAEcJlOjIYlAiIgAiIgAiIgAiJQHAISwMXhKq8lINC8eXOrq6tzd2I3sZkzZ5bgrrqFCIiACIiACIhApROQAK70Gazh8asMWg1Pvh5dBERABERABAogIAFcADxd2rgEJIAbl7/uLgIiIAIiIAKVSkACuFJnTuM2CWB9CERABERABERABPIhIAGcDzVdUxYEJIDLYho0CBEQAREQARGoOAISwBU3ZRqwJyAB7EnoVQREQAREQAREoCEEJIAbQkt9y4qABHBZTYcGIwIiIAIiIAIVQ0ACuGKmSgMNE5AADhMp7vvDDjvMVlttNXeTPn362J9//pnIDe+55x6bf/75bfz48Xbaaafl7TMXP6NGjbJmzZpF3mOTTTaxWbNmRZ5TowiIgAiIQHURkACurvmsqaeRAC7tdF9zzTW29dZbu5t27949MbH4+uuvW6tWrezVV1+13XbbLe+HysXPhx9+aE2bNo28x7LLLqta0pFk1CgCIiAC1UdAArj65rRmnkgCuLRTXQ0CeKWVVrImTZqkwB133HG21lprufcSwCksOhABERCBqicgAVz1U1y9DygBXNq5Peigg2zllVd2Nz3yyCPtr7/+SmQAuURuc7lRPn6uvvpq22abbZx7CeBcKKuPCIiACFQHAQng6pjHmnwKCeDqmPZ8hGvUk+fjRwI4iqTaREAERKD6CUgAV/8cV+0TSgBXx9TmI1yjnjwfPxLAUSTVJgIiIALVT0ACuPrnuGqfUAJ4ztTuuOOONu+889qECRNs2rRptscee1i3bt3stddeswceeMC++uorg9fOO+9s5MF+/PHHNmjQIPvggw/mOAkdURWhZcuWodZ/3w4fPtxmz54deS7cSNWFzTbbzFZYYQVbfvnlbfLkyfbKK6/Ys88+az/++KPlKlyT8hMcXxICuEePHo4pCwNhPGXKFFfRYsyYMTZx4sTg7dzx//3f/7lKFFOnTrXRo0fXO5+pYe2113b3+Pvvv+3+++9Pm4PWrVvbhhtuaD179rTFFlvM2rVr5+adOWbx34svvmjTp0/P5D51bv3117cOHTq493xOuB/++Fwtt9xyttBCC9mXX37p5u7BBx+03377LXVt+KChfMLX670IiIAIFIOABHAxqMpnSQggNp5++ml3r+22286JjpLcuAxvgrhZeOGFDWG6yiqrOAHkh0l5sb59+xpCBWHkDaG8yy672Keffuqb0l4RqEsuuWRam3+TaxUIRNn1119va6yxhr809frJJ584QfXkk09mrQKRlJ/Uzf93UIgAnmeeeez000+3PffcM+zWvZ85c6adf/75du+996adHzx4sPsygFDeaKON0s5lezN06FD3JWLSpEm26aabprpfe+21tvnmm8dWuKAj9zv88MNz+vfk5ptvNr4AYV26dLEtt9zSLr30Upt77rldW/BP3HPkyyfoW8ciIAIiUCwCEsDFIiu/RScgATwHsRfAtLz55pv2wgsvOHHFwi7s119/tRkzZhjia5FFFrFevXq59htuuMEuu+wydxz+c+WVV7q+vn2ZZZZxkT/e5yKAqe07bNgw69Spk3Px+eefuygk41h99dWdsHr//ffdeaLXcWXQkvLjnyP4mq8AXnTRRW3AgAFWV1fn3H399df28ssvG1FdPpdrrrmmIdqxW265xS6++GJ3zB9qHR944IHu/aqrruoi9qmTGQ4QlG+//bYTuXyZOeWUU1K9n3rqKVtqqaVcGTcivkTZP/vsM1tggQWMeWM8GKL82GOPtREjRqSujToICuB9993X7rzzTptrrrnsjz/+cL8e/PTTT+5+cOCLFM8RtEL4BP3oWAREQASKRUACuFhk5bfoBCSA5yD2Ahhhss4669jvv//uNpdAVDZv3tx13G+//ez55593x7fffrttsMEG9t5779n2228/x1GGo4aWQTvkkEPsxBNPdB7ZgIKNNIIbTRA9PeCAA1J3jBPASflJ3ShwkK8Avvzyy1NfIojwXnjhhY65d40AxDfCkGoZO+ywQyrySqSWLx4YQphIey5GZJ90Fuzkk0+2hx56KHXZXXfdZWPHjnVpEaSVhI1rEexEcBHGG2+8cVr6RLh/UAAjqBHXiHg2GwlW/+ALFvNz1FFHpbkohE+aI70RAREQgSIRkAAuEli5LT4BCeA5jL0AJu+0d+/eqRP+J3NEC7mYRAAxypgdc8wxTrSRl5uLNUQAI7QYS9u2be2XX35xEUhEediGDBniclZpjxLASfkJ39e/z0cAk0PtxSeRV9JLooxIO+kdRLCZn7322st1gwnRYozUhSuuuMIdZ/uDWPY75ZGe8GlM6kqcnxNOOMEOPfRQd3qfffZxgjmub1AA02fvvfe2cePGxXVPay+UT5ozvREBERCBIhGQAC4SWLktPgEJ4DmMvQD+73//ayeddFLqhI/0fvfdd2l5uOStnnfeea4fOZ7BqF7q4tBBQwQwAg0Rhd13330uVzbkzr1lURV5sliUAE7Kj7tBxJ98BPCNN97oFvXhLpsQPfvssw2xCV8WAfovAeSu8/kNf2Eh55o8XQx+wUV0fqzff/+9SyFxnRrwh5zhm266yV1x1llnuWhu3OVBAUyE2qdsxPUPtifBJ+hPxyIgAiJQDAISwMWgKp8lISABPAezF8D8RI248Xbddde5BUz87E2FAG877bSTW9TEeza3IHUimzVEAJM36sdBzim5wFEWnMMoAZyUn6h70+ZFJce5boThxSt51aQieAvuMOePyXUmeoqx4PCNN95wx/369XPv4U56AlUWMFJCSA3B+vfv7xYQujf//HnuuedsiSWWsJEjR6Yiuf5c8HW++eaz9u3b2+KLL+7ykP1YqOrAzndY2Hfweo6DApgUByLZuVoSfHK9l/qJgAiIQL4EJIDzJafrGp1AUDxR5slH16IGRvknFgQVavx8TQSuUPviiy/siCOOKNRN6novgG+99Va76KKLUu0IHfJPKXu2xRZbpNrZ/Qzxh6233nrGeLJZQwTwqaeeauwch2X6uR2xxsIuLEoAJ+XH3SDiT0MFMKXYqKrRtGnTCG+Zm1i0xuI1bNddd00tjKNEnI/03nHHHUYJMoxScbvvvrs7psIHc4yRb3zbbbe54+Cfdddd1+Xj+q2dg+fCx8wlixzjLCiA+aywWDEXS4pPLvdSHxEQAREohIAEcCH0dG2jEggK4GwDoVRTx44ds3XLep4c2qhSUFkvDHUgf5Ofz5MyL4DDFQeo8ECNYL4gbLXVVqnbbb311oYIwlgMR4WGbNYQARwUltyX+8cZC/GocBAlgJPyE3fvoP9cIsDBzxxfqjI9V/ieiEpyhjEWlfljcnPJheZzRU1kvmDxZY4+ROfJoQ6mLxC9f+utt9LcBytLcILoNLWff/jhh9RiN3KRqeGL8csAC9XiLCiASd1gDLlYUnxyuZf6iIAIiEAhBCSAC6GnaxuVQPB/tgiCTP+TRlBQaqtQ46dlNgAo1Cib5SskFOqL68tNABOFZsMHjAj0O++8447DfyitRXSRiGqUAE7KT/i+/n1DBXAwEkvkmi8X+RoRXjaU8GkrROIpN0ZVCQRsnz59XKoDKQ/HH3+8q6LB5xhBGszZDn6ZoT4wzKi6Ed6oJLg4rSECONcccTgkySdfrrpOBERABHIhIAGcCyX1KUsCQQGsjTD+3QijXCLAvsoEHxxSIRBkURasiBAlgJPyE3Vv2hoqgLmGL1tEU0kbQbTma5RCoyTau+++60qq+XQPhC8CGCHsFxAikklt4IuOrybh74toZhyIY6Lt5HtHGeXufMWJYglg7psUn6hnUJsIiIAIJEVAAjgpkvJTcgISwHOQl1sEOLjILlPFAaKZbM6BRQngpPzMIZV+RD7tbrvt5hpZjBZVQzf9CrOHH37YlZSjpjEl5ILR2HDfTO99WbM///zTRXVJg2DTEMaBb7axJs2CFBU2NyFfOqpsGiXV/BcJqmrEGbV6jz76aHe6mAI4KT5xz6F2ERABEUiCgARwEhTlo1EISADPwV5uAph82kceecQN8KWXXordLjiYuxolgJPyM4dU+hF1ccnBxdgdj2hsNjvzzDONTUUwKjYQpc3HVlxxRaNsHYY4JRpNpYf999/ftfmcaxZLInwxajxTOs0bqSMsymPxWfBaf96/shkK1RmoIoEVUwAnxcePXa8iIAIiUAwCEsDFoCqfJSEgATwHc7kJYEY2cOBAtwEGJb4Qlyx2C1q7du3siSeesDZt2rjmKAHMiaT8BO/tj4OLy9gpjbq92YzxIiZbtWrlFpqRfsNiszhjS+SuXbsaXwSChmglsktuOrut0efcc881dnXDfPSbHOlu3bq5SDN5vKRHBA2GbHdM9HqjjTayn3/+OXjaHbMLH3nE3oopgJPi48eqVxEQAREoBgEJ4GJQlc+SEJAAnoM5aQHMYqawXXDBBanKFeSc/vHHH2ld+Ll+xowZqTbKeVHWC0OcUQ+YcZIyQDUCSrR17tw51T9OACflJ3WjwAGL8B5//HFbeumlXeugQYNs9OjRqZJ6iE1fuzdwmSvt5sXytGnT3MIzIrDffvut6wY/RCnCf9ttt3WCObxdMB3J811jjTVSrtmiePLkye49XxDg5ev4EulFbIfN5w7TznbIRNV9HjC1gNlYg3JqjM3PazEFMOOg9F0SfPAlEwEREIFiEJAALgZV+SwJAQngOZiTFMD8rN6Q8l5+FFS18Pm8vo2NIg4++GD/1uW2IpzJZ8Wuv/56t6iLaGqcAKZfUn7wFTYEKDukRdWJJvpKHdywIZxJTUBcEsn1RvSVcyySC9rw4cNdmkOwjWM2pvA7v1HBgYh00IJbRd999912zjnnBE+745YtWxr+g2X+ELuMy0fXSe1g8w2i3FixBXBSfNxg9UcEREAEikBAArgIUOWyNAQkgOdwLlcBzAhZZEZUMigKqVhA9QLqFFP7NpsATtLPHGpzjsiNRYz26NHD+Fz5jS7iBLC/snv37m5L6Z49e6au8ed4pd7ziBEjbOjQoS7NIXiO42B0m2i53xba92PRmo8c84rQjbJFFlnE5SMTbQ4anMeNG+fSH9hm2e/IV2wB7MdQKB/vR68iIAIikDQBCeCkicpfyQhIAJcMdcE34mf8uro6VzWBn/ipC0z1g4ZaUn4aet9s/Vu0aOHSOUh7QDxTIm3q1Knun2zXJnl+scUWc6kXCOIJEyY40Z1vlYokx1UufJJ8JvkSARGobAISwJU9fzU9egngmp5+PbwIiIAIiIAI5E1AAjhvdLqwsQlIADf2DOj+IiACIiACIlCZBCSAK3PeNOp/CEgA62MgAiIgAiIgAiKQDwEJ4Hyo6ZqyICABXBbToEGIgAiIgAiIQMURkACuuCnTgD0BCWBPQq8iIAIiIAIiIAINISAB3BBa6ltWBCSAy2o6NBgREAEREAERqBgCEsAVM1UaaJiABHCYiN6LgAiIgAiIgAjkQkACOBdK6lOWBCSAy3JaNCgREAEREAERKHsCEsBlP0UaYBwBNkVgG1iMHa9mz54d11XtIiACIiACIiACIpAiIAGcQqEDERABERABERABERCBWiAgAVwLs6xnFAEREAEREAEREAERSBGQAE6h0IEIiIAIiIAIiIAIiEAtEJAAroVZ1jOKgAiIgAiIgAiIgAikCEgAp1DooNIING/e3Orq6tywJ02aZDNnzqy0R9B4RUAEREAEREAEGoGABHAjQNctkyGgMmjJcJQXERABERABEag1AhLAtTbjVfS8EsBVNJl6FBEQAREQAREoIQEJ4BLC1q2SJSABnCxPeRMBERABERCBWiEgAVwrM12FzykBXIWTqkcSAREQAREQgRIQkAAuAWTdojgEJICLw1VeRUAEREAERKDaCUgAV/sMV/HzSQBX8eTq0URABERABESgiAQkgIsIV66LS0ACuLh8y8X73HPPbffff78bzttvv21nnnlmuQxN4xABERABEahQAhLAFTpxGraZBHBtfArmnXdee/fdd93Djhs3zvbee++yevCWLVtas2bN3Jh+/vnnxMdGrevbbrvN+X3kkUesf//+id9DDkVABESg1ghIANfajFfR80oAV9FkZniUchfAt9xyi2288cb2999/29JLL53hSfI71a9fP9tll12c/6222so++uij/BzpKhEQAREQgRQBCeAUCh1UGgEJ4EqbsfzGW8sCeLHFFrPRo0e7CPPTTz9tBx98cH4QdZUIiIAIiEAaAQngNBx6U0kEJIArabbyH2stC+DTTjvNDjzwQAdv1113tddffz1/kLpSBERABEQgRUACOIVCB5VGQAK40mYsv/HWqgBu3bq1jRkzxsgxfvXVV2233XbLD6CuEgEREAERqEdAArgeEjVUCgEJ4PiZ6tSpk+20007WoUMHW2KJJeyPP/6wb7/91qZMmWLPPvusvfXWWy6nNN7Dv2e6d+9uq6++uvGKz88++8wmTJhgr7zySmphWjYf/nzz5s1t/fXXt2WWWcb9w9i+/vprmzx5sj3++OM2fvx43zXtNVcBTP4tY8V++eUXY8EYeblRtsACC9i6667rnotna9q0qbv/e++9ZyNHjrS//vor6jKjIsXOO++cdo5FeV27dnVtZ5xxRto5/+bhhx+23377zb/N6fWII46wY4891vU96KCDbNSoUTldp04iIAIiIALZCUgAZ2ekHmVKQAK4/sTMNddcdt555xk/lyPq4gwR7H9aj+qDn0MPPdSOPvroSD8IyxtvvNGuuOKKWLEY9Lv88svbpZdeal26dAk2px2/9tprtueee9qff/6Z1p6LAMb/XXfdZURNf/rpJzvggAPszTffTPPj36yxxhqukkL79u19U9or0Vae+6uvvkpr502bNm1cNLbeiSwNiO0vv/wyS685p3lmor/c74MPPrBtttkmVszPuUpHIiACIiACuRKQAM6VlPqVHQEJ4PpTctxxx9nhhx/uTlCS66mnnrLPP//cLaIigrvsssvaUkstZS+99JITm/U9/NtyzTXX2NZbb+3eELl8+eWX7cMPPzRKchFlJYKKPffcc7b//vu747g/++yzjxEZ9YL8008/NSKtRJM7duzooqf4xRCyv//+e5qrbAJ4pZVWsjvuuMON6YcffrD99tsvNppMJPXkk082BD4iHg5EtIlO9+jRw1ZYYQV372nTplmvXr1s6tSpaWOZf/7565UhW3HFFa1du3auH7yj7JRTTjF85mr77ruvnXXWWa778ccfb0SQZSIgAiIgAskRkABOjqU8lZiABHA68BYtWri0BITmJ5984qLAREPDttZaaxmi8frrrw+fcu9XXXXV1MYTREERlB9//HGq75JLLumirQhqjEgyEeUoo++IESNc6sCsWbPsoosusrvvvrte14022shFrjfbbLMGCWCiubfeeqvLkyWdAuEYHGvwRqRIPPbYY06I81x8WUAAB41yYxdeeKHrw7gPO+yw4OnI46TLoDF/pDuQuoIAh01cSkbkgNQoAiIgAiKQlYAEcFZE6lCuBCSA02eG6OnQoUNd4+WXX27XXXddeocc3w0YMMDWXntt15uUhLBI5ASRZHJsMXZn23HHHd1x+M9NN91km266qWs+8cQTbfDgweEuqffzzTefzZgxo57Yi4sAk098ww032DzzzOOEIrm45DjHGVFirkFMkiJCHnSUEa3t06ePOxX3/MHrkhbAO+ywQyrKfM4550R+YQjeX8ciIAIiIAINJyAB3HBmuqJMCEgAp0/EmmuuaQMHDnSNRDqPPPLI9A45vGvbtq1Ld6DrpEmTUuI16tIhQ4ZYz5493alNNtnESG0IGhHiZ555xjURkWYTh3wimVECGFF97bXXutQF7ov4zZRjy0K3Rx991I1l2LBhqcVlwfH644UWWsgxaNKkictzJnc5kyUpgLnn8OHDXVoIKRPrrbdevYh4prHonAiIgAiIQG4EJIBz46ReZUhAAjh9UhZeeGFjq2BEFAvJEMDkpM6ePTu9Y4Z35MD6KO0999yTykONuuSEE05wC+U4R5rE888/n9aN3dEQh9iVV15p5BXnY2EBPGjQILf4jlQB8ptJW6DCRSbbfvvt3TX0eeCBB1zusu8PL8y/ckz+LV8GcslxTlIAk+5ASgdWCDPnQH9EQAREQARiCUgAx6LRiXInEBTALNAKL54Kjn/69OmphVvB9oYeI4q+//77hl5Wr/8XX3xhlLlK2i644ALbfffdU26/++47V7KMCgukKrzxxhsZBTEL37xQpcIDUdY4Cy7UYsOG+++/P60rucG0Y4hlIsb5WFAA//jjj24e/YI6yrtR7i2uhJq/H1UdjjrqKP8251eiylRwyGRJCmAYkoPNZ5n78rwyERABERCB5AlIACfPVB5LRCAogLPdktxQKg4UajNnznQLugr1w8/2pA0kbeTDUjWgd+/ertJB2D/inUVo5M5GpSNQJeHUU091l51++ul23333hV2k3gfFMvnG5B0HjXJs5NBiiHJqB+djQQHsr0fwktZA1JZUDSK8mersIubpg1FWjDrBuRgCNNv2w0kJ4FVWWcVFpxkX+crnn39+LkNUHxEQAREQgTwISADnAU2XlAeBoABmQVMmUUNEDSFVqFE7NlOuaa7+qVjAorBiGekQpCCss846tvLKK1u45i35sERFw4ZgRbhi2RZgsfDtsssuc33Jk6UucNCCi8moyzt69Ojg6ZyPwwKYtA7SO0466aRUCTbSNjLxREzuscce7p6ZqlbkPKhAx6QE8M033+y+FJG+suGGGybyOQsMU4ciIAIiIAIBAhLAARg6rCwCQQG83XbbZf0ZvLKeLtnRUgKMPF0isdTAxaKishtssIHdfvvt7jxRYi9wXUPoD5FRaupixxxzTKoqhO/G1r2UFMPOPPPM1AI9fz7X16AAfv/9910kl+g1Zd8QvkSCMcqa+SoYYd/BdAzG/NBDD4W75P0+CQHM7njshkdEO5uYz3ugulAEREAERCBFQAI4hUIHlUZAArjhM8bubuTjYlFRW4Qy9W8xypwhbOMsmOJAWbHXX389rSsbZrBgDbv33nvdZhhpHXJ8ExTALPKj4oM3xovoJfXj119/Nb4IsbVy2IKLywopERf2y3tf6o2NNRCycdsvR13r2/iiQUSda7fccsvYWsa+v15FQAREQAQKIyABXBg/Xd2IBCSAGw4/WL83KsKL2CRXl1dyaimthrAMGzunIUbZqpdoLBtShHc6a9WqlasM0bJlS7eoCxGarVpD+D68zySAOb/XXnvZueeey6G98847rsYvi+OCtsgii7gUDKLG7EDHhhvhPsH+DTkOfhGAV0OfcfHFF3cbibCwj/SOvn37NuT26isCIiACIpAHAQngPKDpkvIgIAGcPg/k+SJW2QI5zoKVG6iKQM3ZsFG5gZQBrH///pE7xhGFJUcYo6yYXzjnGgJ/EHPk6mLkHRN9jhOebFKBqA6fzyaA8e2jsBxTRowd58IW3CaaiCtfADIZEWyqi2SrxBB8xkxpGHH3Ij2E9BQsKpIed53aRUAEREAE8icgAZw/O13ZyAQkgNMngHq4iFI2wSDHlWoHXrwRsWWHMerbIigpC7f55pvbN998k+7kn3ft2rVzEUn6YdSjJYWBChJEfHfeeWeX+0suMdFfqlkQVY0y7ktu61JLLeVOU4qNUm1UcSDCTHSYNAaEOSkA7GYXLmeXiwBmXDw3kV7SCBDw4UV3+Bk5cqQRccU4puQbWyezTTPRYTbvIJpNVLlLly6OEZt4ZDJykNlcAx7wxieLMoPbUJOWEVV1o3Xr1i5KztiIvAdL2GW6p86JgAiIgAgURkACuDB+uroRCUgAp8NHAPfr1y+tkbQEhOaiiy5qzZo1c+cQiIcccoj7uT2tc+DNNtts43x5EcypH374wdglzRuiEUFNBDiT1dXVucV0ftc4+rI5B4IasR3cgCJfAYxP6ubeeeedzh++eYZwOkLXrl3dWEgF8YYw9WPxCwT9Ob4kZBPA9CUFA9EcZ+zoRu3nsAXrE1OCbtSoUeEuei8CIiACIlAEAhLARYAql6UhIAGczpkFWPwcv/baazvBm37233cvvPCCXXXVVcbGGNkM4UoKRI8ePep1JbpMOkO2DSj8heS3UjWCyCzR2rBNmDDBBgwYYA8++GC9jTpyiQB7f6RiICQxnpV6yOGd8PgicNhhh7lz5CmHjVrPY8aMcRFiFgIi9HMxys7ts88+1qFDB1d2LvjlIUoAE/3mPkSB4Ylgz2cBXS5jUx8REAEREIF0AhLA6Tz0roIISADHTxZsllhiCZcSQK+pU6cam4F89dVX8RfFnJl//vmtW7duLj2ArYcRq5nyjGPcpJqpUYxYRygyHsbFxiCNYaRMMBZYEQWmxjMba4TTMIoxtv3339/+85//ONdsXvLwww8X4zbyKQIiIAIiEEFAAjgCipoqg4AEcGXMk0ZZnwBR6GeffdZFivlSQfQ4Kke4/pVqEQEREAERSIKABHASFOWjUQhIADcKdt00AQIstPPVMQYOHOg2v0jArVyIgAiIgAjkSEACOEdQ6lZ+BCSAy29ONCIREAEREAERqAQCEsCVMEsaYyQBCeBILGoUAREQAREQARHIQkACOAsgnS5fAhLA5Ts3GpkIiIAIiIAIlDMBCeBynh2NLSMBCeCMeHRSBERABERABEQghoAEcAwYNZc/AQng8p8jjVAEREAEREAEypGABHA5zorGlBMBCeCcMKmTCIiACIiACIhAiIAEcAiI3lYOAbbQZTctjI0Lwjt+Vc6TaKQiIAIiIAIiIAKlJCABXEraupcIiIAIiIAIiIAIiECjE5AAbvQp0ABEQAREQAREQAREQARKSUACuJS0dS8REAEREAEREAEREIFGJyAB3OhToAGIgAiIgAiIgAiIgAiUkoAEcClp616JEmjevLnV1dU5n5MmTbKZM2cm6r8anLVv395atWpl06dPt6lTp1bDI+kZREAEREAERKBgAhLABSOUg8YioDJo2clfccUVtv3229tTTz1lffv2zX6BeoiACIiACIhADRCQAK6BSa7WR5QAzj6zEsDZGamHCIiACIhA7RGQAK69Oa+aJ5YAzj6VEsDZGamHCIiACIhA7RGQAK69Oa+aJ5YAzj6VEsDZGamHCIiACIhA7RGQAK69Oa+aJ5YAzj6VEsDZGamHCIiACIhA7RGQAK69Oa+aJ5YAzj6VEsDZGamHCIiACIhA7RGQAK69Oa+aJ5YAzj6VEsDZGalH+RLYd999rU+fPpEDHDhwoN14442R58KNSfkJ+9V7ERCByiUgAVy5c1fzI5cAzv4RkADOzqjaerRs2dKaNWvmHuvnn3+u6Mc7/PDD7bjjjot8hptuuskuueSSyHPhxqT8hP3qvQiIQOUSkACu3Lmr+ZFLAGf/CEgAZ2dUbT1uueUW24Q9LsYAAEAASURBVHjjje3vv/+2pZdeuqIfb7HFFrPFF1889QwdOnQwPtNYQwRwUn5SA9GBCIhAxROQAK74KazdB5AAzj73EsDZGVVbj2oSwOG5QdCPGDHCNTdEABfLT9iv3ouACFQOAQngypkrjTREQAI4BCTirQRwBJQqb5IAzj7BSQnp7HdSDxEQgXIlIAFcrjOjcWUlIAGcFZH7uVhbIWfnVE09JICzz6YEcHZG6iEC1U5AArjaZ7iKn08COPvkKgIcz6h58+a2/vrr2zLLLOP+Ib/066+/tsmTJ9vjjz9u48ePj7/4f2fmmWce22STTaxbt27WvXt3m2uuuWzChAnun1GjRtmvv/4a62P++ec3vpxgXPPGG29Y69atbc0117Q11ljDunbtapMmTbJXXnnFHn744Ug/c889t+28885p5/bee293LY1nnHFG2jn/Bn+//fabf1vvFS7wwAYNGuTyidu1a2d77LGHLbfccrbQQgvZl19+aa+//ro9+OCDsb4K4VNvUP80JCVck/DTo0cPW2mlldy889+iKVOmuM/MmDFjbOLEiVHDr9fWpk0b22qrrVz7u+++a2+//bY1adLEfS633nprW3LJJW3mzJnuMzl48GB3vp4TNYiACORFQAI4L2y6qBwISABnnwUJ4GhGyy+/vF166aXWpUuX6A7/tL722mu255572p9//hnZp66uzq699tpYH4jXI4880onbKAedOnWyZ555xp267bbb7O6773ZicpFFFqnX/YknnrATTjjBfv/997RzCKhXX301rS2XN+uuu64TsHF9b775ZifsOQ+jLbfc0vFCcIcN4bfRRhuFm61QPvUc/tOQhHDFbyF+EPWnn366+2xEjRHBev7559u9994bdTqtjS8Tw4YNc23XXXedwZ1/+AIUZXwGhgwZEnVKbSIgAg0kIAHcQGDqXj4EJICzz4UEcH1G++yzj4uMNm3a1J389NNP7b333rPPPvvMOnbs6KKniDcMoRwWnbSvsMIKRh3aeeedl7f28ccfOyH6119/2SqrrOIiwrQjhg444AB78cUXeZtmQQFMRHbFFVc0qhUQVWVMjGXttdd2UWUuvOiii+zWW29N80EUuX///mlt+CFaiz311FNp5/ybU045xaZNm+bf1nsNCmBq6N55551uHH/88Yd71p9++smWWmopW3TRRZ2fVVddNc1HEnzSHP7vTSHCNegvXz8874ABA5y4xx+/GLz88ss2depU479HRO+J4mOkolx88cXuOO5PWADz2cEH9s0339gnn3zi/MEa4X322We7+8f5U7sIiEDuBCSAc2elnmVGQAI4+4RIAKcz4idlqggQyZw1a5YTlURew0ZE87zzzrPNNtssUgAjghCnGEKnX79+Lk3A+zniiCPs2GOPdW/5WXvHHXf0p1KvQQFMIwL84IMPtg8//DDVh1QEosOkVnzxxRe24YYbGiI7kyWRAxwUwB988IETu4i5e+65J+3+yy67rB1yyCF21FFHpQ0pCT5pDv/3Jl/hGvaVr5/LL7/cevXq5dwR4b3wwgvTPh8I5Kuvvtr4QsA87bDDDhlTaYICGM6kvZAKc/zxx7u0Bz/uFi1aWO/evZ0ojkuH8X31KgIikBsBCeDcOKlXGRKQAM4+KRLA6YwonbXpppu6xhNPPNHIq4yz+eabz2bMmJEm+OiLuLn//vvdZS+99FLsT+HBex100EFGTnDQwgJ4//33t+eeey7YxR0H/ZBvTHQ4kyUtgLkXecXjxo3LdNvUuaT4pBwGDvIVrgEX7jAfP+T7PvTQQ+56Iut9+/YNu3XvSWF58sknjeg8kf+99torsh+NQQHMexjvt99+9T5znJOJgAgkS0ACOFme8lZCAhLA2WFLAM9hFBSc/LTM4qNs0dQ5V885Ovfcc1Oi5phjjrFHHnlkzsnAEdFaorcYeZ4+Iuy7BMeDqEXcRhni+dRTT3WnyElGdGeypAXws88+awceeGCmW6adS4pPmtP/vclHuCblh22X+UUAy/ZFhFQFUm34fJEOEpVGg5+wAN5pp53srbfe4pRMBESgyAQkgIsMWO6LR0ACODtbCeA5jNgdDXGIXXnllXbNNdfMOdmAo9tvv9022GADd8Vqq61mP/zwQ+TVVJl4//333Tnyenfddde0fkEBnCmiuN1227nxcjHbAg8dOjTNT/hN0gKYFAcimrlaUnyi7teYAvjpp582/ptDZY+TTz45NTyqNnjzx6uvvrqLmtO+yy67uLQG3yf4GhTAVALZdtttg6d1LAIiUEQCEsBFhCvXxSUgAZydrxfAP//8syupFXdF27Zt7fvvv487nXN7Un7IdyWPNkkjinnaaac5l4WspieHGCFGdI+cTbYcjjMqSbAoisVSPmfY9w0KYHJmiRpGGVFHoo8Y1Qfuu+++qG6ptqQF8DbbbJMS8qmbZDhIik/ULRpLADdr1szl8vqFk1Fji2tjwSGl4qIsKIBHjhxphx56aFQ3tYmACBSBgARwEaDKZWkISABn5+wFcLaeVCuIKnGV7brw+aT8ZEoJCN8z1/csaiOFANt9991dfd1crw32e+edd6xly5aRojbYj2MvBmfPnu3qxQZLqgUFMKkSLKiKssYWwPyE/8svv0QNLbItKT5RzhtLAAf/WzN9+vS0hYpR4wy2saAwrhpHUAATOb/ggguCl+pYBESgiAQkgIsIV66LSyD4PyV+Js5l44Lijqj8vHsBTMmrTHzat2+fsS5srk+WlB8ipixSS9KIxPXp08e5pDTZ6NGj83JPDi5lxn788UdX8iyTE/Jn/WYGiJ1gtLhSBDB1gBuSK50UnyiujSWAF1544VQpu7iqHlHjzdYWFMDUAabKhEwERKA0BCSAS8NZdykCAQng7FC9AM6UY5rdS3X02G233VJR1jPPPNPV8c3nyagcQVQUY/c3yqnFGfWFqd/Kphi++oTvW60COCk+nlPwtbEEMGNgcRqVHUjPWW+99YLDyvtYAjhvdLpQBAomIAFcMEI5aCwCEsDZyUsAz2HEwiS29cWo4Rq3TfCcK6KPWDzHNrUYohZxG2VEiX3Fhueff96Vtwr2K5YA9mXTiDazzXMw6hy8f6bjYB3ghkaAk+ITNT7q7I4dO9adon7zOeecE9Uta1s+fqi/y/bHfOFhg5SGRMXjBiQBHEdG7SJQfAISwMVnrDsUiYAEcHawEsBzGLVq1coQouTvUpaKzS6+/fbbOR1yPDr66KNTGz8g9qgoEWWkWbBoDbvjjjvc9rjBfsUSwMFcZ3YVy+cZCxHASfEJsvLHVFkgqk6+OttI+5QWfz7X13z88KsBNXqxXBYj5jIWCeBcKKmPCBSHgARwcbjKawkISABnhywBnM6IzQtOOukk1/joo48a1SDY3jfK2IWNjQnC54nsktvLNsjkKlO6KlwKbYEFFnDlyhC5RAqpG8tOb0ErlgAOPmMuZdOCY/LHhQjgpPj4sYRfqbvMDnTMC+XomIN8rKF+2rRpY5RC44vUV199Zaw7CM97cBxU/6BKiP8VIHjOH0sAexJ6FYHSE5AALj1z3TEhAhLA2UFKAKczojbv448/7rb25QwLmlh5zwLB3377zUWHyTPdd9993fbF/NQdtYkB5dT85hATJ050C/aofoB169bN2DYYkYY98MADqY0sXMP//hRLAJOXzMYbbJ/MQj2i1OSv/vTTT6nbT548OeNP+IUIYG6SBJ/UYEMHfOG46qqrXOuUKVOMsX7++eepVA/q6eZS0i8fP2xu4cvVsbD0oosucrv3+Sg7i+VIO2G7ZPwjmMPbRAcfRwI4SEPHIlBaAhLApeWtuyVIQAI4O0wJ4PqM6urq7LLLLrOePXumTlKmDNFE9NJvZsDJOAFMFPDqq6+2ddddN+UDoUy+LSkW3qgDfNhhh9l3333nm1KvxRLA3CC4G1vqhoEDFnGxmCvOChXASfCJGxvzc/3119vmm28e2YVautTUzWb5+OFLBfWpDz/8cKM2sDfqbHOORXJBGz58uARwEIiORaCMCEgAl9FkaCgNIyABnJ2XBHA0IzY0OPjgg10Ul5+2w0YUkc0p2MAAcRxlCB7ELTulkQ4RtBkzZthdd91l/fv3j420FlMAMxZ2viNi2aFDB6M8XXCMxRbA3L9QPvjIZNR0JspKmgHpBt5yFcC+fz5+iLKTa82XqKjNMahjTQ1odu374IMP/K3qvSoCXA+JGkSgZAQkgEuGWjdKmoAEcHaiEsDZGfmfrRGK5HbyszoCJldD6HXs2NGVROMY8cz1ccI5V7/V0q+a+bRo0cI6d+7s0h4QwkTVp06d6v6plvnTc4hAtRKQAK7Wma2B55IAzj7JEsDZGamHCIiACIhA7RGQAK69Oa+aJ5YAzj6VEsDZGamHCIiACIhA7RGQAK69Oa+aJ5YAzj6VEsDZGamHCIiACIhA7RGQAK69Oa+aJ5YAzj6VEsDZGamHCIiACIhA7RGQAK69Oa+aJ5YAzj6VEsDZGamHCIiACIhA7RGQAK69Oa+aJ5YAzj6VEsDZGamHCIiACIhA7RGQAK69Oa+aJ5YAzj6VEsDZGamHCIiACIhA7RGQAK69Oa+aJ5YAzj6VEsDZGamHCIiACIhA7RGQAK69Oa+aJ2YrU7/tLNvQauOB+lM799xzuy1b//rrL2N3MpkIiIAIiIAIiICZBLA+BSIgAiIgAiIgAiIgAjVFQAK4pqZbDysCIiACIiACIiACIiABrM+ACIiACIiACIiACIhATRGQAK6p6dbDioAIiIAIiIAIiIAISADrM1CxBJo3b251dXVu/JMmTbKZM2dW7LMUa+Dt27e3Vq1a2fTp023q1KnFuo38ioAIiIAIiEBFEZAArqjp0mCDBFQGLUgj+lhl0KK5qFUEREAERKC2CUgA1/b8V/TTSwBnnz4J4OyM1EMEREAERKD2CEgA196cV80TSwBnn0oJ4OyM1EMEREAERKD2CEgA196cV80TSwBnn0oJ4OyM1EMEREAERKD2CEgA196cV80TSwBnn0oJ4OyM1EMEREAERKD2CEgA196cV80TSwBnn0oJ4OyM1EMEREAERKD2CEgA196cV80TSwBnn0oJ4OyMkuqx+OKL2wUXXODcDR8+3B566KFEXG+zzTbWp08f5+vMM8+0t99+Oy+/ufjZd999U/cK32TgwIF24403hpv1XgREQAQqkoAEcEVOmwYNAQng7J8DCeDsjJLqsfTSS9uIESOcO4TipZdemojr/fbbzxC+2D777GNjx47Ny28ufg4//HA77rjjIv3fdNNNdskll0SeU6MIiIAIVBoBCeBKmzGNN0VAAjiFIvZAAjgWTeInqkEAL7bYYkYk21uHDh2MzxAmAeyp6FUERKAaCEgAV8Ms1ugzSABnn3gJ4OyMkurBrntnnHGGc0ckeOjQoYm4ziVym8uN8vETFPUSwLlQVh8REIFKISABXCkzpXHWIyABXA9JvQYJ4HpIKq4hH+Ea9ZD5+JEAjiKpNhEQgWogIAFcDbNYo88gAZx94iWAszMq9x75CNeoZ8rHjwRwFEm1iYAIVAMBCeBqmMUafQYJ4OwTLwH8L6Mdd9zR5p13XpswYYJNmzbN9thjD+vWrZu99tpr9sADD9hXX31lfJ523nlnW2mllezjjz+2QYMG2QcffBALeckll7QVV1wx8jzXc69cDaG53nrrOX8LLrigvfrqq26x2xtvvGENEa5J+fHjTkIA9+jRwzHt3r27YzxlyhQbP368jRkzxiZOnOhvlXr9v//7P2vWrJlNnTrVRo8enWrP5WDttdd29/j777/t/vvvt9mzZ6cua926tW244YbWs2dPI9e5Xbt2bt6Z4w8//NBefPFFmz59eqp/poP111/fyI/G+JxwP/zxuVpuueVsoYUWsi+//NJef/11e/DBB+23336LdbfAAgvYuuuua/Dhn6ZNmzo+7733no0cOdL++uuv2Gt1QgREIH8CEsD5s9OVjUwAwfL000+7UWy33XbufxqNPKSyu70E8L9TgrhZeOGFjfJkq6yyihNAfrIQY3379nVCBWHkDaG8yy672Keffuqb0l4R1Zdddllam3/TkCoQvXr1sosvvthatGjhL0+9nnvuue44lyoQSflJ3fyfg0IE8DzzzGOnn3667bnnnkGXqeOZM2fa+eefb/fee2+qjYPBgwfbCiusYAjljTbaKO1ctjfkXS+//PI2adIk23TTTVPdr732Wtt8882duEw1hg64H1Uw+Dxks5tvvtk22WQT161Lly625ZZbuqofc889d71LMz3HGmusYf379zfyx6OML0JHH320E+pR59UmAiKQPwEJ4PzZ6cpGJiABnH0CJID/ZeQFMO/efPNNe+GFF5y4WnbZZV2HX3/91WbMmOHE1yKLLGKISeyGG26IFblEbA899FDXjz9EmIkuYrkK4L333tvOOeccd80ff/xhr7zyihH569y5s6255prWsmVLN16i0lhcGbSk/LibBP7kK4AXXXRRGzBggNXV1TlvX3/9tb388ssuqsu/tzwbEVnslltucV8A3Jt//px22ml24IEHurerrrqqi9j7c5leEdzUSCaCStT1lFNOSXV/6qmnbKmlljJENxHfyZMn22effWZEX5dZZhk3Hjpz/thjj02Vs0s5CB0EBTC1k++8806ba665jDkk+v/TTz+5+8GBL1I8R9gOOuggO/nkk911RJBfeukl96tB8+bNjag5XwIwrufzSERcJgIikBwBCeDkWMpTiQlIAGcHLgH8LyMvgBEm66yzjv3+++82//zzu1QDBAdGqsHzzz/vjm+//XbbYIMNnBjdfvvtXVu2P0GxmIsARtw+99xz1qZNGye+DznkEJcW4O+DP0QkgtxblABOyo+/R/A1+EwNqQJx+eWXp75EEOG98MILHXPvG2F49dVXO2HIT/w77LBDKvJKpJYvHhhC+Nlnn3XH2f4Q2SedBUNYBjciueuuu1xKCWkRP/74Yz1XXAtrIrgI44033jgtfSJ8QVAAI6gR10Tx77nnnrSUBb5gMa9HHXVUmgu4PvbYY06sk35D7WUEcND49QFuCHqqihx22GHB0zoWAREokIAEcIEAdXnjEZAAzs5eAvhfRl4Ak3fau3fvFDj/kzkijKgbEUDsyCOPtGOOOcaJNn5Sz8WCYjEXAXzAAQe4FAF8Ixivu+66erchBeDWW29NtUcJ4KT8pG4SOAg+U64CmGi1F59EXkkviTKE/ZNPPum+iDA/e+21l+vWtm1bFy3mDakLfIZzMcQy0WOM9IS41JU4XyeccEIqoh/FOXhdUADTTgR+3LhxwS4Zj++44w4jj5jP3a677mpvvfVWZH+i2H4XQFJJwiI58iI1ioAI5ERAAjgnTOpUjgQkgLPPigTwv4y8AP7vf/9rJ510Ugqcj/R+9913Rj6mN8TGeeed596S45nLQqSgWMxFAA8bNswtmGKhFmKIRVNhI/qHaCdiikUJs6T8hO/N++Az5SqAefbNNtvMucsmRM8++2z3TPDlJ38i8xi5/fz7Hf7CwsJD8nQxRGhwER0RZbZ7/v7772311Vd3fRryh5xhnhE766yzXDQ37vqgACZC7VM24voH21no9uijj7om5o6UizhjMR2pI02aNMk5rSbOl9pFQATSCUgAp/PQuwoiIAGcfbIkgP9l5AUwP1EjbrwRdWUBEz97UyHA20477ZTaynjllVd2OZ3+XNxrUCzmIoCpQEEeLJFKv6AqyrefQ85FCeCk/ETdO/hMuQpgL17JqyYVwRsizps/RqgSPcX4yZ+qF1i/fv3ce1JWSE8gRxYLRrtZPHb99de7dv6QTrLEEku4ygnB3OxUh/8dzDfffG7RGTvewd+PhaoOfhvosO+wj6AAJsWBSHauRkqNj2qTssG4vfmx+Ffa+bwSFaff/vvv77vqVQREoEACEsAFAtTljUdAAjg7ey+efv75Z7cyPu4K/gdL5KxQS8rPF198YUcccUShw0ld7wUw6QQXXXRRqh2hQ/4pC5e22GKLVDuRRCKKGIvdGE82C4rFbAKYvN133nnHuWSl/2677RbrPrgoLCyAk/ITd/PgM+UigClfRhUFItcNNX7uZ/EaRloAObUY0WQf6fWpA7SzYHD33Xfn0FX4YI4x8mZvu+02dxz8Q6kxxOpaa60VbI48vuaaa+zKK6+MPEdjUADzWXn//fdj+4ZPUNUhnBMc7hP1nl8IeAaZCIhAMgQkgJPhKC+NQEACODt0L4Cz9ST3NaqEU7brwueT8pMtKhq+b7b3XgCHKw5QxoxyZtSB3WqrrVJutt56a0MEYSyG+/zzz1Pn4g6CYjGbAA72feKJJ1I/60f5Pvjgg1OR1LAATspP1H1pC/rPRQAH/52kpi5cczVEJTnDGIvK/DG5uUOGDHGfT+rq8kWNVAn6EJ3/5ZdfXMkzn75A9D6cUxv8EoF/otMsPvvhhx9Si91YFEkNX4xfBsjLjrOgACZ1gzHkasF/J1lAl+u1LN7jsyATARFIhoAEcDIc5aURCAT/Z6s6wNETwE/BuUS8qEMalYMa7TW+NSk/lM068cQT42/UwDPlJoCpN0wpNmzUqFFGSaw48wvyOB8WwEn5ibt3QwUwtZZ9JJaSZHy5yNeI8JID69NWiMRTboyqEghYFofx+WaziOOPP95VSUAYI0iDOdvBLzPUB+YXAJgHN8lgjMHFew0RwLnmiHsO1D5mwwysIVUu/PV6FQERSIaABHAyHOWlEQhIADcC9Aq9ZbkJYGrG8rM5qQKkQpCGEWdshuErJIQFcFJ+4u7dUAGMH6KvRFNJG0G05muUQqMk2rvvvutKqp166qnuiwLCFwGMEL7vvvtcJQ1EMl/0mGfPyt8X0cw4EMdE+cn3jrJgbm4xBXCwWkW4XFvUuNQmAiJQHAISwMXhKq8lICABXALIVXKLchPAYGWbXxZeUYGCjSH8Qq8wcl+pgvawAKYtKT/4ChvVJ8aOHeua77777tSmHeF+wfcPP/ywKyk3a9YstytbMBob7Jft2AvFP//800V1SYPo1KmTWxSHbxb/kWZBigqbm7C4LapsGlUUfGk1H3mNujd5ueTnYsUUwMHSdnHl76LGpzYREIFkCUgAJ8tT3kpIQAK4hLAr/FblKIDJWfXb9cbVeGWTDOrL+s06ogRwUn6ipphqBOxMR374M888k6pJG9XXt7FtM5uKYGyFTJQ2H1txxRWNsnUY4pRFicFKCORok97AYkmEL9b7nxrPlE7zRoSdRXkszgte68/7V/hSvYIqElgxBTD1j/nSwtbXRKNZ5McOcjIREIHSEpAALi1v3S1BAhLACcKsclflKIApATZo0CBHnjJa5LOGo8DUiA1Ww4gSwEn5ifsIPPLII8aOZog0oq3kZ2cyRDtislWrVm6hGfn5LDaLM0qRde3atd4mD4hWIrtsMc1iMfqQDsKubpgvVUcqSbdu3VzeL3m8pEcEjUWGbHfMIjKir1RECRu7rJFH7K2YAph7UG7N1zNmIabf+c7fP/zKHLOgMGoXu3BfvRcBEciNgARwbpzUqwwJSACX4aSU6ZCSFsCUH+Mn96BRlcALWtIFgjVq6UcqQFgIsmMaog0j2kmFABYjIiLJZQ1vkhAlgLk2KT/4Ctu2225rV111lWueMmWKKwFGVQwv1idMmFCvhB7jPPufTS6wadOmuYVnRGC//fZb18ZiOURpr169DP8I5qjSYOT5BjcoYYviyZMnOx/t2rVzOb++Zi6RXsR22HzuMO2kc1ARwucBUwsYIUo5NcbGuLBiC2BEPYv3uD/GMRFtyvGR3kF0mHQPnp3PAQvtyIf+5JNPXH/9EQERKJyABHDhDOWhkQhIADcS+Aq8bdICOBjByxUHopEIatBYZEaOr//pnXMIRgQwRqkuIpj8tI/FCeCk/LibhP4gMBHzCLAo85UYgudYnEfkGnFJJNcb0VfOsUguaMOHD48UwEHOVHDwKSP+WvKCe/bs6d7G5SjzZQX/HTt29Jc5scu4PGcW2rH5xoABA1yfYgtgbkJEm+gv0XVvfEmizBviHk5BkwAO0tCxCBROQAK4cIby0EgEJIAbCXwF3rZcBTAoETvkt/Izt49m0k40kI0b2CaZvFosTgBzLik/+Ioy8pSJ1iLcSFvwFiWA/Tm2/WVLaURq1OYY1HseMWKEDR061KU5+Ov8K8/O5hcYr5QQC1pwUwkiyAjdKCPvlnxkxh80KkOQY036A9ssszUxVgoBzH0Q4aRf8AWHlJGwUVebnGYixKSiEB2WiYAIJENAAjgZjvLSCAQkgBsBum5ZNAILLrigq3bAK7vDZcu1jRtIUn7i/OfTzk/6nTt3dmkPCGFKpE2dOtX9k4+/fK+hbjKpFwhiUjfILc63SkW+Y4i7jjExNn4NIApMKgxRb0S6TAREIHkCEsDJM5XHEhGQAC4RaN1GBERABERABKqMgARwlU1oLT2OBHAtzbaeVQREQAREQASSIyABnBxLeSoxAQngEgPX7URABERABESgSghIAFfJRNbiY0gA1+Ks65lFQAREQAREoHACEsCFM5SHRiIgAdxI4HVbERABERABEahwAhLAFT6BtTx8CeBann09uwiIgAiIgAjkT0ACOH92urKRCUgAN/IE6PYiIAIiIAIiUKEEJIArdOI0bDMJYH0KREAEREAEREAE8iEgAZwPNV1TFgTYNYttTjGKxc+ePbssxqVBiIAIiIAIiIAIlDcBCeDynh+NTgREQAREQAREQAREIGECEsAJA5U7ERABERABERABERCB8iYgAVze86PRiYAIiIAIiIAIiIAIJExAAjhhoHInAiIgAiIgAiIgAiJQ3gQkgMt7fjS6DASaN29udXV1rsekSZNs5syZGXrrlAiIgAiIgAiIgAj8S0ACWJ+EiiWgMmgVO3UauAiIgAiIgAg0KgEJ4EbFr5sXQkACuBB6ulYEREAEREAEapeABHDtzn3FP7kEcMVPoR5ABERABERABBqFgARwo2DXTZMgIAGcBEX5EAEREAEREIHaIyABXHtzXjVPLAFcNVOpBxEBERABERCBkhKQAC4pbt0sSQISwEnSlC8REAEREAERqB0CEsC1M9dV96QSwFU3pXogERABERABESgJAQngkmDWTYpBQAI4nmrTpk1tvvnmcx2oj6wayfGsdEYEREAERKD2CEgA196cV80TSwDHT+Xyyy9vQ4cOdR2uvPJKu+aaa+I764wIiIAIiIAI1BgBCeAam/BqelwJ4PjZlACOZ6MzIiACIiACIiABrM9AxRKQAI6fOgngeDY6IwIiIAIiIAISwPoMVCwBCeD4qZMAjmejMyIgAiIgAiIgAazPQMUSkACeM3WrrrqqdenSJdWw+OKL26GHHureP/PMMzZq1KjUOX/wySef2EsvveTfutcdd9zR5p13Xvvzzz/tgQceSDsX9WallVay7t27u1PPPfecff7556luG264oTGOv//+2wYNGuQW5dG2xhprWOfOnW3ChAn25ptv2tNPP20zZsxIXZfpYIEFFrB1113X3ZP7sthv/Pjx9t5779nIkSPtr7/+ynR56lynTp1sp512sg4dOtgSSyxhf/zxh3377bc2ZcoUe/bZZ+2tt95y405doAMREAEREIGqIiABXFXTWVsPIwE8Z77PPvts22effeY05HD04IMP2imnnJLWs1+/frbLLru4Nl7feOONtPPhN4888ogtu+yyrsrEWmutZT/99FOqyx133GHrr7++E5II5QEDBliPHj1S5/0BIrhv37723Xff+abIV4Rz//79rX379pHnX331VTv66KPtq6++ijxP41xzzWXnnXee7brrrk48x3VEBB944IFxp9UuAiIgAiJQ4QQkgCt8Amt5+BLAc2Z/9913t4022ijVQKQUwYgR6Z00aVLqnD944YUX7O677/Zv3evKK69sCGPsvvvus9NPP90dR/3p1q2bDR8+3J1CCB9zzDFp3YICGJGLCGYsL7/8sjVp0sQQzERiMSLHO+ywg02bNi3Nh39z0EEH2cknn+wELBFlItdEkJs3b+5E9QorrOC6cn2vXr1s6tSp/tK01+OOO84OP/xw1/bzzz/bU0895e7drFkzNxbE/FJLLeX877nnnmnX6o0IiIAIiED1EJAArp65rLknkQCOn/JCcoBHjBhhSy+9tP3yyy9ORMelJ5x22mmpKOnee+9t48aNSxuQF8C+EUF9xhln2OzZs10T6QtXXHGFbbPNNu791VdfbVdddZXvnnplLI899piL2BLdRcSGUzeIVl944YWuD+M/7LDDUtf7gxYtWti7777r+iDEiQIHI9a+H8IcsX799df7Jr2KgAiIgAhUGQEJ4Cqb0Fp6HAng+NkuRAAfcMABqcjv8ccfbw8//HC9GyFex44da+3atXN5sxtvvHG9nNmgAJ44caJtvvnm9frgB+Hctm1bF/1db7317Pfff0+7n/dDfi+ilfzcKCOdo0+fPu4U0duwSA4yufzyy+26666LcqM2ERABERCBGiAgAVwDk1ytjygBHD+zQbHX0I0wWrdu7UQpEVPEKdHdsCF4b7nlFtccJya9cKUTucU333xz2I17H4wkk57wxBNPpPqx0O3RRx9174cNG2bHHnts6lz4YKGFFkqlV9x444126aWXpnVZc801beDAga6NiPKRRx6Zdl5vREAEREAEaoeABHDtzHXVPakEcPyUFiKA8UoqwrbbbusitlRuCFZ34Py1115rW221lau6wEK3qIVnQQFMfu8777zDpfVsk002SYnjiy66yG699dZUn+23396lSdBAVQoqTXgjjxjzrxyfddZZLppMv/3335+mlC288MJO0NOfKhcIYHKAfUpGqqMOREAEREAEqp6ABHDVT3H1PmBQAH/44Yf1fjoPPvn06dONhWGFGj/Vf//994W6sS+++MKOOOKIgv3EOShUAK+99tquagP+EcPk53ojQvziiy+6BWiZqiUEBTCly7788kvvIu2VBWyDBw92bSzKO+ecc1Lnqepw1FFHpd7nesC9uGfYLrjgAmPBoDcqT7zyyiv22muv2dtvv+2qXkgQezp6FQEREIHqJSABXL1zW/VPFhTA2R6W+q4dO3bM1i3r+ZkzZ9rcc8+dtV+2Dp9++qkR+SyWFSqAiZJSPxhmn332maswQfUFjJQIL1JZbMaisygLCmAqRlBrN8qoxTt69Gh36sknn7RDDjkk1Y1FckSBsQ8++MAtzEudzHDw448/2sEHH1yvxzzzzGPkNffu3dtVlAh34MsNIvyGG27IuaZw2Ifei4AIiIAIlD8BCeDynyONMIZAUACzMIqqBXHGwio2eCjUqEEbF8lsiO+vv/7aTjzxxIZc0qC+hQpgboa4RSxie+21l4v6cjxkyBDr2bOni4QTKSadIMqCApgob9z81NXVuU0s8EG+L1Ffb+eff77tscce7i11eYk4J2GkQ5DHvM466xil38K1hcPjSOKe8iECIiACIlA+BCSAy2cuNJIGEggK4O22287tCNZAF1XbPQkBvMgii9jzzz/vyoYhek844QRXHs1HfFkEd/HFF8cyDArgTTfdNLIWMRdTr/jee+91flgox4I5b4heFslh1AF+6KGH/KlEXym1tt9++7n0CDbLwEiVID1CJgIiIAIiUH0EJICrb05r5okkgOOnmg0d2JwCi6uvG3/1nDM33XSTIV6JoCNUyVv2qQWUNaOebpwFBTDiEjEdZWy/fNlll7lTLGK75557Ut3Y3MMviourNpHqnMAB20cj9DGqSFBNQiYCIiACIlB9BCSAq29Oa+aJJIDjp5r6vL4O7qBBg+w///lPfOcMZ4LlzvBB5YRFF13UXn/9dVeTN8OlFhTAVHA49dRTI7t7kc1J0h3YKc4bUWjygynJRi7yZpttFptL7K8p5DX4xYE8YC/MC/Gpa0VABERABMqPgARw+c2JRpQjAQngzKDee+89Y9EXm1BsueWWeS3qYqOKMWPGONHLrmmtWrVyN2XTCb9lctwoggL4119/tS222KJe/nTnzp1d3V/uw3j9gregz+D2xQhShGkmW3311Y2qICyECxp5voyDLZDjbN9993Wl1DhP9Qm/1XNcf7WLgAiIgAhUJgEJ4MqcN436HwISwJk/Bmzli+jEqOjAJhCUX/OL1igN9+2332Z28s/ZoAClM+kQiMzffvst47VBAUxHagmzkQULFqkyscoqq7gSayxIw4gus0FF2Fi8OHLkSFt88cXdKY6vueYa+/jjj23WrFkuOtypUyeXosFivS5durhd58LpGWyXTPUK7kEuMVUlvEhu3ry5UauYFAzuBxtSPL755pvwcPReBERABESgCghIAFfBJNbqI0gAZ555RCF5wPPNN19kR0QgC8uyGWXKqL7gN5zwC+KyXecFMOXTyKc96aST3CUIaHwRnfZGmsaZZ54ZuylF165dXToCKQre2BqZsmWke/iFa/5cVH4yAji4wI6+06ZNc0KetI5mzZq5yxkvpdjYJEMmAiIgAiJQnQQkgKtzXmviqSSAs08z2wMj5lZddVUXQUUseiGbqwDmLghUor7Ynnvumcovdg0xf4ICmCoLRHhZQNeyZcvUFYhhav3edtttqba4AwQqpdmo4etTMYJ9qdFMugYRYoQ/0eGgLbPMMta3b1+jdBuCN8peeOEFF5VmYwyZCIiACIhA9RKQAK7eua36J5MALs0UswBt7Nix1qZNG5s8ebLbwMNvipFpBGEBTF9yfSnRRu7vhAkT7KOPPsorN5nFcQjaJZZYwkWBqc08adKkjLsBBsfKZ4dr8YNNnTrV2Cwlakvn4HU6FgEREAERqA4CEsDVMY81+RQSwKWZdhamEaXFclmE5kcVJYD9Ob2KgAiIgAiIQGMSkABuTPq6d0EEJIALwpfTxaQdUAmBFAa2Ml5vvfVyWjiHcwngnBCrkwiIgAiIQCMQkABuBOi6ZTIEJICT4Rj2QpoCi8rWWmst22effdyWwfSh7Bnlz3I1CeBcSamfCIiACIhAqQlIAJeauO6XGAEJ4MRQpjkaNmyYLbfccmlt1OhFDFMLOFeTAM6VlPqJgAiIgAiUmoAEcKmJ636JEZAATgxlmqOgAGbjiHHjxrlyab5mblrnDG8kgDPA0SkREAEREIFGJSAB3Kj4dfNCCEgAF0Iv/lpq7VI7GPHLZhHU283HqNLQunVro2LEq6++mo8LXSMCIiACIiACRSEgAVwUrHJaCgISwKWgrHuIgAiIgAiIQPURkACuvjmtmSeSAK6ZqdaDioAIiIAIiECiBCSAE8UpZ6UkwI5mflcxdhSbPXt2KW+ve4mACIiACIiACFQoAQngCp04DVsEREAEREAEREAERCA/AhLA+XHTVSIgAiIgAiIgAiIgAhVKQAK4QidOwxYBERABERABERABEciPgARwftx01f9v78zDrpreP/w0kZJ4ESKuJCoZUkmSUIjMU6aMFSFDpEzJUGRIGbrMc4Yy04WLMmXIeCFFhsxkHkrTW3591u+7j71P+7xnn84577vPPvfzxzl7r7X22mvd6/zxOc9+9rMgAAEIQAACEIAABEqUAAK4RBeOYZvVq1fPWrRo4VDMnj3bFi5cCBYIQAACEIAABCCQlQACOCsiGsSVAGnQ4royjAsCEIAABCAQbwII4HivD6OrggACuAo4VEEAAhCAAAQgkJEAAjgjGiriTgABHPcVYnwQgAAEIACBeBJAAMdzXRhVBAII4AiQaAIBCEAAAhCAwHIEEMDLIaGgVAgggEtlpRgnBCAAAQhAIF4EEMDxWg9GkwMBBHAOsGgKAQhAAAIQgECKAAI4hYKDUiOAAC61Ffv/8Z500knWsWNHd9KvXz+rrKzMOpEXXnjB6tatG9que/futmjRotA6CiEAAQhAAAJhBBDAYVQoKwkCCODiL1OdOnWsYcOG7kbKs1yIXMvXXXed7bnnnq7P1q1bRxKvs2bNMo0lzNq0aVOQcYX1TRkEIAABCCSTAAI4metaFrNCABd/mdu2bWuPP/64u9GYMWNM4jVfWxEB3K5dO6tVq1bq1oMGDbLOnTu7cwRwCgsHEIAABCAQkQACOCIomsWPAAK4+GtSDAHct29f22abbdzgBw4caEuWLMl5Itdee6316tXLXYcAzhkfF0AAAhAoewII4LL/CZQuAARw8deuGAK4EKNGABeCIn1AAAIQKF8CCODyXfuSnzkCuPhLiAAuPmPuAAEIQAAC1U8AAVz9zLljgQgggIMgt912W2vWrJkrfOyxxzKGFvTo0cMaN25sCxYssEmTJgU66dChg2266aapsqZNm9qAAQPc+ZQpU0zZGNLt888/t2nTpqUXp86VpaFBgwapc/+B7r906VJ/UaRjPMCRMNEIAhCAAAQyEEAAZwBDcfwJIICDazR69Gjbd999XeGWW25p8+bNCzb439lTTz1lyr4wZ84c23777QNthg8fbn369AmUZTuZOHGiDR06NGOzF198MSXM0xtFzQKRfh0COJ0I5xCAAAQgkAsBBHAutGgbKwII4OByFEIAH3roobbzzjunOm7UqJF16tTJncvTO3v27FSdd/Dqq6/a3Xff7Z0u963sEU2aNEmVt2zZ0ioqKtw5AjiFhQMIQAACEKhGAgjgaoTNrQpLAAEc5FkIARzs0awYMcArkgYtfVx4gNOJcA4BCEAAArkQQADnQou2sSKAAA4uBwI4yIMzCEAAAhCAQCYCCOBMZCiPPQEEcHCJEMBBHpxBAAIQgAAEMhFAAGciQ3nsCSCAg0uEAA7y4AwCEIAABCCQiQACOBMZymNPwC+AZ82aZfPnz8845r///tv0Qle+tuaaa9qvv/6abzf2/fff2ymnnJJ3P/4OEMB+GhxDAAIQgAAEMhNAAGdmQ03MCfgFcLahfv3117bhhhtma5a1fuHChbbyyitnbZetwZdffmnKj1tIQwAXkiZ9QQACEIBAkgkggJO8ugmfm18Av//++zZ37tyMM5Z3eJVVVslYH7VivfXWsx9++CFq84ztlIN38ODBGetXpAIBvCLUuAYCEIAABMqRAAK4HFc9IXP2C+C9997bZsyYkZCZrdg0ogrgqVOnmoR82EYY6XcmDVo6Ec4hAAEIQCAJBBDASVjFMp0DAji48MOGDbOjjz7aFe6444723XffBRssO6tTp47NnDnTfUcRwG3atLEnn3zS9aPcu2PHjl2uz1wLCpEHeOTIkda7d2936/bt29sff/yR6zBoDwEIQAACZUwAAVzGi1/qU0cAB1ewf//+NmTIEFeoHd3eeuutYINlZ9rV7b777nPlUQTwWmutZdOmTXPt77//fjv//POX6zPXgkII4AEDBthZZ53lbq3tn6dPn57rMGgPAQhAAAJlTAABXMaLX+pTRwAHV7BXr14mL60sTKzWrl3b7rzzTuvSpYtrE0UAq+FHH31k9evXty+++MJ69uxpS5Yscdev6EchBHCPHj3spptuckO45557bPjw4Ss6HK6DAAQgAIEyJIAALsNFT8qUEcDBlWzQoIG9+uqrttpqqzmROmrUKJswYYLNmzfPNt54Y+cd3mGHHVy6uMaNG0eKAdYdxo0bZ7vvvru72ZQpU2z8+PEujVtlZaUrU4q5n3/+2R2nf6y99trpRTZixIhUBoyuXbva4sWLA23U34IFCwJl6ScS808//bRtsskmrkqC/6WXXkqlwtOc33vvvfTLOIcABCAAAQg4AghgfgglSwABvPzSDRo0yE4++eRAxaJFi2yllVaypUuXutzDAwcOtNatW0cWwBtttJGLA27YsGGgX+/koYceSoVeeGX6Vryx8jPnasqO8cgjj2S9TOEc8gKH5Xf++OOPTR5xDAIQgAAEIBBGAAEcRoWykiCAAF5+mWrVqmWnnnqqSeTq2DO9EKfQg4kTJ9pTTz2VkwBWHxUVFXbiiSdahw4drGnTpqbYYK//mhLAGtf6669vEv1bbLGF6fcg0S1DADsMfEAAAhCAQAYCCOAMYCiOPwEJnsmTJ7uBkgYtuF5rrLGGKYODhOq7775r33zzTbABZxCAAAQgAIEyJoAALuPFL/WpI4BLfQUZPwQgAAEIQKBmCCCAa4Y7dy0AAQRwASDSBQQgAAEIQKAMCSCAy3DRkzJlBHBSVpJ5QAACEIAABKqXAAK4enlztwISQAAXECZdQQACEIAABMqIAAK4jBY7aVNFACdtRZkPBCAAAQhAoHoIIICrhzN3KQIBBHARoNIlBCAAAQhAoAwIIIDLYJGTOkUEcFJXlnlBAAIQgAAEiksAAVxcvvReRAII4CLCpWsIQAACEIBAggkggBO8uEmfmnYia9CggZvm/Pnz3Va/SZ8z84MABCAAAQhAIH8CCOD8GdIDBCAAAQhAAAIQgEAJEUAAl9BiMVQIQAACEIAABCAAgfwJIIDzZ0gPEIAABCAAAQhAAAIlRAABXEKLxVAhAAEIQAACEIAABPIngADOnyE91BCBevXqWYsWLdzdZ8+ebQsXLqyhkXBbCEAAAhCAAARKiQACuJRWi7EGCJAGLYCDEwhAAAIQgAAEIhJAAEcERbP4EUAAx29NGBEEIAABCECgFAgggEthlRhjKAEEcCgWCiEAAQhAAAIQyEIAAZwFENXxJYAAju/aMDIIQAACEIBAnAkggOO8OoytSgII4CrxUAkBCEAAAhCAQAYCCOAMYCiOPwEEcPzXiBFCAAIQgAAE4kgAARzHVWFMkQgggCNhqtFGL7zwgtWtWzd0DN27d7dFixaF1kUpPOmkk6xjx46uab9+/ayysjLKZVnb3HvvvbbqqqvajBkz7Nxzz83aPq4NmjZtaiNGjHDDmzRpkj300ENxHSrjggAEIFDtBBDA1Y6cGxaKAAK4UCSL18+sWbOsTp06oTdo06ZNXrmbr7vuOttzzz1d361bt85LTPsH+O6771rjxo3t7bfftt69e/urinrcoEGD1J+Fv/76K+97bbLJJvbss8+6fm688Ua78sor8+6TDiAAAQgkhQACOCkrWYbzQADHf9HbtWtntWrVSg100KBB1rlzZ3eOAE5hcQe33HKL7bLLLvbvv/+axGu+hgDOlyDXQwACSSaAAE7y6iZ8bgjg0lvga6+91nr16uUGnq8A7tu3r22zzTaur4EDB9qSJUsKAqSmPMCFFsDrrbeeXXDBBY6JPMGPP/54QfjQCQQgAIEkEEAAJ2EVy3QOCODSW/hCCuBizT4pArhYfOgXAhCAQBIIIICTsIplOgcEcOktPAI485oV2gOc+U7UQAACEIAAApjfQMkSQAD/t3SHHHKIe4Hqzz//NL3xn8123XVXW3vttV286YQJE5YLH1Dc7pZbbmldu3a1DTfc0NZZZx33Mtunn35qn3zyiX3wwQcuS0K2+6TX5yOAlTVCL4qFmea8dOnSsKrlypSVQvPfaqutrG3btvbVV1/ZW2+9ZS+++KL98ccfFtUDvPrqq9tOO+3kOK277rq21lpr2Y8//uj46OW/N954w/7+++/l7q+ClVde2Q488MBA3ZFHHmmbbbaZK/NCFwINlp089thj9s8//6QXu/NmzZrZ1ltvHVr32Wef2cyZM0Prwgrr169v4t2qVSvTC4a1a9d216sPZfaYN29e2GWuTBk09tlnH3es9u+9956J1XbbbWedOnVyc5w9e7ZjrvlgEIAABGqCAAK4Jqhzz4IQQAD/h/H222+3bt26OSG7/fbb2y+//PJfZdpRw4YN7c033zSJHImTgw46KNBCIkVCVYKuKpPHUpkFcom9zUcAS6BK5IVZ1CwQEmLjxo1zQiy9n88//9wOO+wwe+6557Jmgbj++uttt912y5jhQn1//fXXdvLJJ4f+UVhjjTVclon0MWQ732GHHeyHH34Ibbb//vvbVVddFVqXSxaIFi1amOa36aabhvYl8aqY60yCeqONNrIpU6a4a2+77Ta7++67beLEidakSZPl+nvmmWfsrLPOsvnz5y9XRwEEIACBYhJAABeTLn0XlQAC+D+8++67r40ePdoVXHTRRU50/FcbPNpvv/3s6quvdoXDhw+3e+65J9Bg7733tjFjxriy77//3uQ9lJd07ty5ptyyXbp0SYljeU6POuqoyCnI8hHAGpNfRLVs2dIqKircOKMIYHkmn3jiCZNAk3377bfOS7tgwQLbdtttneD7+OOPXf0qq6xSZRq0559/3po3b+7SuMkjLj7ffPONNWrUyDQueTtlCxcutDPOOCOVjswVLvvQWLw18MrkvfX+dKj/MBs6dKj9/vvvYVXOWz9gwIBUneYgL74sqgCWV3z8+PGma2Vae6WD05+c9u3bO4+wyjWv4447zvHTud/8AlgeXs1LHnJ51r/88kv3REF/0uRVll122WV26623+rvgGAIQgEDRCSCAi46YGxSLAAL4P7IKDZBXV8LlnXfeMYVEZDJ55fToXqJG3t50QaXcunvttZcT0XqMn266x+WXX+7aqG7IkCGRN1nIRwCnjyPXPMAnnniiDR482HWjx/jaSMO/Ecd5553nRJ13n6ryAN9111322muv2YMPPujCJrxrvG+JRf2xUKiDhLHSm2UL0Sh0DPCKpEHTmCVOZRrPqFGjXJiMN69TTjnFCXqdKwxGXud08wtg1Wn+/fv3N4WFeLbjjjuafocSwfqT5f0evXq+IQABCBSbAAK42ITpv2gEEMBBtNdcc42LvVQeWQkMCYt0UwiAhLI2p1BIwfHHH5/eJNL5aqut5gSgxHBVQjG9s5oSwBKir7zyiq255prOky0Pbdhj90cffTTlNc1lXunz1Lke7Xse2T59+jheYe28spoWwB06dHCCXuOZNm2aHX744d7QAt833XST9ejRw5UpFZ3+TPgtXQAfe+yx9vLLL/ubuGN/P4o3lncYgwAEIFBdBBDA1UWa+xScAAI4iFReNHnVZPLQSlClm2JcL730UlesR/MKCVhRe/LJJ025fH/77bfUlsTZ+qopASyBdfPNN7vhPfDAAyZvb5j5+eQrgCUSJfJkF154oWmL5aqspgXwxRdfbEcccYQb4umnn25a3zDz/870+9HvyG9+ASxRK/ZhJvF8zjnnuCqJbYluDAIQgEB1EUAAVxdp7lNwAgjgIFJ5dSUi9ILVjBkzTLG86Xbfffe5sAd5PxX3mimjgHedHlErW4RifxXHudJKK3lVJgEjAVxZWZnKXpCqzHBQUwJYccoSobKqhL//NxVVAOulQm06IUbysHs7322wwQamne9kivfVy3dVWU0LYO9FSo2xY8eO7o9N2Hjr1atnipWWKa734IMPDjTzC2DFMp9wwgmBeu/EH2suTmzU4ZHhGwIQqA4CCODqoMw9ikLAL1YUXxj2SNu7sdJR6QWlfE2P0H/99dd8u3HhCYqnLLTppTY9bpfJA6k39j1TKrOpU6e6uEuJDU+cefX+bwm5Y445xvWl42ymeFOFXmSzmhLA8jRKsMuqCkeQmFVsqyybAFZGBsUVe1s7u4syfChe2XuxMEMT57Gvya2QtVuc1lGx4UrHVtV6Ks5cv4s5c+akYoa9efkFsGKK9ZsMM6Wi08t5Mnnk5ZnHIAABCFQXAQRwdZHmPgUn4BfA2TpXSirls83X9Pa74knztaoeDefTd7t27VIvpI0dO9alM/P601v73qN/Hb/00kteVeBbnku9vS9Pskwvb/38889O7Pj/ZChNltdGx1HSodWUAPbfd4899gi8kBWY/LKTjz76yKWIq0oAn3vuuYH4aeXFVQ5ghYN4L7sp08Pmm2/uur/hhhtSWTrS7+ed17QH+MMPP3R5lsNErTdG79sTy5qrMnDoKYBnfgGskJyRI0d6VYFvBHAABycQgEA1E0AAVzNwblc4AvJoKg9tFJNw81I7RWmfqY0edWfKw5pmJQmvAAAIjElEQVTpmrByiQwvI0FYfT5lXr5c5bVVrlrPvBe8JNL0EliYYNXj7UceecSFNug6CRg9Gpe4S7c777zTpd5SedwFsFJteZkxlAZOYi/MFPKhx/sKJ8kkgJUlQx5dmTzs6lsvgnnC1+vX/2ekFASwwmeUhk2bgSiLRVXm/cb0h1Ai3+8tRgBXRY46CEAgLgQQwHFZCcYBgQIRUGiDNmCQKc5S8cDyfntv62tjAuUKDjO/aFM+2GHDhoU1c2WTJ082eeFlcRfA2rhBL3bJwjIXuIplHwpxUZYMWSYB7Al//amSN1lpvsJMu6EpM4esFASw/vgoD7AsW15lz0uuPwBeRgh34bIPBLBHgm8IQCDOBBDAcV4dxgaBFSDgz/+qLARXXHGFE8RezK92ftMOcGGmLADKBiDTcVgeYNVpO2GJIH3LogpgPQ7v3bu3u0ZeRnkbV9RyyQN8wAEHpJ4WVJWRQQJQQlCWSQBLIHtCWVkjMtmpp55qp512mquOIoC9tGDypmozDb9XNdM9qir3/w6ibITh55keP+6/j7zEXsYGxZQfffTR/moEcIAGJxCAQFwJIIDjujKMCwJ5EPBSlGm3M6Wtevrpp52oUiz0zjvvnLFnv6e0KqF86KGH2ogRI1L9RBXAyour/Lgy7V43ffr0VB+5HvgFWzaPpbJVeGm9JN4y5bj1x/aGCWCFRsijLuGv3LbKcRtmCiWRh3z99dd31VEE8CWXXJIal0JUFHedj+UqgCXWJdplYpvppT1/LPkdd9yRSqvnjRUPsEeCbwhAIM4EEMBxXh3GBoEVJODPsaoX3zyxev3116cey4d1rUf6aiOTAJIQSjd5P5X/VWnRPIsqgP25cavKEOD1W9V3LgJY/SikQ8JSnlWJb3mw/SbP5jPPPJN6sS9MAKu92shDK++1/kz89ddf/m7csXaZO/PMM1PlUQSw0oWdffbZ7ppCpAXLVQBr/ortVay8YtS1G6Dixf2mTCrKICKRqxhy5fhNDwFBAPuJcQwBCMSVAAI4rivDuCCQBwF/yjP/C4B6KU4vx2WyJk2aOM+ltlbWNsGKAX744YfdC17169d3OYT10pdyA0sAVlRUuK6iCmC9ZCZvtMSZ7P7773fZKLzsEsqmEBaeofulm0S9t8lC165dbfHixYEmSn23YMGCVJl2x5PHUqaxKx+wQjwk5PQil3L1brzxxqn2mQSwP6WatkOW19gTgcoFrPhrecjlwfXGHUUAy4utPxZipPFJ4L///vv2559/psb01Vdfhb68qPVSCje/NW/e3PFVmeK+0/MQa97pAtfvAf/iiy/ci5reC4OtWrVyG6zImy6bMGFCaiMLV/C/DwSwnwbHEIBAXAkggOO6MowLAnkS0M5j/hy1CjeQ5zOb+XdDU1sJ4Z9++slt9qAQAGU7GDJkiPXs2TMlQKMKYPXXqVMnt0NaWF5mZWDo1auXmqVM91Se51xNWTa8eF7vWo27f//+3qmbm4SzJx4lEhX73Lhx44wxwBKbkyZNCqTVk9hVWISXFk6sR40aZfJyy6IIYLXz78am83ST0A/b4tr/4mP6NZnOFR7TrVu3QLXmrZRxynHsmf6cyGuueXumPMDycv/yyy9eUeobAZxCwQEEIBBjAgjgGC8OQ4NAPgS0Q5e2RPZMHlOlNItiyh4hb6A8wn5TDLHyCytPsLYW9jywuQhg9afYWIm2LbbYwmWSkMiVFVsA6x56CU9zU55ezyTylN3hqquucrubVSWAdY24KLREYQJ+Uz+vv/66C39o1qxZaqvpqAJYfWkzDG3WoXzMSrvnT99XbAGs+8sDLXGrTT7891adPOp33XWX85aHpdFTGwSwKGAQgEDcCSCA475CjA8CNURAG34oVKFFixbmhSakPzKvoaHlfVttV6x5tW3b1hRWoMf8/s0cot5AcdCKB5Ygnjlzpn3yySehIQpR+4tTOwlhpc9TaIaONT9t4JKe7zhOY2YsEIAABKISQABHJUU7CEAAAhCAAAQgAIFEEEAAJ2IZmQQEIAABCEAAAhCAQFQCCOCopGgHAQhAAAIQgAAEIJAIAgjgRCwjk4AABCAAAQhAAAIQiEoAARyVFO0gAAEIQAACEIAABBJBAAGciGVkEhCAAAQgAAEIQAACUQkggKOSoh0EIAABCEAAAhCAQCIIIIATsYxMAgIQgAAEIAABCEAgKgEEcFRStIMABCAAAQhAAAIQSAQBBHAilpFJQAACEIAABCAAAQhEJYAAjkqKdhCAAAQgAAEIQAACiSCAAE7EMjIJCEAAAhCAAAQgAIGoBBDAUUnRDgIQgAAEIAABCEAgEQQQwIlYRiYBAQhAAAIQgAAEIBCVAAI4KinaQQACEIAABCAAAQgkggACOBHLyCQgAAEIQAACEIAABKISQABHJUU7CEAAAhCAAAQgAIFEEEAAJ2IZmQQEIAABCEAAAhCAQFQCCOCopGgHAQhAAAIQgAAEIJAIAgjgRCwjk4AABCAAAQhAAAIQiEoAARyVFO0gAAEIQAACEIAABBJBAAGciGVkEhCAAAQgAAEIQAACUQkggKOSoh0EIAABCEAAAhCAQCIIIIATsYxMAgIQgAAEIAABCEAgKgEEcFRStIMABCAAAQhAAAIQSAQBBHAilpFJQAACEIAABCAAAQhEJYAAjkqKdhCAAAQgAAEIQAACiSCAAE7EMjIJCEAAAhCAAAQgAIGoBBDAUUnRDgIQgAAEIAABCEAgEQQQwIlYRiYBAQhAAAIQgAAEIBCVAAI4KinaQQACEIAABCAAAQgkggACOBHLyCQgAAEIQAACEIAABKISQABHJUU7CEAAAhCAAAQgAIFEEEAAJ2IZmQQEIAABCEAAAhCAQFQCCOCopGgHAQhAAAIQgAAEIJAIAgjgRCwjk4AABCAAAQhAAAIQiErg/wAGM6KjR5LE0AAAAABJRU5ErkJggg==;" parent="1" vertex="1">
          <mxGeometry x="220" y="90" width="336.11" height="402" as="geometry" />
        </mxCell>
        <mxCell id="clUydpwqfqvUc8bR2Yav-15" value="" style="endArrow=none;dashed=1;html=1;rounded=0;" parent="1" edge="1">
          <mxGeometry width="50" height="50" relative="1" as="geometry">
            <mxPoint y="560" as="sourcePoint" />
            <mxPoint x="820" y="560" as="targetPoint" />
          </mxGeometry>
        </mxCell>
        <mxCell id="TWxnpPS1QbsQpwc__-Ks-11" value="AuthController" style="swimlane;fontStyle=0;childLayout=stackLayout;horizontal=1;startSize=26;fillColor=none;horizontalStack=0;resizeParent=1;resizeParentMax=0;resizeLast=0;collapsible=1;marginBottom=0;" parent="1" vertex="1">
          <mxGeometry x="10" y="600" width="250" height="78" as="geometry" />
        </mxCell>
        <mxCell id="TWxnpPS1QbsQpwc__-Ks-12" value="apiRegisterUser(req, res): User" style="text;strokeColor=none;fillColor=none;align=left;verticalAlign=top;spacingLeft=4;spacingRight=4;overflow=hidden;rotatable=0;points=[[0,0.5],[1,0.5]];portConstraint=eastwest;" parent="TWxnpPS1QbsQpwc__-Ks-11" vertex="1">
          <mxGeometry y="26" width="250" height="26" as="geometry" />
        </mxCell>
        <mxCell id="TWxnpPS1QbsQpwc__-Ks-13" value="apiLoginUser(req, res): User" style="text;strokeColor=none;fillColor=none;align=left;verticalAlign=top;spacingLeft=3;spacingRight=4;overflow=hidden;rotatable=0;points=[[0,0.5],[1,0.5]];portConstraint=eastwest;spacing=1;fontSize=11;" parent="TWxnpPS1QbsQpwc__-Ks-11" vertex="1">
          <mxGeometry y="52" width="250" height="26" as="geometry" />
        </mxCell>
        <mxCell id="TWxnpPS1QbsQpwc__-Ks-29" style="edgeStyle=orthogonalEdgeStyle;rounded=0;orthogonalLoop=1;jettySize=auto;html=1;exitX=1;exitY=0.5;exitDx=0;exitDy=0;" parent="TWxnpPS1QbsQpwc__-Ks-11" source="TWxnpPS1QbsQpwc__-Ks-12" target="TWxnpPS1QbsQpwc__-Ks-12" edge="1">
          <mxGeometry relative="1" as="geometry" />
        </mxCell>
        <mxCell id="TWxnpPS1QbsQpwc__-Ks-22" value="AuthService" style="swimlane;fontStyle=0;childLayout=stackLayout;horizontal=1;startSize=26;fillColor=none;horizontalStack=0;resizeParent=1;resizeParentMax=0;resizeLast=0;collapsible=1;marginBottom=0;" parent="1" vertex="1">
          <mxGeometry x="400" y="600" width="230" height="78" as="geometry" />
        </mxCell>
        <mxCell id="TWxnpPS1QbsQpwc__-Ks-23" value="registerUser(user): User" style="text;strokeColor=none;fillColor=none;align=left;verticalAlign=top;spacingLeft=4;spacingRight=4;overflow=hidden;rotatable=0;points=[[0,0.5],[1,0.5]];portConstraint=eastwest;" parent="TWxnpPS1QbsQpwc__-Ks-22" vertex="1">
          <mxGeometry y="26" width="230" height="26" as="geometry" />
        </mxCell>
        <mxCell id="TWxnpPS1QbsQpwc__-Ks-24" value="loginUser(user): User" style="text;strokeColor=none;fillColor=none;align=left;verticalAlign=top;spacingLeft=4;spacingRight=4;overflow=hidden;rotatable=0;points=[[0,0.5],[1,0.5]];portConstraint=eastwest;" parent="TWxnpPS1QbsQpwc__-Ks-22" vertex="1">
          <mxGeometry y="52" width="230" height="26" as="geometry" />
        </mxCell>
        <mxCell id="TWxnpPS1QbsQpwc__-Ks-37" value="callback" style="html=1;verticalAlign=bottom;endArrow=block;rounded=0;entryX=0.036;entryY=-0.077;entryDx=0;entryDy=0;entryPerimeter=0;exitX=1.001;exitY=0.134;exitDx=0;exitDy=0;exitPerimeter=0;" parent="1" source="TWxnpPS1QbsQpwc__-Ks-12" target="TWxnpPS1QbsQpwc__-Ks-23" edge="1">
          <mxGeometry relative="1" as="geometry">
            <mxPoint x="280" y="630" as="sourcePoint" />
            <mxPoint x="360" y="630" as="targetPoint" />
            <Array as="points">
              <mxPoint x="320" y="630" />
              <mxPoint x="390" y="630" />
            </Array>
          </mxGeometry>
        </mxCell>
        <mxCell id="TWxnpPS1QbsQpwc__-Ks-38" value="return" style="html=1;verticalAlign=bottom;endArrow=open;dashed=1;endSize=8;exitX=0;exitY=0.115;rounded=0;exitDx=0;exitDy=0;exitPerimeter=0;entryX=1;entryY=0.098;entryDx=0;entryDy=0;entryPerimeter=0;" parent="1" source="TWxnpPS1QbsQpwc__-Ks-22" target="TWxnpPS1QbsQpwc__-Ks-11" edge="1">
          <mxGeometry relative="1" as="geometry">
            <mxPoint x="300" y="857" as="targetPoint" />
          </mxGeometry>
        </mxCell>
        <mxCell id="TWxnpPS1QbsQpwc__-Ks-55" value="UserModel" style="swimlane;fontStyle=0;childLayout=stackLayout;horizontal=1;startSize=26;fillColor=none;horizontalStack=0;resizeParent=1;resizeParentMax=0;resizeLast=0;collapsible=1;marginBottom=0;" parent="1" vertex="1">
          <mxGeometry x="40" y="388" width="140" height="104" as="geometry">
            <mxRectangle x="40" y="388" width="90" height="26" as="alternateBounds" />
          </mxGeometry>
        </mxCell>
        <mxCell id="TWxnpPS1QbsQpwc__-Ks-56" value="+ username: string" style="text;strokeColor=none;fillColor=none;align=left;verticalAlign=top;spacingLeft=4;spacingRight=4;overflow=hidden;rotatable=0;points=[[0,0.5],[1,0.5]];portConstraint=eastwest;" parent="TWxnpPS1QbsQpwc__-Ks-55" vertex="1">
          <mxGeometry y="26" width="140" height="26" as="geometry" />
        </mxCell>
        <mxCell id="TWxnpPS1QbsQpwc__-Ks-57" value="+ password: string" style="text;strokeColor=none;fillColor=none;align=left;verticalAlign=top;spacingLeft=4;spacingRight=4;overflow=hidden;rotatable=0;points=[[0,0.5],[1,0.5]];portConstraint=eastwest;" parent="TWxnpPS1QbsQpwc__-Ks-55" vertex="1">
          <mxGeometry y="52" width="140" height="26" as="geometry" />
        </mxCell>
        <mxCell id="TWxnpPS1QbsQpwc__-Ks-58" value="+ email: string&#xa;" style="text;strokeColor=none;fillColor=none;align=left;verticalAlign=top;spacingLeft=4;spacingRight=4;overflow=hidden;rotatable=0;points=[[0,0.5],[1,0.5]];portConstraint=eastwest;" parent="TWxnpPS1QbsQpwc__-Ks-55" vertex="1">
          <mxGeometry y="78" width="140" height="26" as="geometry" />
        </mxCell>
        <mxCell id="TWxnpPS1QbsQpwc__-Ks-59" value="Databas ER&lt;br&gt;/*mongodb*/" style="text;html=1;align=center;verticalAlign=middle;resizable=0;points=[];autosize=1;strokeColor=none;fillColor=none;" parent="1" vertex="1">
          <mxGeometry x="60" y="348" width="80" height="30" as="geometry" />
        </mxCell>
        <mxCell id="TWxnpPS1QbsQpwc__-Ks-60" value="AuthRoutes" style="swimlane;fontStyle=0;childLayout=stackLayout;horizontal=1;startSize=26;fillColor=none;horizontalStack=0;resizeParent=1;resizeParentMax=0;resizeLast=0;collapsible=1;marginBottom=0;" parent="1" vertex="1">
          <mxGeometry x="10" y="800" width="250" height="70" as="geometry" />
        </mxCell>
        <mxCell id="TWxnpPS1QbsQpwc__-Ks-32" value="/api/login - post" style="text;strokeColor=none;fillColor=none;align=left;verticalAlign=top;spacingLeft=4;spacingRight=4;overflow=hidden;rotatable=0;points=[[0,0.5],[1,0.5]];portConstraint=eastwest;" parent="TWxnpPS1QbsQpwc__-Ks-60" vertex="1">
          <mxGeometry y="26" width="250" height="22" as="geometry" />
        </mxCell>
        <mxCell id="TWxnpPS1QbsQpwc__-Ks-72" value="/api/register - post" style="text;strokeColor=none;fillColor=none;align=left;verticalAlign=top;spacingLeft=4;spacingRight=4;overflow=hidden;rotatable=0;points=[[0,0.5],[1,0.5]];portConstraint=eastwest;" parent="TWxnpPS1QbsQpwc__-Ks-60" vertex="1">
          <mxGeometry y="48" width="250" height="22" as="geometry" />
        </mxCell>
        <mxCell id="TWxnpPS1QbsQpwc__-Ks-64" style="edgeStyle=orthogonalEdgeStyle;rounded=0;orthogonalLoop=1;jettySize=auto;html=1;exitX=1;exitY=0.5;exitDx=0;exitDy=0;" parent="TWxnpPS1QbsQpwc__-Ks-60" edge="1">
          <mxGeometry relative="1" as="geometry">
            <mxPoint x="250" y="39" as="sourcePoint" />
            <mxPoint x="250" y="39" as="targetPoint" />
          </mxGeometry>
        </mxCell>
        <mxCell id="TWxnpPS1QbsQpwc__-Ks-66" value="UserService" style="swimlane;fontStyle=0;childLayout=stackLayout;horizontal=1;startSize=26;fillColor=none;horizontalStack=0;resizeParent=1;resizeParentMax=0;resizeLast=0;collapsible=1;marginBottom=0;" parent="1" vertex="1">
          <mxGeometry x="400" y="920" width="230" height="78" as="geometry" />
        </mxCell>
        <mxCell id="TWxnpPS1QbsQpwc__-Ks-69" value="getUser(...params): User" style="text;strokeColor=none;fillColor=none;align=left;verticalAlign=top;spacingLeft=4;spacingRight=4;overflow=hidden;rotatable=0;points=[[0,0.5],[1,0.5]];portConstraint=eastwest;" parent="TWxnpPS1QbsQpwc__-Ks-66" vertex="1">
          <mxGeometry y="26" width="230" height="26" as="geometry" />
        </mxCell>
        <mxCell id="TWxnpPS1QbsQpwc__-Ks-70" value="updateUser(id): User" style="text;strokeColor=none;fillColor=none;align=left;verticalAlign=top;spacingLeft=4;spacingRight=4;overflow=hidden;rotatable=0;points=[[0,0.5],[1,0.5]];portConstraint=eastwest;" parent="TWxnpPS1QbsQpwc__-Ks-66" vertex="1">
          <mxGeometry y="52" width="230" height="26" as="geometry" />
        </mxCell>
        <mxCell id="TWxnpPS1QbsQpwc__-Ks-71" value="" style="shape=flexArrow;endArrow=classic;html=1;rounded=0;fontFamily=Helvetica;fontSize=11;fontColor=default;" parent="1" edge="1">
          <mxGeometry width="50" height="50" relative="1" as="geometry">
            <mxPoint x="110" y="770" as="sourcePoint" />
            <mxPoint x="110" y="690" as="targetPoint" />
            <Array as="points">
              <mxPoint x="120" y="740" />
            </Array>
          </mxGeometry>
        </mxCell>
        <mxCell id="TWxnpPS1QbsQpwc__-Ks-73" value="UserController" style="swimlane;fontStyle=0;childLayout=stackLayout;horizontal=1;startSize=26;fillColor=none;horizontalStack=0;resizeParent=1;resizeParentMax=0;resizeLast=0;collapsible=1;marginBottom=0;" parent="1" vertex="1">
          <mxGeometry x="10" y="920" width="250" height="78" as="geometry" />
        </mxCell>
        <mxCell id="TWxnpPS1QbsQpwc__-Ks-74" value="apiGetUser(req, res): User" style="text;strokeColor=none;fillColor=none;align=left;verticalAlign=top;spacingLeft=4;spacingRight=4;overflow=hidden;rotatable=0;points=[[0,0.5],[1,0.5]];portConstraint=eastwest;" parent="TWxnpPS1QbsQpwc__-Ks-73" vertex="1">
          <mxGeometry y="26" width="250" height="26" as="geometry" />
        </mxCell>
        <mxCell id="TWxnpPS1QbsQpwc__-Ks-75" value="apiUpdateUser(req, res): User" style="text;strokeColor=none;fillColor=none;align=left;verticalAlign=top;spacingLeft=3;spacingRight=4;overflow=hidden;rotatable=0;points=[[0,0.5],[1,0.5]];portConstraint=eastwest;spacing=1;fontSize=11;" parent="TWxnpPS1QbsQpwc__-Ks-73" vertex="1">
          <mxGeometry y="52" width="250" height="26" as="geometry" />
        </mxCell>
        <mxCell id="TWxnpPS1QbsQpwc__-Ks-76" style="edgeStyle=orthogonalEdgeStyle;rounded=0;orthogonalLoop=1;jettySize=auto;html=1;exitX=1;exitY=0.5;exitDx=0;exitDy=0;" parent="TWxnpPS1QbsQpwc__-Ks-73" source="TWxnpPS1QbsQpwc__-Ks-74" target="TWxnpPS1QbsQpwc__-Ks-74" edge="1">
          <mxGeometry relative="1" as="geometry" />
        </mxCell>
        <mxCell id="TWxnpPS1QbsQpwc__-Ks-80" value="callback" style="html=1;verticalAlign=bottom;endArrow=block;entryX=-0.001;entryY=0.09;rounded=0;fontFamily=Helvetica;fontSize=11;fontColor=default;entryDx=0;entryDy=0;entryPerimeter=0;exitX=1.005;exitY=0.166;exitDx=0;exitDy=0;exitPerimeter=0;" parent="1" source="TWxnpPS1QbsQpwc__-Ks-73" target="TWxnpPS1QbsQpwc__-Ks-66" edge="1">
          <mxGeometry relative="1" as="geometry">
            <mxPoint x="350" y="930" as="sourcePoint" />
            <mxPoint x="290" y="930" as="targetPoint" />
          </mxGeometry>
        </mxCell>
        <mxCell id="TWxnpPS1QbsQpwc__-Ks-81" value="return" style="html=1;verticalAlign=bottom;endArrow=open;dashed=1;endSize=8;exitX=-0.005;exitY=0.173;rounded=0;fontFamily=Helvetica;fontSize=11;fontColor=default;entryX=1;entryY=0.25;entryDx=0;entryDy=0;exitDx=0;exitDy=0;exitPerimeter=0;" parent="1" source="TWxnpPS1QbsQpwc__-Ks-66" target="TWxnpPS1QbsQpwc__-Ks-73" edge="1">
          <mxGeometry x="0.065" y="10" relative="1" as="geometry">
            <mxPoint x="360" y="958.78" as="targetPoint" />
            <mxPoint x="300" y="958.78" as="sourcePoint" />
            <mxPoint as="offset" />
          </mxGeometry>
        </mxCell>
        <mxCell id="TWxnpPS1QbsQpwc__-Ks-83" value="UserRoutes" style="swimlane;fontStyle=0;childLayout=stackLayout;horizontal=1;startSize=26;fillColor=none;horizontalStack=0;resizeParent=1;resizeParentMax=0;resizeLast=0;collapsible=1;marginBottom=0;" parent="1" vertex="1">
          <mxGeometry x="10" y="1040" width="250" height="48" as="geometry" />
        </mxCell>
        <mxCell id="TWxnpPS1QbsQpwc__-Ks-84" value="/api/user - get, put&#xa;" style="text;strokeColor=none;fillColor=none;align=left;verticalAlign=top;spacingLeft=4;spacingRight=4;overflow=hidden;rotatable=0;points=[[0,0.5],[1,0.5]];portConstraint=eastwest;" parent="TWxnpPS1QbsQpwc__-Ks-83" vertex="1">
          <mxGeometry y="26" width="250" height="22" as="geometry" />
        </mxCell>
        <mxCell id="TWxnpPS1QbsQpwc__-Ks-86" style="edgeStyle=orthogonalEdgeStyle;rounded=0;orthogonalLoop=1;jettySize=auto;html=1;exitX=1;exitY=0.5;exitDx=0;exitDy=0;" parent="TWxnpPS1QbsQpwc__-Ks-83" edge="1">
          <mxGeometry relative="1" as="geometry">
            <mxPoint x="250" y="39" as="sourcePoint" />
            <mxPoint x="250" y="39" as="targetPoint" />
          </mxGeometry>
        </mxCell>
        <mxCell id="TWxnpPS1QbsQpwc__-Ks-87" value="" style="shape=flexArrow;endArrow=classic;html=1;rounded=0;fontFamily=Helvetica;fontSize=11;fontColor=default;" parent="1" edge="1">
          <mxGeometry width="50" height="50" relative="1" as="geometry">
            <mxPoint x="140" y="1030" as="sourcePoint" />
            <mxPoint x="140" y="1000" as="targetPoint" />
          </mxGeometry>
        </mxCell>
        <mxCell id="D25pKETQgdveRsnmzQNh-27" value="" style="edgeStyle=orthogonalEdgeStyle;rounded=0;orthogonalLoop=1;jettySize=auto;html=1;" edge="1" parent="1" source="D25pKETQgdveRsnmzQNh-3" target="D25pKETQgdveRsnmzQNh-23">
          <mxGeometry relative="1" as="geometry" />
        </mxCell>
        <mxCell id="D25pKETQgdveRsnmzQNh-3" value="Start" style="swimlane;fontStyle=0;childLayout=stackLayout;horizontal=1;startSize=26;fillColor=none;horizontalStack=0;resizeParent=1;resizeParentMax=0;resizeLast=0;collapsible=1;marginBottom=0;" vertex="1" parent="1">
          <mxGeometry x="285" y="-60" width="140" height="52" as="geometry" />
        </mxCell>
        <mxCell id="D25pKETQgdveRsnmzQNh-7" value="Login" style="swimlane;fontStyle=0;childLayout=stackLayout;horizontal=1;startSize=26;fillColor=none;horizontalStack=0;resizeParent=1;resizeParentMax=0;resizeLast=0;collapsible=1;marginBottom=0;" vertex="1" parent="1">
          <mxGeometry x="556.11" y="-142" width="140" height="52" as="geometry" />
        </mxCell>
        <mxCell id="D25pKETQgdveRsnmzQNh-8" value="fetch(/api/login)" style="text;strokeColor=none;fillColor=none;align=left;verticalAlign=top;spacingLeft=4;spacingRight=4;overflow=hidden;rotatable=0;points=[[0,0.5],[1,0.5]];portConstraint=eastwest;" vertex="1" parent="D25pKETQgdveRsnmzQNh-7">
          <mxGeometry y="26" width="140" height="26" as="geometry" />
        </mxCell>
        <mxCell id="D25pKETQgdveRsnmzQNh-11" value="Register" style="swimlane;fontStyle=0;childLayout=stackLayout;horizontal=1;startSize=26;fillColor=none;horizontalStack=0;resizeParent=1;resizeParentMax=0;resizeLast=0;collapsible=1;marginBottom=0;" vertex="1" parent="1">
          <mxGeometry x="521.11" y="-250" width="210" height="52" as="geometry" />
        </mxCell>
        <mxCell id="D25pKETQgdveRsnmzQNh-12" value="fetch(/api/register)" style="text;strokeColor=none;fillColor=none;align=left;verticalAlign=top;spacingLeft=4;spacingRight=4;overflow=hidden;rotatable=0;points=[[0,0.5],[1,0.5]];portConstraint=eastwest;" vertex="1" parent="D25pKETQgdveRsnmzQNh-11">
          <mxGeometry y="26" width="210" height="26" as="geometry" />
        </mxCell>
        <mxCell id="D25pKETQgdveRsnmzQNh-15" value="Frontpage" style="swimlane;fontStyle=0;childLayout=stackLayout;horizontal=1;startSize=26;fillColor=none;horizontalStack=0;resizeParent=1;resizeParentMax=0;resizeLast=0;collapsible=1;marginBottom=0;" vertex="1" parent="1">
          <mxGeometry x="270" y="-273" width="170" height="52" as="geometry" />
        </mxCell>
        <mxCell id="D25pKETQgdveRsnmzQNh-17" value="+ room: Room[0..*]" style="text;strokeColor=none;fillColor=none;align=left;verticalAlign=top;spacingLeft=4;spacingRight=4;overflow=hidden;rotatable=0;points=[[0,0.5],[1,0.5]];portConstraint=eastwest;" vertex="1" parent="D25pKETQgdveRsnmzQNh-15">
          <mxGeometry y="26" width="170" height="26" as="geometry" />
        </mxCell>
        <mxCell id="D25pKETQgdveRsnmzQNh-19" value="Room" style="swimlane;fontStyle=0;childLayout=stackLayout;horizontal=1;startSize=26;fillColor=none;horizontalStack=0;resizeParent=1;resizeParentMax=0;resizeLast=0;collapsible=1;marginBottom=0;" vertex="1" parent="1">
          <mxGeometry x="300" y="-440" width="140" height="104" as="geometry" />
        </mxCell>
        <mxCell id="D25pKETQgdveRsnmzQNh-20" value="+ playlist: string[0..*]" style="text;strokeColor=none;fillColor=none;align=left;verticalAlign=top;spacingLeft=4;spacingRight=4;overflow=hidden;rotatable=0;points=[[0,0.5],[1,0.5]];portConstraint=eastwest;" vertex="1" parent="D25pKETQgdveRsnmzQNh-19">
          <mxGeometry y="26" width="140" height="26" as="geometry" />
        </mxCell>
        <mxCell id="D25pKETQgdveRsnmzQNh-21" value="+ field: type" style="text;strokeColor=none;fillColor=none;align=left;verticalAlign=top;spacingLeft=4;spacingRight=4;overflow=hidden;rotatable=0;points=[[0,0.5],[1,0.5]];portConstraint=eastwest;" vertex="1" parent="D25pKETQgdveRsnmzQNh-19">
          <mxGeometry y="52" width="140" height="26" as="geometry" />
        </mxCell>
        <mxCell id="D25pKETQgdveRsnmzQNh-22" value="+ field: type" style="text;strokeColor=none;fillColor=none;align=left;verticalAlign=top;spacingLeft=4;spacingRight=4;overflow=hidden;rotatable=0;points=[[0,0.5],[1,0.5]];portConstraint=eastwest;" vertex="1" parent="D25pKETQgdveRsnmzQNh-19">
          <mxGeometry y="78" width="140" height="26" as="geometry" />
        </mxCell>
        <mxCell id="D25pKETQgdveRsnmzQNh-26" value="" style="edgeStyle=orthogonalEdgeStyle;rounded=0;orthogonalLoop=1;jettySize=auto;html=1;entryX=0.524;entryY=1.038;entryDx=0;entryDy=0;entryPerimeter=0;" edge="1" parent="1" source="D25pKETQgdveRsnmzQNh-23">
          <mxGeometry relative="1" as="geometry">
            <mxPoint x="359.0799999999999" y="-194.01199999999994" as="targetPoint" />
          </mxGeometry>
        </mxCell>
        <mxCell id="D25pKETQgdveRsnmzQNh-23" value="Logged in" style="rhombus;whiteSpace=wrap;html=1;fillColor=#ffffc0;strokeColor=#ff0000;" vertex="1" parent="1">
          <mxGeometry x="310" y="-130" width="80" height="40" as="geometry" />
        </mxCell>
        <mxCell id="D25pKETQgdveRsnmzQNh-24" value="no" style="edgeStyle=orthogonalEdgeStyle;html=1;align=left;verticalAlign=bottom;endArrow=open;endSize=8;strokeColor=#ff0000;rounded=0;entryX=0;entryY=0.5;entryDx=0;entryDy=0;" edge="1" source="D25pKETQgdveRsnmzQNh-23" parent="1" target="D25pKETQgdveRsnmzQNh-7">
          <mxGeometry x="-1" relative="1" as="geometry">
            <mxPoint x="480" y="-160" as="targetPoint" />
          </mxGeometry>
        </mxCell>
        <mxCell id="D25pKETQgdveRsnmzQNh-28" value="" style="endArrow=diamondThin;endFill=0;endSize=24;html=1;rounded=0;exitX=0.5;exitY=0;exitDx=0;exitDy=0;entryX=0.499;entryY=1.192;entryDx=0;entryDy=0;entryPerimeter=0;" edge="1" parent="1" source="D25pKETQgdveRsnmzQNh-7" target="D25pKETQgdveRsnmzQNh-12">
          <mxGeometry width="160" relative="1" as="geometry">
            <mxPoint x="310" y="-180" as="sourcePoint" />
            <mxPoint x="470" y="-180" as="targetPoint" />
          </mxGeometry>
        </mxCell>
        <mxCell id="D25pKETQgdveRsnmzQNh-29" value="" style="endArrow=diamondThin;endFill=1;endSize=24;html=1;rounded=0;entryX=0.553;entryY=-0.026;entryDx=0;entryDy=0;entryPerimeter=0;exitX=0.45;exitY=1.192;exitDx=0;exitDy=0;exitPerimeter=0;" edge="1" parent="1" source="D25pKETQgdveRsnmzQNh-22" target="D25pKETQgdveRsnmzQNh-15">
          <mxGeometry width="160" relative="1" as="geometry">
            <mxPoint x="310" y="-330" as="sourcePoint" />
            <mxPoint x="470" y="-330" as="targetPoint" />
          </mxGeometry>
        </mxCell>
        <mxCell id="D25pKETQgdveRsnmzQNh-30" value="Chat" style="swimlane;fontStyle=0;childLayout=stackLayout;horizontal=1;startSize=26;fillColor=none;horizontalStack=0;resizeParent=1;resizeParentMax=0;resizeLast=0;collapsible=1;marginBottom=0;" vertex="1" parent="1">
          <mxGeometry x="90" y="-430" width="140" height="104" as="geometry" />
        </mxCell>
        <mxCell id="D25pKETQgdveRsnmzQNh-31" value="+ field: type" style="text;strokeColor=none;fillColor=none;align=left;verticalAlign=top;spacingLeft=4;spacingRight=4;overflow=hidden;rotatable=0;points=[[0,0.5],[1,0.5]];portConstraint=eastwest;" vertex="1" parent="D25pKETQgdveRsnmzQNh-30">
          <mxGeometry y="26" width="140" height="26" as="geometry" />
        </mxCell>
        <mxCell id="D25pKETQgdveRsnmzQNh-32" value="+ field: type" style="text;strokeColor=none;fillColor=none;align=left;verticalAlign=top;spacingLeft=4;spacingRight=4;overflow=hidden;rotatable=0;points=[[0,0.5],[1,0.5]];portConstraint=eastwest;" vertex="1" parent="D25pKETQgdveRsnmzQNh-30">
          <mxGeometry y="52" width="140" height="26" as="geometry" />
        </mxCell>
        <mxCell id="D25pKETQgdveRsnmzQNh-33" value="+ field: type" style="text;strokeColor=none;fillColor=none;align=left;verticalAlign=top;spacingLeft=4;spacingRight=4;overflow=hidden;rotatable=0;points=[[0,0.5],[1,0.5]];portConstraint=eastwest;" vertex="1" parent="D25pKETQgdveRsnmzQNh-30">
          <mxGeometry y="78" width="140" height="26" as="geometry" />
        </mxCell>
        <mxCell id="D25pKETQgdveRsnmzQNh-34" value="" style="endArrow=diamondThin;endFill=1;endSize=24;html=1;rounded=0;exitX=1;exitY=0.5;exitDx=0;exitDy=0;entryX=0.014;entryY=0.269;entryDx=0;entryDy=0;entryPerimeter=0;" edge="1" parent="1" source="D25pKETQgdveRsnmzQNh-32" target="D25pKETQgdveRsnmzQNh-21">
          <mxGeometry width="160" relative="1" as="geometry">
            <mxPoint x="310" y="-330" as="sourcePoint" />
            <mxPoint x="470" y="-330" as="targetPoint" />
          </mxGeometry>
        </mxCell>
        <mxCell id="D25pKETQgdveRsnmzQNh-35" value="User" style="swimlane;fontStyle=0;childLayout=stackLayout;horizontal=1;startSize=26;fillColor=none;horizontalStack=0;resizeParent=1;resizeParentMax=0;resizeLast=0;collapsible=1;marginBottom=0;" vertex="1" parent="1">
          <mxGeometry x="60" y="-260" width="140" height="104" as="geometry" />
        </mxCell>
        <mxCell id="D25pKETQgdveRsnmzQNh-36" value="+ name: string" style="text;strokeColor=none;fillColor=none;align=left;verticalAlign=top;spacingLeft=4;spacingRight=4;overflow=hidden;rotatable=0;points=[[0,0.5],[1,0.5]];portConstraint=eastwest;" vertex="1" parent="D25pKETQgdveRsnmzQNh-35">
          <mxGeometry y="26" width="140" height="26" as="geometry" />
        </mxCell>
        <mxCell id="D25pKETQgdveRsnmzQNh-37" value="+ e-mail: string&#xa;" style="text;strokeColor=none;fillColor=none;align=left;verticalAlign=top;spacingLeft=4;spacingRight=4;overflow=hidden;rotatable=0;points=[[0,0.5],[1,0.5]];portConstraint=eastwest;" vertex="1" parent="D25pKETQgdveRsnmzQNh-35">
          <mxGeometry y="52" width="140" height="26" as="geometry" />
        </mxCell>
        <mxCell id="D25pKETQgdveRsnmzQNh-38" value="+ password: string" style="text;strokeColor=none;fillColor=none;align=left;verticalAlign=top;spacingLeft=4;spacingRight=4;overflow=hidden;rotatable=0;points=[[0,0.5],[1,0.5]];portConstraint=eastwest;" vertex="1" parent="D25pKETQgdveRsnmzQNh-35">
          <mxGeometry y="78" width="140" height="26" as="geometry" />
        </mxCell>
        <mxCell id="D25pKETQgdveRsnmzQNh-39" value="" style="endArrow=diamondThin;endFill=0;endSize=24;html=1;rounded=0;exitX=0.5;exitY=0;exitDx=0;exitDy=0;entryX=0.329;entryY=1.154;entryDx=0;entryDy=0;entryPerimeter=0;" edge="1" parent="1" source="D25pKETQgdveRsnmzQNh-35" target="D25pKETQgdveRsnmzQNh-33">
          <mxGeometry width="160" relative="1" as="geometry">
            <mxPoint x="300" y="-200" as="sourcePoint" />
            <mxPoint x="460" y="-200" as="targetPoint" />
          </mxGeometry>
        </mxCell>
        <mxCell id="D25pKETQgdveRsnmzQNh-40" value="Use" style="endArrow=open;endSize=12;dashed=1;html=1;rounded=0;exitX=0.479;exitY=1.077;exitDx=0;exitDy=0;exitPerimeter=0;" edge="1" parent="1" source="D25pKETQgdveRsnmzQNh-38" target="clUydpwqfqvUc8bR2Yav-12">
          <mxGeometry width="160" relative="1" as="geometry">
            <mxPoint x="300" y="-50" as="sourcePoint" />
            <mxPoint x="460" y="-50" as="targetPoint" />
          </mxGeometry>
        </mxCell>
        <mxCell id="D25pKETQgdveRsnmzQNh-41" value="Video" style="swimlane;fontStyle=0;childLayout=stackLayout;horizontal=1;startSize=26;fillColor=none;horizontalStack=0;resizeParent=1;resizeParentMax=0;resizeLast=0;collapsible=1;marginBottom=0;" vertex="1" parent="1">
          <mxGeometry x="285" y="-640" width="140" height="104" as="geometry" />
        </mxCell>
        <mxCell id="D25pKETQgdveRsnmzQNh-42" value="+ field: type" style="text;strokeColor=none;fillColor=none;align=left;verticalAlign=top;spacingLeft=4;spacingRight=4;overflow=hidden;rotatable=0;points=[[0,0.5],[1,0.5]];portConstraint=eastwest;" vertex="1" parent="D25pKETQgdveRsnmzQNh-41">
          <mxGeometry y="26" width="140" height="26" as="geometry" />
        </mxCell>
        <mxCell id="D25pKETQgdveRsnmzQNh-43" value="+ field: type" style="text;strokeColor=none;fillColor=none;align=left;verticalAlign=top;spacingLeft=4;spacingRight=4;overflow=hidden;rotatable=0;points=[[0,0.5],[1,0.5]];portConstraint=eastwest;" vertex="1" parent="D25pKETQgdveRsnmzQNh-41">
          <mxGeometry y="52" width="140" height="26" as="geometry" />
        </mxCell>
        <mxCell id="D25pKETQgdveRsnmzQNh-44" value="+ field: type" style="text;strokeColor=none;fillColor=none;align=left;verticalAlign=top;spacingLeft=4;spacingRight=4;overflow=hidden;rotatable=0;points=[[0,0.5],[1,0.5]];portConstraint=eastwest;" vertex="1" parent="D25pKETQgdveRsnmzQNh-41">
          <mxGeometry y="78" width="140" height="26" as="geometry" />
        </mxCell>
        <mxCell id="D25pKETQgdveRsnmzQNh-45" value="" style="endArrow=diamondThin;endFill=1;endSize=24;html=1;rounded=0;exitX=0.479;exitY=1.038;exitDx=0;exitDy=0;exitPerimeter=0;entryX=0.5;entryY=0;entryDx=0;entryDy=0;" edge="1" parent="1" source="D25pKETQgdveRsnmzQNh-44" target="D25pKETQgdveRsnmzQNh-19">
          <mxGeometry width="160" relative="1" as="geometry">
            <mxPoint x="300" y="-410" as="sourcePoint" />
            <mxPoint x="460" y="-410" as="targetPoint" />
          </mxGeometry>
        </mxCell>
      </root>
    </mxGraphModel>
  </diagram>
</mxfile>
